NotoSerifTamil-ExtraCondensedLight.ufo
<glyph name="exclam" format="2">
  <advance width="247.63636363636363"/>
  <unicode hex="0021"/>
  <outline>
    <contour>
      <point x="108.81818181818183" y="183.90909090909093" type="line"/>
      <point x="139.1818181818182" y="183.90909090909093" type="line"/>
      <point x="158.0" y="714.0" type="line"/>
      <point x="89.0909090909091" y="714.0" type="line"/>
    </contour>
    <contour>
      <point x="123.81818181818183" y="-6.090909090909091" type="curve" smooth="yes"/>
      <point x="144.9090909090909" y="-6.090909090909091"/>
      <point x="164.36363636363637" y="6.636363636363637"/>
      <point x="164.36363636363637" y="45.45454545454545" type="curve" smooth="yes"/>
      <point x="164.36363636363637" y="84.72727272727273"/>
      <point x="144.9090909090909" y="97.45454545454545"/>
      <point x="123.81818181818183" y="97.45454545454545" type="curve" smooth="yes"/>
      <point x="100.27272727272728" y="97.45454545454545"/>
      <point x="82.36363636363636" y="84.72727272727273"/>
      <point x="82.36363636363636" y="45.45454545454545" type="curve" smooth="yes"/>
      <point x="82.36363636363636" y="6.636363636363637"/>
      <point x="100.27272727272728" y="-6.090909090909091"/>
    </contour>
  </outline>
</glyph>
<glyph name="quotedbl" format="2">
  <advance width="294.4545454545455"/>
  <unicode hex="0022"/>
  <outline>
    <contour>
      <point x="201.9090909090909" y="502.0909090909091" type="line"/>
      <point x="232.9090909090909" y="502.0909090909091" type="line"/>
      <point x="251.45454545454544" y="714.0" type="line"/>
      <point x="180.63636363636365" y="714.0" type="line"/>
    </contour>
    <contour>
      <point x="62.72727272727273" y="502.0909090909091" type="line"/>
      <point x="93.18181818181819" y="502.0909090909091" type="line"/>
      <point x="113.36363636363635" y="714.0" type="line"/>
      <point x="42.0" y="714.0" type="line"/>
    </contour>
  </outline>
</glyph>
<glyph name="numbersign" format="2">
  <advance width="434.8181818181818"/>
  <unicode hex="0023"/>
  <outline>
    <contour>
      <point x="42.18181818181818" y="0.0" type="line"/>
      <point x="84.9090909090909" y="0.0" type="line"/>
      <point x="124.81818181818183" y="213.0" type="line"/>
      <point x="247.90909090909093" y="213.0" type="line"/>
      <point x="208.00000000000003" y="0.0" type="line"/>
      <point x="250.72727272727272" y="0.0" type="line"/>
      <point x="290.6363636363636" y="213.0" type="line"/>
      <point x="396.6363636363636" y="213.0" type="line"/>
      <point x="396.6363636363636" y="252.1818181818182" type="line"/>
      <point x="298.3636363636364" y="252.1818181818182" type="line"/>
      <point x="338.6363636363637" y="467.27272727272725" type="line"/>
      <point x="428.6363636363636" y="467.27272727272725" type="line"/>
      <point x="428.6363636363636" y="507.54545454545456" type="line"/>
      <point x="346.3636363636364" y="507.54545454545456" type="line"/>
      <point x="385.2727272727273" y="714.0" type="line"/>
      <point x="342.0" y="714.0" type="line"/>
      <point x="303.6363636363637" y="507.54545454545456" type="line"/>
      <point x="180.54545454545453" y="507.54545454545456" type="line"/>
      <point x="219.45454545454547" y="714.0" type="line"/>
      <point x="176.1818181818182" y="714.0" type="line"/>
      <point x="137.8181818181818" y="507.54545454545456" type="line"/>
      <point x="36.27272727272727" y="507.54545454545456" type="line"/>
      <point x="36.27272727272727" y="467.27272727272725" type="line"/>
      <point x="129.54545454545456" y="467.27272727272725" type="line"/>
      <point x="89.81818181818181" y="252.1818181818182" type="line"/>
      <point x="4.272727272727273" y="252.1818181818182" type="line"/>
      <point x="4.272727272727273" y="213.0" type="line"/>
      <point x="82.09090909090908" y="213.0" type="line"/>
    </contour>
    <contour>
      <point x="132.54545454545453" y="252.1818181818182" type="line"/>
      <point x="172.8181818181818" y="467.27272727272725" type="line"/>
      <point x="295.9090909090909" y="467.27272727272725" type="line"/>
      <point x="255.63636363636365" y="252.1818181818182" type="line"/>
    </contour>
  </outline>
</glyph>
<glyph name="percent" format="2">
  <advance width="693.2727272727273"/>
  <unicode hex="0025"/>
  <outline>
    <contour>
      <point x="181.0909090909091" y="0.0" type="line"/>
      <point x="224.72727272727272" y="0.0" type="line"/>
      <point x="508.7272727272727" y="714.0" type="line"/>
      <point x="465.6363636363636" y="714.0" type="line"/>
    </contour>
    <contour>
      <point x="161.0" y="280.0" type="curve" smooth="yes"/>
      <point x="245.54545454545453" y="280.0"/>
      <point x="285.90909090909093" y="364.4545454545455"/>
      <point x="285.90909090909093" y="503.0" type="curve"/>
      <point x="285.90909090909093" y="642.4545454545454"/>
      <point x="246.0" y="724.0"/>
      <point x="162.0" y="724.0" type="curve" smooth="yes"/>
      <point x="74.72727272727273" y="724.0"/>
      <point x="37.54545454545454" y="641.5454545454545"/>
      <point x="37.54545454545454" y="503.0" type="curve" smooth="yes"/>
      <point x="37.54545454545454" y="362.1818181818182"/>
      <point x="75.18181818181819" y="280.0"/>
    </contour>
    <contour>
      <point x="161.0" y="311.0" type="curve" smooth="yes"/>
      <point x="105.72727272727273" y="311.0"/>
      <point x="87.9090909090909" y="379.8181818181818"/>
      <point x="87.9090909090909" y="503.0" type="curve"/>
      <point x="87.9090909090909" y="624.6363636363636"/>
      <point x="105.72727272727272" y="692.4545454545455"/>
      <point x="161.54545454545456" y="692.4545454545455" type="curve" smooth="yes"/>
      <point x="218.1818181818182" y="692.4545454545455"/>
      <point x="235.0" y="624.6363636363636"/>
      <point x="235.0" y="503.0" type="curve" smooth="yes"/>
      <point x="235.0" y="379.8181818181818"/>
      <point x="218.1818181818182" y="311.0"/>
    </contour>
    <contour>
      <point x="531.2727272727273" y="-10.0" type="curve" smooth="yes"/>
      <point x="615.8181818181819" y="-10.0"/>
      <point x="656.1818181818181" y="74.45454545454545"/>
      <point x="656.1818181818181" y="213.0" type="curve" smooth="yes"/>
      <point x="656.1818181818181" y="352.4545454545455"/>
      <point x="616.2727272727274" y="434.0"/>
      <point x="532.2727272727273" y="434.0" type="curve" smooth="yes"/>
      <point x="445.54545454545456" y="434.0"/>
      <point x="407.8181818181818" y="351.54545454545456"/>
      <point x="407.8181818181818" y="213.0" type="curve" smooth="yes"/>
      <point x="407.8181818181818" y="72.18181818181819"/>
      <point x="445.99999999999994" y="-10.0"/>
    </contour>
    <contour>
      <point x="531.2727272727273" y="21.0" type="curve" smooth="yes"/>
      <point x="476.0" y="21.0"/>
      <point x="458.18181818181813" y="89.81818181818181"/>
      <point x="458.18181818181813" y="213.0" type="curve" smooth="yes"/>
      <point x="458.18181818181813" y="334.6363636363636"/>
      <point x="476.0" y="402.4545454545455"/>
      <point x="531.2727272727273" y="402.4545454545455" type="curve" smooth="yes"/>
      <point x="588.4545454545454" y="402.4545454545455"/>
      <point x="605.2727272727274" y="334.6363636363636"/>
      <point x="605.2727272727274" y="213.0" type="curve" smooth="yes"/>
      <point x="605.2727272727274" y="89.81818181818181"/>
      <point x="588.4545454545455" y="21.0"/>
    </contour>
  </outline>
</glyph>
<glyph name="quotesingle" format="2">
  <advance width="155.9090909090909"/>
  <unicode hex="0027"/>
  <outline>
    <contour>
      <point x="62.72727272727273" y="502.0909090909091" type="line"/>
      <point x="93.18181818181819" y="502.0909090909091" type="line"/>
      <point x="113.36363636363635" y="714.0" type="line"/>
      <point x="42.0" y="714.0" type="line"/>
    </contour>
  </outline>
</glyph>
<glyph name="parenright" format="2">
  <advance width="255.3636363636364"/>
  <unicode hex="0029"/>
  <outline>
    <contour>
      <point x="24.090909090909086" y="-121.54545454545455" type="line"/>
      <point x="149.0" y="-62.72727272727273"/>
      <point x="211.36363636363635" y="68.0"/>
      <point x="211.36363636363635" y="316.09090909090907" type="curve" smooth="yes"/>
      <point x="211.36363636363635" y="562.2727272727273"/>
      <point x="149.0" y="694.3636363636364"/>
      <point x="24.090909090909086" y="752.0909090909091" type="curve"/>
      <point x="24.090909090909086" y="716.4545454545455" type="line"/>
      <point x="113.27272727272727" y="655.1818181818181"/>
      <point x="147.36363636363637" y="502.3636363636363"/>
      <point x="147.36363636363637" y="316.09090909090907" type="curve" smooth="yes"/>
      <point x="147.36363636363637" y="129.8181818181818"/>
      <point x="113.27272727272728" y="-24.09090909090909"/>
      <point x="24.090909090909086" y="-84.81818181818183" type="curve"/>
    </contour>
  </outline>
</glyph>
<glyph name="asterisk" format="2">
  <advance width="361.0"/>
  <unicode hex="002A"/>
  <outline>
    <contour>
      <point x="151.1818181818182" y="377.6363636363636" type="line"/>
      <point x="209.00000000000003" y="377.6363636363636" type="line"/>
      <point x="190.54545454545456" y="544.5454545454545" type="line"/>
      <point x="302.8181818181818" y="455.6363636363636" type="line"/>
      <point x="325.9090909090909" y="513.2727272727273" type="line"/>
      <point x="202.9090909090909" y="568.8181818181819" type="line"/>
      <point x="325.9090909090909" y="624.8181818181819" type="line"/>
      <point x="302.8181818181818" y="684.0" type="line"/>
      <point x="190.54545454545456" y="593.0909090909091" type="line"/>
      <point x="209.0" y="760.0" type="line"/>
      <point x="151.1818181818182" y="760.0" type="line"/>
      <point x="168.0909090909091" y="593.0" type="line"/>
      <point x="56.36363636363636" y="686.0" type="line"/>
      <point x="32.81818181818182" y="625.8181818181819" type="line"/>
      <point x="155.81818181818184" y="568.8181818181819" type="line"/>
      <point x="32.81818181818182" y="512.2727272727273" type="line"/>
      <point x="56.36363636363636" y="453.6363636363636" type="line"/>
      <point x="167.0909090909091" y="544.6363636363636" type="line"/>
    </contour>
  </outline>
</glyph>
<glyph name="plus" format="2">
  <advance width="425.0"/>
  <unicode hex="002B"/>
  <outline>
    <contour>
      <point x="189.27272727272725" y="143.0" type="line"/>
      <point x="235.09090909090912" y="143.0" type="line"/>
      <point x="235.09090909090912" y="335.8181818181818" type="line"/>
      <point x="378.8181818181818" y="335.8181818181818" type="line"/>
      <point x="378.8181818181818" y="379.6363636363637" type="line"/>
      <point x="235.09090909090912" y="379.6363636363637" type="line"/>
      <point x="235.09090909090912" y="572.0" type="line"/>
      <point x="189.27272727272725" y="572.0" type="line"/>
      <point x="189.27272727272725" y="379.6363636363637" type="line"/>
      <point x="46.18181818181818" y="379.6363636363637" type="line"/>
      <point x="46.18181818181818" y="335.8181818181818" type="line"/>
      <point x="189.27272727272725" y="335.8181818181818" type="line"/>
    </contour>
  </outline>
</glyph>
<glyph name="comma" format="2">
  <advance width="184.27272727272728"/>
  <unicode hex="002C"/>
  <outline>
    <contour>
      <point x="26.545454545454547" y="-154.0" type="line"/>
      <point x="107.9090909090909" y="-122.9090909090909"/>
      <point x="138.72727272727275" y="-54.72727272727273"/>
      <point x="138.72727272727275" y="14.181818181818183" type="curve" smooth="yes"/>
      <point x="138.72727272727275" y="71.27272727272728"/>
      <point x="114.72727272727272" y="97.0"/>
      <point x="85.0909090909091" y="97.0" type="curve" smooth="yes"/>
      <point x="62.63636363636363" y="97.0"/>
      <point x="45.27272727272727" y="81.0909090909091"/>
      <point x="45.27272727272727" y="56.27272727272727" type="curve" smooth="yes"/>
      <point x="45.27272727272727" y="12.727272727272728"/>
      <point x="93.0909090909091" y="11.0"/>
      <point x="93.0909090909091" y="-26.0" type="curve" smooth="yes"/>
      <point x="93.0909090909091" y="-61.0"/>
      <point x="72.45454545454545" y="-102.9090909090909"/>
      <point x="26.545454545454547" y="-121.45454545454545" type="curve"/>
    </contour>
  </outline>
</glyph>
<glyph name="hyphen" format="2">
  <advance width="241.45454545454547"/>
  <unicode hex="002D"/>
  <outline>
    <contour>
      <point x="20.0" y="246.45454545454544" type="line"/>
      <point x="221.45454545454547" y="246.45454545454544" type="line"/>
      <point x="221.45454545454547" y="299.0" type="line"/>
      <point x="20.0" y="299.0" type="line"/>
    </contour>
  </outline>
</glyph>
<glyph name="period" format="2">
  <advance width="184.27272727272728"/>
  <unicode hex="002E"/>
  <outline>
    <contour>
      <point x="93.0909090909091" y="-6.545454545454545" type="curve" smooth="yes"/>
      <point x="114.18181818181819" y="-6.545454545454545"/>
      <point x="133.1818181818182" y="6.1818181818181825"/>
      <point x="133.1818181818182" y="45.0" type="curve" smooth="yes"/>
      <point x="133.1818181818182" y="84.27272727272728"/>
      <point x="114.18181818181819" y="97.0"/>
      <point x="93.0909090909091" y="97.0" type="curve" smooth="yes"/>
      <point x="69.54545454545455" y="97.0"/>
      <point x="51.0909090909091" y="84.27272727272728"/>
      <point x="51.0909090909091" y="45.0" type="curve" smooth="yes"/>
      <point x="51.0909090909091" y="6.1818181818181825"/>
      <point x="69.54545454545455" y="-6.545454545454545"/>
    </contour>
  </outline>
</glyph>
<glyph name="slash" format="2">
  <advance width="223.9090909090909"/>
  <unicode hex="002F"/>
  <outline>
    <contour>
      <point x="0.0" y="-121.0" type="line"/>
      <point x="40.45454545454545" y="-121.0" type="line"/>
      <point x="223.9090909090909" y="760.0" type="line"/>
      <point x="184.54545454545456" y="760.0" type="line"/>
    </contour>
  </outline>
</glyph>
<glyph name="zero" format="2">
  <advance width="434.27272727272725"/>
  <unicode hex="0030"/>
  <outline>
    <contour>
      <point x="216.9090909090909" y="-10.0" type="curve" smooth="yes"/>
      <point x="338.3636363636364" y="-10.0"/>
      <point x="395.7272727272727" y="115.0"/>
      <point x="395.7272727272727" y="358.0" type="curve" smooth="yes"/>
      <point x="395.7272727272727" y="597.6363636363636"/>
      <point x="342.72727272727275" y="724.0"/>
      <point x="217.9090909090909" y="724.0" type="curve" smooth="yes"/>
      <point x="84.63636363636364" y="724.0"/>
      <point x="37.54545454545454" y="589.8181818181818"/>
      <point x="37.54545454545454" y="359.0" type="curve" smooth="yes"/>
      <point x="37.54545454545454" y="116.9090909090909"/>
      <point x="89.0" y="-10.0"/>
    </contour>
    <contour>
      <point x="216.90909090909093" y="28.636363636363637" type="curve" smooth="yes"/>
      <point x="131.0909090909091" y="28.636363636363637"/>
      <point x="99.9090909090909" y="149.72727272727275"/>
      <point x="99.9090909090909" y="358.0" type="curve" smooth="yes"/>
      <point x="99.9090909090909" y="566.2727272727273"/>
      <point x="131.0909090909091" y="685.3636363636363"/>
      <point x="217.90909090909093" y="685.3636363636363" type="curve" smooth="yes"/>
      <point x="302.72727272727275" y="685.3636363636363"/>
      <point x="334.45454545454544" y="566.2727272727273"/>
      <point x="334.45454545454544" y="358.0" type="curve" smooth="yes"/>
      <point x="334.45454545454544" y="149.72727272727272"/>
      <point x="302.72727272727275" y="28.636363636363637"/>
    </contour>
  </outline>
</glyph>
<glyph name="one" format="2">
  <advance width="434.27272727272725"/>
  <unicode hex="0031"/>
  <outline>
    <contour>
      <point x="84.45454545454547" y="0.0" type="line"/>
      <point x="354.1818181818182" y="0.0" type="line"/>
      <point x="354.1818181818182" y="31.454545454545453" type="line"/>
      <point x="315.1818181818182" y="31.454545454545453" type="line" smooth="yes"/>
      <point x="271.5454545454545" y="31.454545454545453"/>
      <point x="253.1818181818182" y="41.45454545454545"/>
      <point x="253.1818181818182" y="109.36363636363636" type="curve" smooth="yes"/>
      <point x="253.1818181818182" y="718.0" type="line"/>
      <point x="215.00000000000003" y="718.0" type="line"/>
      <point x="167.72727272727272" y="666.0909090909091" type="line" smooth="yes"/>
      <point x="121.18181818181819" y="613.9090909090909"/>
      <point x="87.63636363636364" y="599.1818181818182"/>
      <point x="56.54545454545455" y="589.1818181818181" type="curve"/>
      <point x="56.54545454545455" y="567.7272727272726"/>
      <point x="71.72727272727273" y="554.6363636363636"/>
      <point x="90.27272727272727" y="554.6363636363636" type="curve" smooth="yes"/>
      <point x="124.0" y="554.6363636363636"/>
      <point x="157.36363636363635" y="597.0909090909091"/>
      <point x="194.0909090909091" y="651.8181818181818" type="curve"/>
      <point x="194.0909090909091" y="109.36363636363636" type="line" smooth="yes"/>
      <point x="194.0909090909091" y="39.81818181818181"/>
      <point x="175.72727272727272" y="31.454545454545453"/>
      <point x="132.09090909090907" y="31.454545454545453" type="curve" smooth="yes"/>
      <point x="84.45454545454547" y="31.454545454545453" type="line"/>
    </contour>
  </outline>
</glyph>
<glyph name="two" format="2">
  <advance width="434.27272727272725"/>
  <unicode hex="0032"/>
  <outline>
    <contour>
      <point x="42.0" y="0.0" type="line"/>
      <point x="378.6363636363637" y="0.0" type="line"/>
      <point x="381.1818181818182" y="152.27272727272728" type="line"/>
      <point x="350.81818181818187" y="152.27272727272728" type="line"/>
      <point x="348.1818181818182" y="125.99999999999999" type="line" smooth="yes"/>
      <point x="342.2727272727273" y="77.18181818181819"/>
      <point x="332.45454545454544" y="54.72727272727273"/>
      <point x="284.3636363636364" y="54.72727272727273" type="curve" smooth="yes"/>
      <point x="94.54545454545455" y="54.72727272727273" type="line"/>
      <point x="241.0" y="269.4545454545455" type="line" smooth="yes"/>
      <point x="313.27272727272725" y="373.27272727272725"/>
      <point x="364.0909090909091" y="448.6363636363636"/>
      <point x="364.0909090909091" y="555.8181818181819" type="curve" smooth="yes"/>
      <point x="364.0909090909091" y="655.0"/>
      <point x="309.1818181818182" y="724.0"/>
      <point x="208.54545454545456" y="724.0" type="curve" smooth="yes"/>
      <point x="106.36363636363637" y="724.0"/>
      <point x="58.63636363636363" y="658.7272727272726"/>
      <point x="58.63636363636363" y="598.1818181818182" type="curve" smooth="yes"/>
      <point x="58.63636363636363" y="558.1818181818181"/>
      <point x="82.45454545454545" y="545.0"/>
      <point x="109.09090909090908" y="545.0" type="curve"/>
      <point x="109.09090909090908" y="621.0"/>
      <point x="132.9090909090909" y="685.9090909090909"/>
      <point x="208.54545454545456" y="685.9090909090909" type="curve" smooth="yes"/>
      <point x="276.6363636363636" y="685.9090909090909"/>
      <point x="301.7272727272727" y="627.1818181818181"/>
      <point x="301.7272727272727" y="548.6363636363636" type="curve" smooth="yes"/>
      <point x="301.7272727272727" y="457.54545454545456"/>
      <point x="270.54545454545456" y="388.72727272727275"/>
      <point x="190.0" y="268.6363636363636" type="curve" smooth="yes"/>
      <point x="42.0" y="46.54545454545455" type="line"/>
    </contour>
  </outline>
</glyph>
<glyph name="three" format="2">
  <advance width="434.27272727272725"/>
  <unicode hex="0033"/>
  <outline>
    <contour>
      <point x="199.81818181818184" y="-9.545454545454545" type="curve" smooth="yes"/>
      <point x="290.0909090909091" y="-9.545454545454545"/>
      <point x="386.4545454545455" y="43.0"/>
      <point x="386.4545454545455" y="193.27272727272725" type="curve" smooth="yes"/>
      <point x="386.4545454545455" y="326.6363636363636"/>
      <point x="313.45454545454544" y="369.8181818181818"/>
      <point x="247.8181818181818" y="377.0909090909091" type="curve"/>
      <point x="316.8181818181818" y="394.9090909090909"/>
      <point x="366.90909090909093" y="469.90909090909093"/>
      <point x="366.90909090909093" y="559.909090909091" type="curve" smooth="yes"/>
      <point x="366.90909090909093" y="665.0"/>
      <point x="308.0909090909091" y="724.0"/>
      <point x="217.9090909090909" y="724.0" type="curve" smooth="yes"/>
      <point x="121.63636363636364" y="724.0"/>
      <point x="67.45454545454545" y="665.8181818181818"/>
      <point x="67.45454545454545" y="591.9090909090909" type="curve" smooth="yes"/>
      <point x="67.45454545454545" y="554.2727272727273"/>
      <point x="90.45454545454545" y="541.5454545454545"/>
      <point x="115.72727272727272" y="541.5454545454545" type="curve"/>
      <point x="115.72727272727272" y="623.7272727272727"/>
      <point x="141.0" y="685.9090909090909"/>
      <point x="214.0909090909091" y="685.9090909090909" type="curve" smooth="yes"/>
      <point x="274.9090909090909" y="685.9090909090909"/>
      <point x="305.09090909090907" y="638.0909090909091"/>
      <point x="305.09090909090907" y="554.5454545454546" type="curve" smooth="yes"/>
      <point x="305.09090909090907" y="452.6363636363636"/>
      <point x="256.0909090909091" y="391.3636363636364"/>
      <point x="184.27272727272725" y="391.3636363636364" type="curve"/>
      <point x="154.8181818181818" y="391.3636363636364" type="line"/>
      <point x="154.8181818181818" y="354.3636363636364" type="line"/>
      <point x="184.63636363636363" y="354.3636363636364" type="line" smooth="yes"/>
      <point x="279.45454545454544" y="354.3636363636364"/>
      <point x="324.6363636363636" y="296.0"/>
      <point x="324.6363636363636" y="194.27272727272725" type="curve" smooth="yes"/>
      <point x="324.6363636363636" y="78.18181818181817"/>
      <point x="265.27272727272725" y="30.181818181818183"/>
      <point x="199.72727272727275" y="30.181818181818183" type="curve" smooth="yes"/>
      <point x="126.36363636363636" y="30.181818181818183"/>
      <point x="92.0" y="84.63636363636363"/>
      <point x="92.0" y="151.8181818181818" type="curve"/>
      <point x="67.72727272727272" y="151.8181818181818"/>
      <point x="52.45454545454545" y="131.0"/>
      <point x="52.45454545454545" y="100.18181818181819" type="curve" smooth="yes"/>
      <point x="52.45454545454545" y="41.45454545454545"/>
      <point x="99.54545454545455" y="-9.545454545454545"/>
    </contour>
  </outline>
</glyph>
<glyph name="four" format="2">
  <advance width="434.27272727272725"/>
  <unicode hex="0034"/>
  <outline>
    <contour>
      <point x="177.72727272727272" y="0.0" type="line"/>
      <point x="397.9090909090909" y="0.0" type="line"/>
      <point x="397.9090909090909" y="31.454545454545453" type="line"/>
      <point x="386.5454545454545" y="31.454545454545453" type="line" smooth="yes"/>
      <point x="341.8181818181818" y="31.454545454545453"/>
      <point x="322.8181818181818" y="40.45454545454545"/>
      <point x="322.8181818181818" y="107.54545454545453" type="curve" smooth="yes"/>
      <point x="322.8181818181818" y="202.0" type="line"/>
      <point x="422.6363636363636" y="202.0" type="line"/>
      <point x="422.6363636363636" y="243.36363636363637" type="line"/>
      <point x="322.8181818181818" y="243.36363636363637" type="line"/>
      <point x="322.8181818181818" y="714.0" type="line"/>
      <point x="262.7272727272727" y="714.0" type="line"/>
      <point x="14.818181818181818" y="231.45454545454544" type="line"/>
      <point x="14.818181818181818" y="202.0" type="line"/>
      <point x="264.27272727272725" y="202.0" type="line"/>
      <point x="264.27272727272725" y="107.54545454545453" type="line" smooth="yes"/>
      <point x="264.27272727272725" y="40.45454545454545"/>
      <point x="245.36363636363635" y="31.454545454545453"/>
      <point x="200.54545454545456" y="31.454545454545453" type="curve" smooth="yes"/>
      <point x="177.72727272727272" y="31.454545454545453" type="line"/>
    </contour>
    <contour>
      <point x="60.99999999999999" y="243.36363636363637" type="line"/>
      <point x="190.9090909090909" y="497.3636363636364" type="line" smooth="yes"/>
      <point x="212.36363636363637" y="539.9090909090909"/>
      <point x="257.72727272727275" y="631.7272727272726"/>
      <point x="267.90909090909093" y="658.7272727272727" type="curve"/>
      <point x="264.8181818181818" y="595.8181818181819"/>
      <point x="264.27272727272725" y="500.8181818181818"/>
      <point x="264.27272727272725" y="442.8181818181818" type="curve" smooth="yes"/>
      <point x="264.27272727272725" y="243.36363636363637" type="line"/>
    </contour>
  </outline>
</glyph>
<glyph name="five" format="2">
  <advance width="434.27272727272725"/>
  <unicode hex="0035"/>
  <outline>
    <contour>
      <point x="190.27272727272728" y="-10.0" type="curve" smooth="yes"/>
      <point x="298.8181818181818" y="-10.0"/>
      <point x="371.6363636363636" y="73.63636363636364"/>
      <point x="371.6363636363636" y="217.0909090909091" type="curve" smooth="yes"/>
      <point x="371.6363636363636" y="356.1818181818182"/>
      <point x="299.54545454545456" y="426.27272727272725"/>
      <point x="197.6363636363636" y="426.27272727272725" type="curve" smooth="yes"/>
      <point x="159.54545454545456" y="426.27272727272725"/>
      <point x="128.18181818181816" y="415.45454545454544"/>
      <point x="107.27272727272727" y="404.1818181818182" type="curve"/>
      <point x="125.63636363636363" y="657.8181818181818" type="line"/>
      <point x="270.54545454545456" y="657.8181818181818" type="line" smooth="yes"/>
      <point x="308.0" y="657.8181818181818"/>
      <point x="311.1818181818182" y="649.090909090909"/>
      <point x="317.0" y="604.1818181818182" type="curve" smooth="yes"/>
      <point x="320.1818181818182" y="581.3636363636364" type="line"/>
      <point x="350.54545454545456" y="581.3636363636364" type="line"/>
      <point x="347.54545454545456" y="712.5454545454545" type="line"/>
      <point x="95.54545454545453" y="712.5454545454545" type="line"/>
      <point x="69.45454545454545" y="357.3636363636364" type="line"/>
      <point x="85.72727272727272" y="350.0909090909091" type="line"/>
      <point x="103.0909090909091" y="366.1818181818182"/>
      <point x="138.45454545454544" y="387.0909090909091"/>
      <point x="186.63636363636363" y="387.0909090909091" type="curve" smooth="yes"/>
      <point x="262.4545454545455" y="387.0909090909091"/>
      <point x="309.2727272727273" y="328.45454545454544"/>
      <point x="309.2727272727273" y="217.0909090909091" type="curve" smooth="yes"/>
      <point x="309.2727272727273" y="80.9090909090909"/>
      <point x="259.54545454545456" y="29.181818181818183"/>
      <point x="187.0" y="29.181818181818183" type="curve" smooth="yes"/>
      <point x="115.72727272727275" y="29.181818181818183"/>
      <point x="83.90909090909092" y="82.27272727272728"/>
      <point x="83.90909090909092" y="141.8181818181818" type="curve"/>
      <point x="60.090909090909086" y="141.8181818181818"/>
      <point x="45.45454545454545" y="123.18181818181817"/>
      <point x="45.45454545454545" y="91.27272727272727" type="curve" smooth="yes"/>
      <point x="45.45454545454545" y="53.72727272727273"/>
      <point x="80.9090909090909" y="-10.0"/>
    </contour>
  </outline>
</glyph>
<glyph name="six" format="2">
  <advance width="434.27272727272725"/>
  <unicode hex="0036"/>
  <outline>
    <contour>
      <point x="227.45454545454547" y="-10.0" type="curve" smooth="yes"/>
      <point x="322.45454545454544" y="-10.0"/>
      <point x="390.4545454545455" y="66.18181818181819"/>
      <point x="390.4545454545455" y="223.0909090909091" type="curve" smooth="yes"/>
      <point x="390.4545454545455" y="355.09090909090907"/>
      <point x="332.90909090909093" y="431.1818181818182"/>
      <point x="238.54545454545453" y="431.1818181818182" type="curve" smooth="yes"/>
      <point x="175.8181818181818" y="431.1818181818182"/>
      <point x="134.8181818181818" y="395.0"/>
      <point x="112.18181818181819" y="367.6363636363636" type="curve"/>
      <point x="113.81818181818181" y="590.0"/>
      <point x="157.72727272727272" y="687.0"/>
      <point x="243.9090909090909" y="687.0" type="curve" smooth="yes"/>
      <point x="304.0909090909091" y="687.0"/>
      <point x="327.9090909090909" y="644.6363636363636"/>
      <point x="327.9090909090909" y="573.3636363636364" type="curve"/>
      <point x="355.9090909090909" y="573.3636363636364"/>
      <point x="373.0" y="586.0"/>
      <point x="373.0" y="621.7272727272727" type="curve" smooth="yes"/>
      <point x="373.0" y="677.090909090909"/>
      <point x="330.6363636363636" y="724.0"/>
      <point x="246.0" y="724.0" type="curve" smooth="yes"/>
      <point x="115.81818181818183" y="724.0"/>
      <point x="50.909090909090914" y="608.3636363636364"/>
      <point x="50.909090909090914" y="339.54545454545456" type="curve" smooth="yes"/>
      <point x="50.909090909090914" y="94.27272727272727"/>
      <point x="121.27272727272728" y="-10.0"/>
    </contour>
    <contour>
      <point x="229.0" y="28.636363636363637" type="curve" smooth="yes"/>
      <point x="156.63636363636365" y="28.636363636363637"/>
      <point x="113.63636363636364" y="122.54545454545455"/>
      <point x="111.63636363636365" y="322.45454545454544" type="curve"/>
      <point x="133.8181818181818" y="352.90909090909093"/>
      <point x="170.72727272727272" y="393.6363636363636"/>
      <point x="228.7272727272727" y="393.6363636363636" type="curve" smooth="yes"/>
      <point x="296.6363636363636" y="393.6363636363636"/>
      <point x="330.2727272727273" y="338.54545454545456"/>
      <point x="330.2727272727273" y="218.0909090909091" type="curve" smooth="yes"/>
      <point x="330.2727272727273" y="86.81818181818181"/>
      <point x="292.54545454545456" y="28.636363636363637"/>
    </contour>
  </outline>
</glyph>
<glyph name="seven" format="2">
  <advance width="434.27272727272725"/>
  <unicode hex="0037"/>
  <outline>
    <contour>
      <point x="140.9090909090909" y="0.0" type="line"/>
      <point x="186.54545454545456" y="0.0" type="line"/>
      <point x="391.6363636363636" y="687.8181818181819" type="line"/>
      <point x="391.6363636363636" y="712.5454545454545" type="line"/>
      <point x="48.27272727272727" y="712.5454545454545" type="line"/>
      <point x="43.72727272727273" y="550.0" type="line"/>
      <point x="75.72727272727273" y="550.0" type="line"/>
      <point x="79.27272727272727" y="602.9090909090909" type="line" smooth="yes"/>
      <point x="82.27272727272727" y="646.3636363636364"/>
      <point x="92.9090909090909" y="657.8181818181818"/>
      <point x="124.63636363636364" y="657.8181818181818" type="curve" smooth="yes"/>
      <point x="344.09090909090907" y="657.8181818181818" type="line"/>
    </contour>
  </outline>
</glyph>
<glyph name="eight" format="2">
  <advance width="434.27272727272725"/>
  <unicode hex="0038"/>
  <outline>
    <contour>
      <point x="214.36363636363637" y="-10.0" type="curve" smooth="yes"/>
      <point x="323.7272727272727" y="-10.0"/>
      <point x="394.4545454545455" y="56.81818181818182"/>
      <point x="394.4545454545455" y="175.27272727272728" type="curve" smooth="yes"/>
      <point x="394.4545454545455" y="282.0909090909091"/>
      <point x="345.7272727272727" y="331.8181818181818"/>
      <point x="266.0" y="378.0909090909091" type="curve"/>
      <point x="333.1818181818182" y="412.7272727272727"/>
      <point x="374.6363636363636" y="464.1818181818182"/>
      <point x="374.6363636363636" y="557.090909090909" type="curve" smooth="yes"/>
      <point x="374.6363636363636" y="654.5454545454546"/>
      <point x="321.1818181818182" y="724.0"/>
      <point x="221.27272727272725" y="724.0" type="curve" smooth="yes"/>
      <point x="111.90909090909092" y="724.0"/>
      <point x="60.63636363636364" y="648.2727272727273"/>
      <point x="60.63636363636364" y="549.8181818181818" type="curve" smooth="yes"/>
      <point x="60.63636363636364" y="463.54545454545456"/>
      <point x="106.36363636363637" y="409.3636363636364"/>
      <point x="171.36363636363637" y="371.54545454545456" type="curve"/>
      <point x="94.9090909090909" y="334.6363636363636"/>
      <point x="42.27272727272727" y="274.0909090909091"/>
      <point x="42.27272727272727" y="172.0909090909091" type="curve" smooth="yes"/>
      <point x="42.27272727272727" y="64.54545454545455"/>
      <point x="100.9090909090909" y="-10.0"/>
    </contour>
    <contour>
      <point x="215.45454545454544" y="28.09090909090909" type="curve" smooth="yes"/>
      <point x="139.45454545454544" y="28.09090909090909"/>
      <point x="99.72727272727272" y="83.54545454545455"/>
      <point x="99.72727272727272" y="173.27272727272728" type="curve" smooth="yes"/>
      <point x="99.72727272727272" y="251.9090909090909"/>
      <point x="129.90909090909093" y="313.3636363636363"/>
      <point x="202.45454545454547" y="351.0909090909091" type="curve"/>
      <point x="300.54545454545456" y="298.1818181818182"/>
      <point x="335.3636363636364" y="247.0"/>
      <point x="335.3636363636364" y="168.36363636363637" type="curve" smooth="yes"/>
      <point x="335.3636363636364" y="78.18181818181819"/>
      <point x="287.45454545454544" y="28.09090909090909"/>
    </contour>
    <contour>
      <point x="233.8181818181818" y="396.45454545454544" type="curve"/>
      <point x="160.0" y="436.5454545454545"/>
      <point x="119.18181818181817" y="477.3636363636364"/>
      <point x="119.18181818181817" y="559.0909090909091" type="curve" smooth="yes"/>
      <point x="119.18181818181817" y="634.4545454545455"/>
      <point x="156.0" y="685.9090909090909"/>
      <point x="220.1818181818182" y="685.9090909090909" type="curve" smooth="yes"/>
      <point x="290.7272727272727" y="685.9090909090909"/>
      <point x="319.90909090909093" y="622.0909090909091"/>
      <point x="319.90909090909093" y="556.0" type="curve" smooth="yes"/>
      <point x="319.90909090909093" y="478.6363636363636"/>
      <point x="299.6363636363636" y="434.8181818181818"/>
    </contour>
  </outline>
</glyph>
<glyph name="nine" format="2">
  <advance width="434.27272727272725"/>
  <unicode hex="0039"/>
  <outline>
    <contour>
      <point x="179.0909090909091" y="-11.909090909090908" type="curve"/>
      <point x="320.0" y="-11.909090909090908"/>
      <point x="383.4545454545455" y="123.90909090909092"/>
      <point x="383.4545454545455" y="388.0" type="curve"/>
      <point x="383.4545454545455" y="631.4545454545455"/>
      <point x="306.3636363636364" y="724.0"/>
      <point x="202.9090909090909" y="724.0" type="curve" smooth="yes"/>
      <point x="98.90909090909092" y="724.0"/>
      <point x="43.36363636363637" y="632.1818181818181"/>
      <point x="43.36363636363637" y="484.0" type="curve" smooth="yes"/>
      <point x="43.36363636363637" y="350.1818181818182"/>
      <point x="103.81818181818183" y="282.8181818181818"/>
      <point x="196.63636363636363" y="282.8181818181818" type="curve" smooth="yes"/>
      <point x="261.1818181818182" y="282.8181818181818"/>
      <point x="305.5454545454545" y="323.3636363636364"/>
      <point x="322.72727272727275" y="351.54545454545456" type="curve"/>
      <point x="317.27272727272725" y="129.63636363636363"/>
      <point x="276.6363636363636" y="28.90909090909091"/>
      <point x="183.36363636363637" y="28.90909090909091" type="curve" smooth="yes"/>
      <point x="127.72727272727272" y="28.90909090909091"/>
      <point x="101.36363636363637" y="65.45454545454545"/>
      <point x="88.27272727272727" y="102.36363636363636" type="curve"/>
      <point x="74.63636363636364" y="97.18181818181817"/>
      <point x="67.81818181818181" y="83.63636363636363"/>
      <point x="67.81818181818181" y="63.18181818181819" type="curve" smooth="yes"/>
      <point x="67.81818181818181" y="26.363636363636367"/>
      <point x="102.54545454545453" y="-11.909090909090908"/>
    </contour>
    <contour>
      <point x="209.54545454545456" y="320.90909090909093" type="curve" smooth="yes"/>
      <point x="135.72727272727272" y="322.54545454545456"/>
      <point x="104.0909090909091" y="375.8181818181818"/>
      <point x="104.0909090909091" y="488.0" type="curve" smooth="yes"/>
      <point x="104.0909090909091" y="612.4545454545455"/>
      <point x="135.36363636363635" y="685.3636363636364"/>
      <point x="205.0909090909091" y="685.3636363636364" type="curve" smooth="yes"/>
      <point x="278.4545454545455" y="685.3636363636364"/>
      <point x="322.18181818181813" y="597.5454545454545"/>
      <point x="323.8181818181818" y="398.0909090909091" type="curve"/>
      <point x="308.72727272727275" y="372.4545454545455"/>
      <point x="277.1818181818182" y="322.54545454545456"/>
    </contour>
  </outline>
</glyph>
<glyph name="colon" format="2">
  <advance width="204.54545454545453"/>
  <unicode hex="003A"/>
  <outline>
    <contour>
      <point x="102.72727272727275" y="418.54545454545456" type="curve" smooth="yes"/>
      <point x="123.81818181818183" y="418.54545454545456"/>
      <point x="143.27272727272728" y="430.27272727272725"/>
      <point x="143.27272727272728" y="469.54545454545456" type="curve" smooth="yes"/>
      <point x="143.27272727272728" y="508.8181818181818"/>
      <point x="123.81818181818183" y="520.5454545454545"/>
      <point x="102.72727272727275" y="520.5454545454545" type="curve" smooth="yes"/>
      <point x="79.18181818181819" y="520.5454545454545"/>
      <point x="61.27272727272727" y="508.8181818181818"/>
      <point x="61.27272727272727" y="469.54545454545456" type="curve" smooth="yes"/>
      <point x="61.27272727272727" y="430.27272727272725"/>
      <point x="79.18181818181819" y="418.54545454545456"/>
    </contour>
    <contour>
      <point x="102.72727272727275" y="-6.090909090909091" type="curve" smooth="yes"/>
      <point x="123.81818181818183" y="-6.090909090909091"/>
      <point x="143.27272727272728" y="6.1818181818181825"/>
      <point x="143.27272727272728" y="45.45454545454545" type="curve" smooth="yes"/>
      <point x="143.27272727272728" y="84.72727272727273"/>
      <point x="123.81818181818183" y="97.0"/>
      <point x="102.72727272727275" y="97.0" type="curve" smooth="yes"/>
      <point x="79.18181818181819" y="97.0"/>
      <point x="61.27272727272727" y="84.72727272727273"/>
      <point x="61.27272727272727" y="45.45454545454545" type="curve" smooth="yes"/>
      <point x="61.27272727272727" y="6.1818181818181825"/>
      <point x="79.18181818181819" y="-6.090909090909091"/>
    </contour>
  </outline>
</glyph>
<glyph name="semicolon" format="2">
  <advance width="204.54545454545453"/>
  <unicode hex="003B"/>
  <outline>
    <contour>
      <point x="36.72727272727273" y="-154.0" type="line"/>
      <point x="118.63636363636364" y="-122.9090909090909"/>
      <point x="149.45454545454544" y="-54.72727272727273"/>
      <point x="149.45454545454544" y="14.181818181818183" type="curve" smooth="yes"/>
      <point x="149.45454545454544" y="71.27272727272728"/>
      <point x="125.45454545454545" y="97.0"/>
      <point x="95.27272727272727" y="97.0" type="curve" smooth="yes"/>
      <point x="73.36363636363637" y="97.0"/>
      <point x="56.00000000000001" y="81.0909090909091"/>
      <point x="56.00000000000001" y="56.27272727272727" type="curve" smooth="yes"/>
      <point x="56.00000000000001" y="12.727272727272728"/>
      <point x="104.36363636363636" y="11.0"/>
      <point x="104.36363636363636" y="-26.0" type="curve" smooth="yes"/>
      <point x="104.36363636363636" y="-61.54545454545455"/>
      <point x="83.72727272727273" y="-102.9090909090909"/>
      <point x="36.72727272727273" y="-121.45454545454545" type="curve"/>
    </contour>
    <contour>
      <point x="102.72727272727275" y="418.54545454545456" type="curve" smooth="yes"/>
      <point x="124.81818181818183" y="418.54545454545456"/>
      <point x="143.27272727272728" y="430.27272727272725"/>
      <point x="143.27272727272728" y="469.54545454545456" type="curve" smooth="yes"/>
      <point x="143.27272727272728" y="508.8181818181818"/>
      <point x="124.81818181818183" y="520.5454545454545"/>
      <point x="102.72727272727275" y="520.5454545454545" type="curve" smooth="yes"/>
      <point x="79.18181818181819" y="520.5454545454545"/>
      <point x="61.27272727272727" y="508.8181818181818"/>
      <point x="61.27272727272727" y="469.54545454545456" type="curve" smooth="yes"/>
      <point x="61.27272727272727" y="430.27272727272725"/>
      <point x="79.18181818181819" y="418.54545454545456"/>
    </contour>
  </outline>
</glyph>
<glyph name="equal" format="2">
  <advance width="425.0"/>
  <unicode hex="003D"/>
  <outline>
    <contour>
      <point x="46.63636363636363" y="432.0909090909091" type="line"/>
      <point x="377.90909090909093" y="432.0909090909091" type="line"/>
      <point x="377.90909090909093" y="476.45454545454544" type="line"/>
      <point x="46.63636363636363" y="476.45454545454544" type="line"/>
    </contour>
    <contour>
      <point x="46.63636363636363" y="238.0" type="line"/>
      <point x="377.90909090909093" y="238.0" type="line"/>
      <point x="377.90909090909093" y="282.3636363636364" type="line"/>
      <point x="46.63636363636363" y="282.3636363636364" type="line"/>
    </contour>
  </outline>
</glyph>
<glyph name="greater" format="2">
  <advance width="425.0"/>
  <unicode hex="003E"/>
  <outline>
    <contour>
      <point x="46.18181818181818" y="113.72727272727273" type="line"/>
      <point x="378.8181818181818" y="341.8181818181818" type="line"/>
      <point x="378.8181818181818" y="373.1818181818182" type="line"/>
      <point x="46.18181818181818" y="602.2727272727273" type="line"/>
      <point x="46.18181818181818" y="550.4545454545455" type="line"/>
      <point x="322.72727272727275" y="357.0" type="line"/>
      <point x="46.18181818181818" y="166.0909090909091" type="line"/>
    </contour>
  </outline>
</glyph>
<glyph name="question" format="2">
  <advance width="384.72727272727275"/>
  <unicode hex="003F"/>
  <outline>
    <contour>
      <point x="159.81818181818184" y="201.27272727272728" type="line"/>
      <point x="188.0" y="201.27272727272728" type="line"/>
      <point x="197.0" y="323.0" type="line"/>
      <point x="291.5454545454545" y="371.1818181818182"/>
      <point x="338.1818181818182" y="436.9090909090909"/>
      <point x="338.1818181818182" y="549.2727272727273" type="curve" smooth="yes"/>
      <point x="338.1818181818182" y="661.8181818181818"/>
      <point x="276.1818181818182" y="724.0"/>
      <point x="180.63636363636363" y="724.0" type="curve" smooth="yes"/>
      <point x="82.72727272727273" y="724.0"/>
      <point x="35.81818181818182" y="669.0"/>
      <point x="35.81818181818182" y="612.9090909090909" type="curve" smooth="yes"/>
      <point x="35.81818181818182" y="576.2727272727273"/>
      <point x="57.18181818181818" y="562.5454545454545"/>
      <point x="86.27272727272728" y="562.5454545454545" type="curve"/>
      <point x="86.27272727272728" y="634.7272727272727"/>
      <point x="109.99999999999999" y="686.4545454545454"/>
      <point x="180.0909090909091" y="686.4545454545454" type="curve" smooth="yes"/>
      <point x="243.81818181818184" y="686.4545454545454"/>
      <point x="276.3636363636364" y="630.0"/>
      <point x="276.3636363636364" y="548.9090909090909" type="curve" smooth="yes"/>
      <point x="276.3636363636364" y="457.3636363636364"/>
      <point x="242.81818181818184" y="389.90909090909093"/>
      <point x="151.8181818181818" y="341.90909090909093" type="curve"/>
    </contour>
    <contour>
      <point x="174.0909090909091" y="-6.090909090909091" type="curve" smooth="yes"/>
      <point x="197.63636363636363" y="-6.090909090909091"/>
      <point x="217.0909090909091" y="6.1818181818181825"/>
      <point x="217.0909090909091" y="45.45454545454545" type="curve" smooth="yes"/>
      <point x="217.0909090909091" y="84.72727272727273"/>
      <point x="197.63636363636363" y="97.0"/>
      <point x="174.0909090909091" y="97.0" type="curve" smooth="yes"/>
      <point x="152.0" y="97.0"/>
      <point x="134.0909090909091" y="84.72727272727273"/>
      <point x="134.0909090909091" y="45.45454545454545" type="curve" smooth="yes"/>
      <point x="134.0909090909091" y="6.1818181818181825"/>
      <point x="152.0" y="-6.090909090909091"/>
    </contour>
  </outline>
</glyph>
<glyph name="bracketleft" format="2">
  <advance width="267.3636363636364"/>
  <unicode hex="005B"/>
  <outline>
    <contour>
      <point x="77.18181818181819" y="-128.0" type="line"/>
      <point x="238.3636363636364" y="-128.0" type="line"/>
      <point x="238.3636363636364" y="-96.54545454545455" type="line"/>
      <point x="199.36363636363637" y="-96.54545454545455" type="line" smooth="yes"/>
      <point x="157.54545454545456" y="-96.54545454545455"/>
      <point x="138.45454545454547" y="-86.63636363636364"/>
      <point x="138.45454545454547" y="-17.272727272727273" type="curve" smooth="yes"/>
      <point x="138.45454545454547" y="649.2727272727273" type="line" smooth="yes"/>
      <point x="138.45454545454547" y="718.6363636363636"/>
      <point x="157.54545454545456" y="728.5454545454545"/>
      <point x="199.36363636363637" y="728.5454545454545" type="curve" smooth="yes"/>
      <point x="238.3636363636364" y="728.5454545454545" type="line"/>
      <point x="238.3636363636364" y="760.0" type="line"/>
      <point x="77.18181818181819" y="760.0" type="line"/>
    </contour>
  </outline>
</glyph>
<glyph name="backslash" format="2">
  <advance width="223.9090909090909"/>
  <unicode hex="005C"/>
  <outline>
    <contour>
      <point x="184.0" y="-121.0" type="line"/>
      <point x="223.9090909090909" y="-121.0" type="line"/>
      <point x="39.909090909090914" y="760.0" type="line"/>
      <point x="0.0" y="760.0" type="line"/>
    </contour>
  </outline>
</glyph>
<glyph name="bracketright" format="2">
  <advance width="267.3636363636364"/>
  <unicode hex="005D"/>
  <outline>
    <contour>
      <point x="28.636363636363637" y="-128.0" type="line"/>
      <point x="189.27272727272728" y="-128.0" type="line"/>
      <point x="189.27272727272728" y="760.0" type="line"/>
      <point x="28.636363636363637" y="760.0" type="line"/>
      <point x="28.636363636363637" y="728.5454545454545" type="line"/>
      <point x="67.09090909090908" y="728.5454545454545" type="line" smooth="yes"/>
      <point x="109.45454545454545" y="728.5454545454545"/>
      <point x="128.0" y="718.6363636363636"/>
      <point x="128.0" y="649.2727272727273" type="curve" smooth="yes"/>
      <point x="128.0" y="-17.272727272727273" type="line" smooth="yes"/>
      <point x="128.0" y="-86.63636363636364"/>
      <point x="109.45454545454545" y="-96.54545454545455"/>
      <point x="67.09090909090908" y="-96.54545454545455" type="curve" smooth="yes"/>
      <point x="28.636363636363637" y="-96.54545454545455" type="line"/>
    </contour>
  </outline>
</glyph>
<glyph name="asciicircum" format="2">
  <advance width="425.0"/>
  <unicode hex="005E"/>
  <outline>
    <contour>
      <point x="34.54545454545455" y="268.8181818181818" type="line"/>
      <point x="79.0909090909091" y="268.8181818181818" type="line"/>
      <point x="211.0" y="642.6363636363636" type="line"/>
      <point x="344.3636363636364" y="268.8181818181818" type="line"/>
      <point x="389.45454545454544" y="268.8181818181818" type="line"/>
      <point x="224.63636363636363" y="714.0" type="line"/>
      <point x="197.9090909090909" y="714.0" type="line"/>
    </contour>
  </outline>
</glyph>
<glyph name="underscore" format="2">
  <advance width="355.1818181818182"/>
  <unicode hex="005F"/>
  <outline>
    <contour>
      <point x="-3.5454545454545454" y="-142.0" type="line"/>
      <point x="359.1818181818182" y="-142.0" type="line"/>
      <point x="359.1818181818182" y="-83.0" type="line"/>
      <point x="-3.5454545454545454" y="-83.0" type="line"/>
    </contour>
  </outline>
</glyph>
<glyph name="braceleft" format="2">
  <advance width="328.72727272727275"/>
  <unicode hex="007B"/>
  <outline>
    <contour>
      <point x="244.36363636363635" y="-129.8181818181818" type="curve" smooth="yes"/>
      <point x="285.54545454545456" y="-129.8181818181818" type="line"/>
      <point x="285.54545454545456" y="-95.54545454545455" type="line"/>
      <point x="264.6363636363637" y="-95.54545454545455" type="line" smooth="yes"/>
      <point x="217.27272727272728" y="-95.54545454545455"/>
      <point x="198.0" y="-58.54545454545455"/>
      <point x="198.0" y="16.272727272727273" type="curve" smooth="yes"/>
      <point x="198.0" y="190.1818181818182" type="line" smooth="yes"/>
      <point x="198.0" y="258.09090909090907"/>
      <point x="170.45454545454544" y="303.6363636363636"/>
      <point x="118.72727272727272" y="315.6363636363636" type="curve"/>
      <point x="118.72727272727272" y="317.54545454545456" type="line"/>
      <point x="172.27272727272728" y="329.9090909090909"/>
      <point x="198.0" y="374.09090909090907"/>
      <point x="198.0" y="441.90909090909093" type="curve" smooth="yes"/>
      <point x="198.0" y="612.9090909090909" type="line" smooth="yes"/>
      <point x="198.0" y="687.4545454545454"/>
      <point x="215.9090909090909" y="725.7272727272726"/>
      <point x="264.6363636363636" y="725.7272727272726" type="curve" smooth="yes"/>
      <point x="285.54545454545456" y="725.7272727272726" type="line"/>
      <point x="285.54545454545456" y="760.0" type="line"/>
      <point x="243.45454545454544" y="760.0" type="line" smooth="yes"/>
      <point x="172.72727272727272" y="760.0"/>
      <point x="136.1818181818182" y="708.9090909090909"/>
      <point x="136.1818181818182" y="618.8181818181819" type="curve" smooth="yes"/>
      <point x="136.1818181818182" y="443.90909090909093" type="line" smooth="yes"/>
      <point x="136.1818181818182" y="359.27272727272725"/>
      <point x="95.27272727272727" y="333.54545454545456"/>
      <point x="43.18181818181819" y="331.54545454545456" type="curve"/>
      <point x="43.18181818181819" y="300.6363636363636" type="line"/>
      <point x="103.45454545454545" y="297.1818181818182"/>
      <point x="136.1818181818182" y="265.6363636363637"/>
      <point x="136.1818181818182" y="187.1818181818182" type="curve" smooth="yes"/>
      <point x="136.1818181818182" y="12.363636363636363" type="line" smooth="yes"/>
      <point x="136.1818181818182" y="-74.81818181818183"/>
      <point x="172.72727272727272" y="-129.8181818181818"/>
    </contour>
  </outline>
</glyph>
<glyph name="bar" format="2">
  <advance width="433.3636363636364"/>
  <unicode hex="007C"/>
  <outline>
    <contour>
      <point x="196.36363636363635" y="-240.0" type="line"/>
      <point x="236.90909090909093" y="-240.0" type="line"/>
      <point x="236.90909090909093" y="760.0" type="line"/>
      <point x="196.36363636363635" y="760.0" type="line"/>
    </contour>
  </outline>
</glyph>
<glyph name="braceright" format="2">
  <advance width="328.72727272727275"/>
  <unicode hex="007D"/>
  <outline>
    <contour>
      <point x="43.18181818181819" y="-129.8181818181818" type="line"/>
      <point x="84.9090909090909" y="-129.8181818181818" type="line" smooth="yes"/>
      <point x="156.54545454545456" y="-129.8181818181818"/>
      <point x="192.54545454545453" y="-74.81818181818183"/>
      <point x="192.54545454545453" y="12.363636363636363" type="curve" smooth="yes"/>
      <point x="192.54545454545453" y="187.1818181818182" type="line" smooth="yes"/>
      <point x="192.54545454545453" y="265.6363636363637"/>
      <point x="226.36363636363637" y="297.1818181818182"/>
      <point x="285.54545454545456" y="300.6363636363636" type="curve"/>
      <point x="285.54545454545456" y="331.54545454545456" type="line"/>
      <point x="234.54545454545453" y="333.54545454545456"/>
      <point x="192.54545454545453" y="359.27272727272725"/>
      <point x="192.54545454545453" y="443.90909090909093" type="curve" smooth="yes"/>
      <point x="192.54545454545453" y="618.8181818181819" type="line" smooth="yes"/>
      <point x="192.54545454545453" y="708.9090909090909"/>
      <point x="156.54545454545456" y="760.0"/>
      <point x="85.81818181818181" y="760.0" type="curve" smooth="yes"/>
      <point x="43.18181818181819" y="760.0" type="line"/>
      <point x="43.18181818181819" y="725.7272727272726" type="line"/>
      <point x="64.63636363636364" y="725.7272727272726" type="line" smooth="yes"/>
      <point x="113.9090909090909" y="725.7272727272726"/>
      <point x="130.72727272727272" y="687.4545454545454"/>
      <point x="130.72727272727272" y="612.9090909090909" type="curve" smooth="yes"/>
      <point x="130.72727272727272" y="441.90909090909093" type="line" smooth="yes"/>
      <point x="130.72727272727272" y="374.09090909090907"/>
      <point x="157.0" y="329.9090909090909"/>
      <point x="211.09090909090907" y="317.54545454545456" type="curve"/>
      <point x="211.09090909090907" y="315.6363636363636" type="line"/>
      <point x="157.72727272727272" y="303.6363636363636"/>
      <point x="130.72727272727272" y="258.09090909090907"/>
      <point x="130.72727272727272" y="190.1818181818182" type="curve" smooth="yes"/>
      <point x="130.72727272727272" y="16.272727272727273" type="line" smooth="yes"/>
      <point x="130.72727272727272" y="-58.54545454545455"/>
      <point x="112.54545454545455" y="-95.54545454545455"/>
      <point x="64.63636363636363" y="-95.54545454545455" type="curve" smooth="yes"/>
      <point x="43.18181818181819" y="-95.54545454545455" type="line"/>
    </contour>
  </outline>
</glyph>
<glyph name="asciitilde" format="2">
  <advance width="425.0"/>
  <unicode hex="007E"/>
  <outline>
    <contour>
      <point x="37.72727272727273" y="273.1818181818182" type="curve"/>
      <point x="79.36363636363636" y="273.1818181818182" type="line"/>
      <point x="87.72727272727272" y="352.3636363636363"/>
      <point x="99.36363636363636" y="398.09090909090907"/>
      <point x="134.0" y="398.09090909090907" type="curve" smooth="yes"/>
      <point x="155.0" y="398.09090909090907"/>
      <point x="169.0909090909091" y="380.9090909090909"/>
      <point x="200.8181818181818" y="339.54545454545456" type="curve" smooth="yes"/>
      <point x="241.45454545454547" y="287.09090909090907"/>
      <point x="263.54545454545456" y="273.6363636363636"/>
      <point x="294.9090909090909" y="273.6363636363636" type="curve" smooth="yes"/>
      <point x="364.0909090909091" y="273.6363636363636"/>
      <point x="382.0" y="364.72727272727275"/>
      <point x="388.9090909090909" y="439.90909090909093" type="curve"/>
      <point x="346.7272727272727" y="439.90909090909093" type="line"/>
      <point x="338.9090909090909" y="360.72727272727275"/>
      <point x="327.3636363636364" y="315.90909090909093"/>
      <point x="293.2727272727273" y="315.90909090909093" type="curve" smooth="yes"/>
      <point x="271.7272727272727" y="315.90909090909093"/>
      <point x="257.72727272727275" y="332.72727272727275"/>
      <point x="226.45454545454547" y="373.0" type="curve" smooth="yes"/>
      <point x="191.81818181818184" y="417.1818181818182"/>
      <point x="168.0909090909091" y="440.3636363636364"/>
      <point x="132.36363636363635" y="440.3636363636364" type="curve" smooth="yes"/>
      <point x="61.00000000000001" y="440.3636363636364"/>
      <point x="44.63636363636364" y="349.4545454545455"/>
    </contour>
  </outline>
</glyph>
<glyph name="twosuperior" format="2">
  <advance width="310.09090909090907"/>
  <unicode hex="00B2"/>
  <outline>
    <contour>
      <point x="32.63636363636363" y="386.54545454545456" type="line"/>
      <point x="262.72727272727275" y="386.54545454545456" type="line"/>
      <point x="264.27272727272725" y="496.09090909090907" type="line"/>
      <point x="243.1818181818182" y="496.09090909090907" type="line"/>
      <point x="240.54545454545456" y="476.0" type="line"/>
      <point x="237.90909090909093" y="446.6363636363636"/>
      <point x="231.9090909090909" y="430.9090909090909"/>
      <point x="208.36363636363637" y="430.9090909090909" type="curve"/>
      <point x="81.72727272727272" y="430.9090909090909" type="line"/>
      <point x="159.63636363636365" y="534.8181818181819" type="line"/>
      <point x="216.54545454545453" y="598.3636363636364"/>
      <point x="252.45454545454547" y="642.3636363636364"/>
      <point x="252.45454545454547" y="711.8181818181818" type="curve" smooth="yes"/>
      <point x="252.45454545454547" y="785.1818181818182"/>
      <point x="212.0" y="823.5454545454545"/>
      <point x="146.0" y="823.5454545454545" type="curve" smooth="yes"/>
      <point x="79.81818181818181" y="823.5454545454545"/>
      <point x="41.0" y="784.0909090909091"/>
      <point x="41.0" y="740.3636363636364" type="curve" smooth="yes"/>
      <point x="41.0" y="716.0909090909091"/>
      <point x="56.18181818181818" y="704.0"/>
      <point x="81.72727272727272" y="704.0" type="curve"/>
      <point x="81.72727272727272" y="761.2727272727273"/>
      <point x="100.54545454545455" y="793.6363636363637"/>
      <point x="142.72727272727272" y="793.6363636363637" type="curve" smooth="yes"/>
      <point x="183.27272727272728" y="793.6363636363637"/>
      <point x="202.63636363636365" y="762.6363636363637"/>
      <point x="202.63636363636365" y="711.3636363636364" type="curve" smooth="yes"/>
      <point x="202.63636363636365" y="647.6363636363636"/>
      <point x="171.9090909090909" y="600.2727272727273"/>
      <point x="131.9090909090909" y="548.0" type="curve" smooth="yes"/>
      <point x="32.63636363636363" y="416.45454545454544" type="line"/>
    </contour>
  </outline>
</glyph>
<glyph name="threesuperior" format="2">
  <advance width="310.09090909090907"/>
  <unicode hex="00B3"/>
  <outline>
    <contour>
      <point x="140.1818181818182" y="379.09090909090907" type="curve" smooth="yes"/>
      <point x="215.09090909090907" y="379.09090909090907"/>
      <point x="268.72727272727275" y="419.0"/>
      <point x="268.72727272727275" y="506.18181818181813" type="curve" smooth="yes"/>
      <point x="268.72727272727275" y="581.0"/>
      <point x="220.72727272727272" y="603.0909090909091"/>
      <point x="179.45454545454547" y="611.0909090909091" type="curve"/>
      <point x="179.45454545454547" y="613.1818181818181" type="line"/>
      <point x="219.18181818181816" y="625.9090909090909"/>
      <point x="255.72727272727275" y="662.6363636363636"/>
      <point x="255.72727272727275" y="723.0" type="curve" smooth="yes"/>
      <point x="255.72727272727275" y="786.3636363636364"/>
      <point x="217.09090909090912" y="822.0909090909091"/>
      <point x="145.0" y="822.0909090909091" type="curve" smooth="yes"/>
      <point x="76.9090909090909" y="822.0909090909091"/>
      <point x="37.18181818181818" y="782.3636363636364"/>
      <point x="37.18181818181818" y="738.9090909090909" type="curve" smooth="yes"/>
      <point x="37.18181818181818" y="709.8181818181819"/>
      <point x="53.0" y="698.3636363636364"/>
      <point x="75.36363636363637" y="698.3636363636364" type="curve"/>
      <point x="75.36363636363637" y="752.1818181818181"/>
      <point x="87.72727272727272" y="792.1818181818182"/>
      <point x="142.0909090909091" y="792.1818181818182" type="curve" smooth="yes"/>
      <point x="183.63636363636363" y="792.1818181818182"/>
      <point x="205.36363636363637" y="769.1818181818181"/>
      <point x="205.36363636363637" y="718.0" type="curve" smooth="yes"/>
      <point x="205.36363636363637" y="663.5454545454545"/>
      <point x="174.27272727272728" y="624.8181818181818"/>
      <point x="125.00000000000001" y="624.8181818181818" type="curve" smooth="yes"/>
      <point x="96.9090909090909" y="624.8181818181818" type="line"/>
      <point x="96.9090909090909" y="593.8181818181819" type="line"/>
      <point x="122.09090909090908" y="593.8181818181819" type="line" smooth="yes"/>
      <point x="186.1818181818182" y="593.8181818181819"/>
      <point x="217.27272727272728" y="562.3636363636364"/>
      <point x="217.27272727272728" y="506.27272727272725" type="curve" smooth="yes"/>
      <point x="217.27272727272728" y="438.0"/>
      <point x="183.54545454545456" y="411.1818181818182"/>
      <point x="138.9090909090909" y="411.1818181818182" type="curve" smooth="yes"/>
      <point x="79.9090909090909" y="411.1818181818182"/>
      <point x="64.45454545454545" y="453.8181818181818"/>
      <point x="64.45454545454545" y="502.54545454545456" type="curve"/>
      <point x="43.81818181818182" y="502.54545454545456"/>
      <point x="29.545454545454543" y="490.3636363636364"/>
      <point x="29.545454545454543" y="460.6363636363636" type="curve" smooth="yes"/>
      <point x="29.545454545454543" y="417.5454545454545"/>
      <point x="65.18181818181819" y="379.09090909090907"/>
    </contour>
  </outline>
</glyph>
<glyph name="multiply" format="2">
  <advance width="425.0"/>
  <unicode hex="00D7"/>
  <outline>
    <contour>
      <point x="82.45454545454545" y="150.54545454545453" type="line"/>
      <point x="216.8181818181818" y="325.8181818181818" type="line"/>
      <point x="351.1818181818182" y="150.54545454545453" type="line"/>
      <point x="385.0909090909091" y="177.81818181818184" type="line"/>
      <point x="244.63636363636363" y="360.2727272727273" type="line"/>
      <point x="385.0909090909091" y="543.090909090909" type="line"/>
      <point x="351.6363636363636" y="569.9090909090909" type="line"/>
      <point x="216.8181818181818" y="395.72727272727275" type="line"/>
      <point x="82.54545454545453" y="570.4545454545455" type="line"/>
      <point x="48.54545454545454" y="543.6363636363636" type="line"/>
      <point x="189.54545454545456" y="360.27272727272725" type="line"/>
      <point x="48.545454545454554" y="177.27272727272728" type="line"/>
    </contour>
  </outline>
</glyph>
<glyph name="divide" format="2">
  <advance width="425.0"/>
  <unicode hex="00F7"/>
  <outline>
    <contour>
      <point x="46.18181818181818" y="335.8181818181818" type="line"/>
      <point x="378.8181818181818" y="335.8181818181818" type="line"/>
      <point x="378.8181818181818" y="379.6363636363637" type="line"/>
      <point x="46.18181818181818" y="379.6363636363637" type="line"/>
    </contour>
    <contour>
      <point x="213.0" y="122.18181818181819" type="curve" smooth="yes"/>
      <point x="233.81818181818178" y="122.18181818181819"/>
      <point x="249.63636363636363" y="133.45454545454544"/>
      <point x="249.63636363636363" y="168.0" type="curve" smooth="yes"/>
      <point x="249.63636363636363" y="204.0"/>
      <point x="233.81818181818178" y="214.72727272727272"/>
      <point x="213.0" y="214.72727272727272" type="curve" smooth="yes"/>
      <point x="191.1818181818182" y="214.72727272727272"/>
      <point x="176.27272727272725" y="204.0"/>
      <point x="176.27272727272725" y="168.0" type="curve" smooth="yes"/>
      <point x="176.27272727272725" y="133.45454545454544"/>
      <point x="191.1818181818182" y="122.18181818181819"/>
    </contour>
    <contour>
      <point x="213.0" y="502.09090909090907" type="curve" smooth="yes"/>
      <point x="233.81818181818178" y="502.09090909090907"/>
      <point x="249.63636363636363" y="513.3636363636364"/>
      <point x="249.63636363636363" y="547.909090909091" type="curve" smooth="yes"/>
      <point x="249.63636363636363" y="583.9090909090909"/>
      <point x="233.81818181818178" y="594.6363636363636"/>
      <point x="213.0" y="594.6363636363636" type="curve" smooth="yes"/>
      <point x="191.1818181818182" y="594.6363636363636"/>
      <point x="176.27272727272725" y="583.9090909090909"/>
      <point x="176.27272727272725" y="547.909090909091" type="curve" smooth="yes"/>
      <point x="176.27272727272725" y="513.3636363636364"/>
      <point x="191.1818181818182" y="502.09090909090907"/>
    </contour>
  </outline>
</glyph>
<glyph name="udatta-deva" format="2">
  <unicode hex="0951"/>
  <anchor x="0.0" y="548.5454545454545" name="_vedic"/>
  <outline>
    <contour>
      <point x="-19.545454545454547" y="910.1818181818182" type="line"/>
      <point x="19.545454545454547" y="910.1818181818182" type="line"/>
      <point x="19.545454545454547" y="1100.1818181818182" type="line"/>
      <point x="-19.545454545454547" y="1100.1818181818182" type="line"/>
    </contour>
  </outline>
</glyph>
<glyph name="anudatta-deva" format="2">
  <unicode hex="0952"/>
  <anchor x="0.0" y="0.0" name="_bottom"/>
  <outline>
    <contour>
      <point x="-193.27272727272725" y="-484.3636363636363" type="line"/>
      <point x="193.27272727272725" y="-484.3636363636363" type="line"/>
      <point x="193.27272727272725" y="-436.90909090909093" type="line"/>
      <point x="-193.27272727272725" y="-436.90909090909093" type="line"/>
    </contour>
  </outline>
</glyph>
<glyph name="danda-deva" format="2">
  <advance width="246.0"/>
  <unicode hex="0964"/>
  <outline>
    <contour>
      <point x="91.63636363636364" y="0.0" type="line"/>
      <point x="153.9090909090909" y="0.0" type="line"/>
      <point x="153.9090909090909" y="548.5454545454545" type="line"/>
      <point x="91.63636363636364" y="548.5454545454545" type="line"/>
    </contour>
  </outline>
</glyph>
<glyph name="dbldanda-deva" format="2">
  <advance width="443.54545454545456"/>
  <unicode hex="0965"/>
  <outline>
    <contour>
      <point x="289.6363636363637" y="0.0" type="line"/>
      <point x="351.4545454545455" y="0.0" type="line"/>
      <point x="351.4545454545455" y="548.5454545454545" type="line"/>
      <point x="289.6363636363637" y="548.5454545454545" type="line"/>
    </contour>
    <contour>
      <point x="91.63636363636364" y="0.0" type="line"/>
      <point x="153.9090909090909" y="0.0" type="line"/>
      <point x="153.9090909090909" y="548.5454545454545" type="line"/>
      <point x="91.63636363636364" y="548.5454545454545" type="line"/>
    </contour>
  </outline>
</glyph>
<glyph name="anusvara-tamil" format="2">
  <unicode hex="0B82"/>
  <note>
uni0B82
</note>
  <anchor x="0.0" y="548.5454545454545" name="_top"/>
  <outline>
    <contour>
      <point x="0.0" y="640.7272727272727" type="curve" smooth="yes"/>
      <point x="56.36363636363637" y="640.7272727272727"/>
      <point x="96.27272727272728" y="679.8181818181819"/>
      <point x="96.27272727272728" y="735.8181818181819" type="curve" smooth="yes"/>
      <point x="96.27272727272728" y="791.2727272727273"/>
      <point x="56.36363636363637" y="831.3636363636364"/>
      <point x="0.0" y="831.3636363636364" type="curve" smooth="yes"/>
      <point x="-56.36363636363637" y="831.3636363636364"/>
      <point x="-96.27272727272728" y="791.2727272727273"/>
      <point x="-96.27272727272728" y="735.8181818181819" type="curve" smooth="yes"/>
      <point x="-96.27272727272728" y="679.8181818181819"/>
      <point x="-56.36363636363637" y="640.7272727272727"/>
    </contour>
    <contour>
      <point x="0.0" y="681.5454545454546" type="curve" smooth="yes"/>
      <point x="-31.090909090909093" y="681.5454545454546"/>
      <point x="-52.272727272727266" y="704.1818181818182"/>
      <point x="-52.272727272727266" y="735.8181818181819" type="curve" smooth="yes"/>
      <point x="-52.272727272727266" y="767.4545454545454"/>
      <point x="-31.090909090909093" y="790.5454545454546"/>
      <point x="0.0" y="790.5454545454546" type="curve" smooth="yes"/>
      <point x="31.090909090909093" y="790.5454545454546"/>
      <point x="52.272727272727266" y="767.4545454545454"/>
      <point x="52.272727272727266" y="735.8181818181819" type="curve" smooth="yes"/>
      <point x="52.272727272727266" y="704.1818181818182"/>
      <point x="31.090909090909093" y="681.5454545454546"/>
    </contour>
  </outline>
</glyph>
<glyph name="visarga-tamil" format="2">
  <advance width="664.6363636363636"/>
  <unicode hex="0B83"/>
  <note>
uni0B83
</note>
  <outline>
    <contour>
      <point x="487.3636363636364" y="0.0" type="curve" smooth="yes"/>
      <point x="562.7272727272726" y="0.0"/>
      <point x="609.7272727272727" y="75.9090909090909"/>
      <point x="609.7272727272727" y="183.1818181818182" type="curve" smooth="yes"/>
      <point x="609.7272727272727" y="289.0"/>
      <point x="565.5454545454546" y="365.8181818181818"/>
      <point x="488.3636363636364" y="365.8181818181818" type="curve" smooth="yes"/>
      <point x="409.90909090909093" y="365.8181818181818"/>
      <point x="370.6363636363636" y="286.27272727272725"/>
      <point x="370.6363636363636" y="183.1818181818182" type="curve" smooth="yes"/>
      <point x="370.6363636363636" y="77.72727272727273"/>
      <point x="409.36363636363643" y="0.0"/>
    </contour>
    <contour>
      <point x="170.63636363636363" y="0.0" type="curve" smooth="yes"/>
      <point x="246.45454545454547" y="0.0"/>
      <point x="293.0" y="75.9090909090909"/>
      <point x="293.0" y="183.1818181818182" type="curve" smooth="yes"/>
      <point x="293.0" y="289.0"/>
      <point x="248.81818181818184" y="365.8181818181818"/>
      <point x="172.0909090909091" y="365.8181818181818" type="curve" smooth="yes"/>
      <point x="93.72727272727273" y="365.8181818181818"/>
      <point x="54.909090909090914" y="286.27272727272725"/>
      <point x="54.909090909090914" y="183.1818181818182" type="curve" smooth="yes"/>
      <point x="54.909090909090914" y="77.72727272727273"/>
      <point x="93.18181818181819" y="0.0"/>
    </contour>
    <contour>
      <point x="330.54545454545456" y="408.3636363636364" type="curve" smooth="yes"/>
      <point x="406.3636363636364" y="408.3636363636364"/>
      <point x="452.90909090909093" y="483.27272727272725"/>
      <point x="452.90909090909093" y="591.0" type="curve" smooth="yes"/>
      <point x="452.90909090909093" y="697.3636363636364"/>
      <point x="408.7272727272727" y="773.6363636363636"/>
      <point x="331.54545454545456" y="773.6363636363636" type="curve" smooth="yes"/>
      <point x="253.63636363636363" y="773.6363636363636"/>
      <point x="214.36363636363635" y="694.6363636363636"/>
      <point x="214.36363636363635" y="591.0" type="curve" smooth="yes"/>
      <point x="214.36363636363635" y="485.54545454545456"/>
      <point x="253.09090909090907" y="408.3636363636364"/>
    </contour>
    <contour>
      <point x="164.9090909090909" y="40.72727272727273" type="curve" smooth="yes"/>
      <point x="113.72727272727272" y="40.72727272727273"/>
      <point x="91.9090909090909" y="100.9090909090909"/>
      <point x="91.9090909090909" y="183.1818181818182" type="curve" smooth="yes"/>
      <point x="91.9090909090909" y="263.45454545454544"/>
      <point x="114.18181818181817" y="325.0"/>
      <point x="165.81818181818184" y="325.0" type="curve" smooth="yes"/>
      <point x="219.54545454545453" y="325.0"/>
      <point x="243.63636363636365" y="269.1818181818182"/>
      <point x="243.63636363636365" y="183.1818181818182" type="curve" smooth="yes"/>
      <point x="243.63636363636365" y="94.81818181818183"/>
      <point x="217.72727272727272" y="40.72727272727273"/>
    </contour>
    <contour>
      <point x="324.8181818181818" y="449.0909090909091" type="curve" smooth="yes"/>
      <point x="273.6363636363636" y="449.0909090909091"/>
      <point x="251.8181818181818" y="509.27272727272725"/>
      <point x="251.8181818181818" y="591.0" type="curve" smooth="yes"/>
      <point x="251.8181818181818" y="671.8181818181819"/>
      <point x="274.09090909090907" y="733.3636363636364"/>
      <point x="325.7272727272727" y="733.3636363636364" type="curve" smooth="yes"/>
      <point x="379.45454545454544" y="733.3636363636364"/>
      <point x="403.54545454545456" y="677.0"/>
      <point x="403.54545454545456" y="591.0" type="curve" smooth="yes"/>
      <point x="403.54545454545456" y="503.1818181818182"/>
      <point x="377.6363636363637" y="449.0909090909091"/>
    </contour>
    <contour>
      <point x="481.6363636363637" y="40.72727272727273" type="curve" smooth="yes"/>
      <point x="430.45454545454544" y="40.72727272727273"/>
      <point x="408.0909090909091" y="100.9090909090909"/>
      <point x="408.0909090909091" y="183.1818181818182" type="curve" smooth="yes"/>
      <point x="408.0909090909091" y="263.45454545454544"/>
      <point x="430.90909090909093" y="325.0"/>
      <point x="482.54545454545456" y="325.0" type="curve" smooth="yes"/>
      <point x="536.2727272727273" y="325.0"/>
      <point x="560.3636363636364" y="269.1818181818182"/>
      <point x="560.3636363636364" y="183.1818181818182" type="curve" smooth="yes"/>
      <point x="560.3636363636364" y="94.81818181818183"/>
      <point x="534.4545454545455" y="40.72727272727273"/>
    </contour>
  </outline>
</glyph>
<glyph name="a-tamil" format="2">
  <advance width="958.5454545454546"/>
  <unicode hex="0B85"/>
  <note>
uni0B85
</note>
  <anchor x="464.8181818181818" y="0.0" name="bottom"/>
  <anchor x="329.3636363636364" y="-100.63636363636364" name="nukta"/>
  <anchor x="472.5454545454545" y="548.5454545454545" name="top"/>
  <anchor x="474.09090909090907" y="548.5454545454545" name="vedic"/>
  <outline>
    <contour>
      <point x="812.090909090909" y="-162.1818181818182" type="line"/>
      <point x="874.3636363636363" y="-162.1818181818182" type="line"/>
      <point x="874.3636363636363" y="548.5454545454545" type="line"/>
      <point x="812.090909090909" y="548.5454545454545" type="line"/>
      <point x="812.090909090909" y="167.8181818181818" type="line"/>
      <point x="92.72727272727272" y="167.8181818181818" type="line" smooth="yes"/>
      <point x="54.18181818181818" y="167.8181818181818"/>
      <point x="34.0" y="143.9090909090909"/>
      <point x="34.0" y="103.09090909090908" type="curve" smooth="yes"/>
      <point x="34.0" y="17.636363636363633"/>
      <point x="141.72727272727272" y="-100.63636363636364"/>
      <point x="329.3636363636364" y="-100.63636363636364" type="curve" smooth="yes"/>
      <point x="538.0909090909091" y="-100.63636363636364"/>
      <point x="692.0" y="21.545454545454547"/>
      <point x="692.0" y="260.9090909090909" type="curve" smooth="yes"/>
      <point x="692.0" y="443.8181818181818"/>
      <point x="596.8181818181818" y="555.3636363636364"/>
      <point x="462.27272727272725" y="555.3636363636364" type="curve" smooth="yes"/>
      <point x="355.7272727272727" y="555.3636363636364"/>
      <point x="297.6363636363636" y="481.90909090909093"/>
      <point x="297.6363636363636" y="389.09090909090907" type="curve" smooth="yes"/>
      <point x="297.6363636363636" y="310.6363636363636"/>
      <point x="338.8181818181818" y="255.63636363636363"/>
      <point x="403.81818181818187" y="255.63636363636363" type="curve" smooth="yes"/>
      <point x="468.0" y="255.63636363636363"/>
      <point x="511.54545454545456" y="302.3636363636364"/>
      <point x="511.54545454545456" y="383.3636363636364" type="curve" smooth="yes"/>
      <point x="511.54545454545456" y="453.8181818181818"/>
      <point x="469.8181818181818" y="510.27272727272725"/>
      <point x="421.2727272727272" y="526.7272727272727" type="curve"/>
      <point x="388.0909090909091" y="522.3636363636364" type="line"/>
      <point x="430.00000000000006" y="496.8181818181818"/>
      <point x="458.45454545454544" y="442.6363636363636"/>
      <point x="458.45454545454544" y="388.27272727272725" type="curve" smooth="yes"/>
      <point x="458.45454545454544" y="332.90909090909093"/>
      <point x="435.2727272727272" y="296.45454545454544"/>
      <point x="395.18181818181813" y="296.45454545454544" type="curve" smooth="yes"/>
      <point x="361.54545454545456" y="296.45454545454544"/>
      <point x="335.54545454545456" y="328.45454545454544"/>
      <point x="335.54545454545456" y="386.54545454545456" type="curve" smooth="yes"/>
      <point x="335.54545454545456" y="459.6363636363636"/>
      <point x="375.45454545454544" y="515.0"/>
      <point x="454.4545454545454" y="515.0" type="curve" smooth="yes"/>
      <point x="549.7272727272727" y="515.0"/>
      <point x="630.2727272727273" y="419.8181818181818"/>
      <point x="630.2727272727273" y="261.3636363636364" type="curve" smooth="yes"/>
      <point x="630.2727272727273" y="50.18181818181819"/>
      <point x="491.27272727272725" y="-59.36363636363636"/>
      <point x="325.6363636363636" y="-59.36363636363636" type="curve" smooth="yes"/>
      <point x="169.63636363636363" y="-59.36363636363636"/>
      <point x="76.27272727272727" y="35.36363636363637"/>
      <point x="76.27272727272727" y="101.45454545454545" type="curve" smooth="yes"/>
      <point x="76.27272727272727" y="116.54545454545455"/>
      <point x="83.18181818181819" y="127.9090909090909"/>
      <point x="101.72727272727272" y="127.9090909090909" type="curve" smooth="yes"/>
      <point x="812.090909090909" y="127.9090909090909" type="line"/>
    </contour>
  </outline>
</glyph>
<glyph name="aa-tamil" format="2">
  <advance width="1059.9090909090908"/>
  <unicode hex="0B86"/>
  <note>
uni0B86
</note>
  <anchor x="516.5454545454546" y="0.0" name="bottom"/>
  <anchor x="329.3636363636364" y="-100.63636363636364" name="nukta"/>
  <anchor x="524.2727272727273" y="548.5454545454545" name="top"/>
  <anchor x="524.8181818181818" y="548.5454545454545" name="vedic"/>
  <outline>
    <contour>
      <point x="731.3636363636364" y="-393.54545454545456" type="curve" smooth="yes"/>
      <point x="875.0909090909091" y="-393.54545454545456"/>
      <point x="1041.5454545454547" y="-285.8181818181818"/>
      <point x="1041.5454545454547" y="-99.54545454545453" type="curve" smooth="yes"/>
      <point x="1041.5454545454547" y="-17.36363636363636"/>
      <point x="1006.090909090909" y="25.0"/>
      <point x="952.3636363636363" y="25.0" type="curve" smooth="yes"/>
      <point x="893.0" y="25.0"/>
      <point x="862.0" y="-27.727272727272727"/>
      <point x="856.0909090909091" y="-106.81818181818181" type="curve"/>
      <point x="871.8181818181818" y="-115.72727272727273" type="line"/>
      <point x="872.1818181818182" y="-60.18181818181818"/>
      <point x="897.2727272727273" y="-28.727272727272727"/>
      <point x="928.4545454545454" y="-28.727272727272727" type="curve" smooth="yes"/>
      <point x="960.4545454545455" y="-28.727272727272727"/>
      <point x="981.4545454545455" y="-53.727272727272734"/>
      <point x="981.4545454545455" y="-105.45454545454545" type="curve" smooth="yes"/>
      <point x="980.9090909090909" y="-265.9090909090909"/>
      <point x="837.3636363636364" y="-351.3636363636364"/>
      <point x="727.2727272727274" y="-351.3636363636364" type="curve" smooth="yes"/>
      <point x="661.9090909090909" y="-351.3636363636364"/>
      <point x="611.8181818181819" y="-326.2727272727273"/>
      <point x="611.8181818181819" y="-262.8181818181818" type="curve" smooth="yes"/>
      <point x="611.8181818181819" y="-217.8181818181818"/>
      <point x="639.6363636363636" y="-188.45454545454547"/>
      <point x="687.4545454545454" y="-171.36363636363635" type="curve"/>
      <point x="674.8181818181819" y="-131.54545454545456" type="line"/>
      <point x="610.0" y="-155.72727272727275"/>
      <point x="568.0" y="-197.63636363636365"/>
      <point x="568.0" y="-259.6363636363636" type="curve" smooth="yes"/>
      <point x="568.0" y="-347.54545454545456"/>
      <point x="635.3636363636364" y="-393.54545454545456"/>
    </contour>
    <component base="a-tamil"/>
  </outline>
</glyph>
<glyph name="i-tamil" format="2">
  <advance width="742.0"/>
  <unicode hex="0B87"/>
  <note>
uni0B87
</note>
  <anchor x="358.0" y="0.0" name="bottom"/>
  <anchor x="356.0" y="-258.81818181818187" name="nukta"/>
  <anchor x="368.72727272727275" y="795.0" name="top"/>
  <anchor x="364.0" y="548.5454545454545" name="vedic"/>
  <outline>
    <contour>
      <point x="178.63636363636365" y="-288.3636363636364" type="curve" smooth="yes"/>
      <point x="388.3636363636363" y="-288.3636363636364"/>
      <point x="558.5454545454546" y="-18.81818181818182"/>
      <point x="558.5454545454546" y="251.72727272727272" type="curve" smooth="yes"/>
      <point x="558.5454545454546" y="439.54545454545456"/>
      <point x="479.4545454545454" y="555.3636363636364"/>
      <point x="350.90909090909093" y="555.3636363636364" type="curve" smooth="yes"/>
      <point x="259.8181818181818" y="555.3636363636364"/>
      <point x="196.09090909090907" y="488.54545454545456"/>
      <point x="196.09090909090907" y="387.45454545454544" type="curve" smooth="yes"/>
      <point x="196.09090909090907" y="306.3636363636364"/>
      <point x="236.63636363636363" y="256.1818181818182"/>
      <point x="298.0" y="256.1818181818182" type="curve" smooth="yes"/>
      <point x="362.0" y="256.1818181818182"/>
      <point x="403.5454545454545" y="304.3636363636364"/>
      <point x="403.5454545454545" y="381.72727272727275" type="curve" smooth="yes"/>
      <point x="403.5454545454545" y="445.09090909090907"/>
      <point x="369.72727272727275" y="502.6363636363636"/>
      <point x="315.72727272727275" y="525.1818181818181" type="curve"/>
      <point x="281.7272727272727" y="520.1818181818181" type="line"/>
      <point x="326.18181818181813" y="495.1818181818182"/>
      <point x="351.0" y="443.1818181818182"/>
      <point x="351.0" y="387.1818181818182" type="curve" smooth="yes"/>
      <point x="351.0" y="334.6363636363636"/>
      <point x="329.7272727272727" y="295.90909090909093"/>
      <point x="290.3636363636363" y="295.90909090909093" type="curve" smooth="yes"/>
      <point x="254.72727272727275" y="295.90909090909093"/>
      <point x="234.0" y="332.6363636363636"/>
      <point x="234.0" y="385.45454545454544" type="curve" smooth="yes"/>
      <point x="234.0" y="460.90909090909093"/>
      <point x="271.3636363636363" y="515.0"/>
      <point x="343.90909090909093" y="515.0" type="curve" smooth="yes"/>
      <point x="442.18181818181824" y="515.0"/>
      <point x="496.81818181818176" y="416.1818181818182"/>
      <point x="496.81818181818176" y="264.72727272727275" type="curve" smooth="yes"/>
      <point x="496.81818181818176" y="10.909090909090908"/>
      <point x="371.45454545454544" y="-247.0909090909091"/>
      <point x="184.63636363636363" y="-247.0909090909091" type="curve" smooth="yes"/>
      <point x="124.36363636363637" y="-247.0909090909091"/>
      <point x="89.63636363636364" y="-214.63636363636365"/>
      <point x="89.63636363636364" y="-148.1818181818182" type="curve" smooth="yes"/>
      <point x="89.63636363636364" y="-14.272727272727273"/>
      <point x="224.72727272727272" y="67.45454545454545"/>
      <point x="357.3636363636363" y="67.45454545454545" type="curve" smooth="yes"/>
      <point x="487.09090909090907" y="67.45454545454545"/>
      <point x="626.6363636363636" y="-11.272727272727273"/>
      <point x="626.6363636363636" y="-143.81818181818184" type="curve" smooth="yes"/>
      <point x="626.6363636363636" y="-217.63636363636363"/>
      <point x="584.1818181818181" y="-247.0909090909091"/>
      <point x="524.0909090909091" y="-247.0909090909091" type="curve" smooth="yes"/>
      <point x="343.09090909090907" y="-247.0909090909091"/>
      <point x="105.18181818181819" y="80.0909090909091"/>
      <point x="105.18181818181819" y="388.45454545454544" type="curve" smooth="yes"/>
      <point x="105.18181818181819" y="634.090909090909"/>
      <point x="210.36363636363637" y="732.3636363636364"/>
      <point x="368.1818181818182" y="732.3636363636364" type="curve" smooth="yes"/>
      <point x="546.0909090909091" y="732.3636363636364"/>
      <point x="646.3636363636363" y="599.2727272727273"/>
      <point x="646.3636363636363" y="374.45454545454544" type="curve" smooth="yes"/>
      <point x="646.3636363636363" y="96.0" type="line"/>
      <point x="688.1818181818181" y="96.0" type="line"/>
      <point x="688.1818181818181" y="374.45454545454544" type="line" smooth="yes"/>
      <point x="688.1818181818181" y="658.6363636363636"/>
      <point x="567.6363636363636" y="795.0"/>
      <point x="368.72727272727275" y="795.0" type="curve" smooth="yes"/>
      <point x="173.0909090909091" y="795.0"/>
      <point x="59.72727272727272" y="652.2727272727273"/>
      <point x="59.72727272727272" y="409.27272727272725" type="curve" smooth="yes"/>
      <point x="59.72727272727272" y="71.72727272727273"/>
      <point x="308.0" y="-288.3636363636364"/>
      <point x="538.7272727272727" y="-288.3636363636364" type="curve" smooth="yes"/>
      <point x="612.1818181818182" y="-288.3636363636364"/>
      <point x="671.6363636363637" y="-245.27272727272725"/>
      <point x="671.6363636363637" y="-152.8181818181818" type="curve" smooth="yes"/>
      <point x="671.6363636363637" y="15.545454545454545"/>
      <point x="512.5454545454545" y="107.72727272727273"/>
      <point x="357.3636363636363" y="107.72727272727273" type="curve" smooth="yes"/>
      <point x="198.09090909090912" y="107.72727272727273"/>
      <point x="45.18181818181818" y="11.909090909090908"/>
      <point x="45.18181818181818" y="-149.1818181818182" type="curve" smooth="yes"/>
      <point x="45.18181818181818" y="-238.9090909090909"/>
      <point x="101.18181818181819" y="-288.3636363636364"/>
    </contour>
  </outline>
</glyph>
<glyph name="ii-tamil" format="2">
  <advance width="581.5454545454545"/>
  <unicode hex="0B88"/>
  <note>
uni0B88
</note>
  <anchor x="307.8181818181818" y="0.0" name="bottom"/>
  <anchor x="308.3636363636364" y="0.0" name="nukta"/>
  <anchor x="310.72727272727275" y="548.5454545454545" name="top"/>
  <anchor x="310.8181818181818" y="548.5454545454545" name="vedic"/>
  <outline>
    <contour>
      <point x="84.0909090909091" y="0.0" type="line"/>
      <point x="125.90909090909092" y="0.0" type="line"/>
      <point x="125.90909090909092" y="508.6363636363636" type="line"/>
      <point x="331.0" y="508.6363636363636" type="line"/>
      <point x="331.0" y="0.0" type="line"/>
      <point x="393.7272727272727" y="0.0" type="line"/>
      <point x="393.7272727272727" y="508.6363636363636" type="line"/>
      <point x="541.4545454545455" y="508.6363636363636" type="line"/>
      <point x="541.4545454545455" y="548.5454545454545" type="line"/>
      <point x="84.0909090909091" y="548.5454545454545" type="line"/>
    </contour>
    <contour>
      <point x="227.00000000000003" y="221.72727272727275" type="curve" smooth="yes"/>
      <point x="250.54545454545456" y="221.72727272727275"/>
      <point x="268.45454545454544" y="241.1818181818182"/>
      <point x="268.45454545454544" y="263.1818181818182" type="curve" smooth="yes"/>
      <point x="268.45454545454544" y="285.6363636363636"/>
      <point x="250.54545454545456" y="304.5454545454545"/>
      <point x="227.00000000000003" y="304.5454545454545" type="curve" smooth="yes"/>
      <point x="202.45454545454544" y="304.5454545454545"/>
      <point x="184.0909090909091" y="285.6363636363636"/>
      <point x="184.0909090909091" y="263.1818181818182" type="curve" smooth="yes"/>
      <point x="184.0909090909091" y="241.1818181818182"/>
      <point x="202.45454545454544" y="221.72727272727275"/>
    </contour>
    <contour>
      <point x="496.1818181818182" y="221.72727272727275" type="curve" smooth="yes"/>
      <point x="519.7272727272727" y="221.72727272727275"/>
      <point x="537.6363636363636" y="241.1818181818182"/>
      <point x="537.6363636363636" y="263.1818181818182" type="curve" smooth="yes"/>
      <point x="537.6363636363636" y="285.6363636363636"/>
      <point x="519.7272727272727" y="304.5454545454545"/>
      <point x="496.1818181818182" y="304.5454545454545" type="curve" smooth="yes"/>
      <point x="471.63636363636357" y="304.5454545454545"/>
      <point x="453.2727272727273" y="285.6363636363636"/>
      <point x="453.2727272727273" y="263.1818181818182" type="curve" smooth="yes"/>
      <point x="453.2727272727273" y="241.1818181818182"/>
      <point x="471.63636363636357" y="221.72727272727275"/>
    </contour>
  </outline>
</glyph>
<glyph name="u-tamil" format="2">
  <advance width="755.0909090909092"/>
  <unicode hex="0B89"/>
  <note>
uni0B89
</note>
  <anchor x="399.9090909090909" y="0.0" name="bottom"/>
  <anchor x="400.45454545454544" y="0.0" name="nukta"/>
  <anchor x="403.0" y="548.5454545454545" name="top"/>
  <anchor x="402.45454545454544" y="548.5454545454545" name="vedic"/>
  <outline>
    <contour>
      <point x="129.1818181818182" y="0.0" type="curve" smooth="yes"/>
      <point x="734.4545454545455" y="0.0" type="line"/>
      <point x="734.4545454545455" y="39.90909090909091" type="line"/>
      <point x="130.45454545454547" y="39.90909090909091" type="line" smooth="yes"/>
      <point x="108.45454545454545" y="39.90909090909091"/>
      <point x="85.54545454545455" y="59.90909090909091"/>
      <point x="85.54545454545455" y="90.36363636363636" type="curve" smooth="yes"/>
      <point x="85.54545454545455" y="121.81818181818181"/>
      <point x="108.0" y="140.0"/>
      <point x="130.45454545454547" y="140.0" type="curve" smooth="yes"/>
      <point x="297.3636363636364" y="140.0" type="line" smooth="yes"/>
      <point x="408.18181818181813" y="140.0"/>
      <point x="485.45454545454544" y="205.45454545454547"/>
      <point x="485.45454545454544" y="337.3636363636364" type="curve" smooth="yes"/>
      <point x="485.45454545454544" y="476.45454545454544"/>
      <point x="397.4545454545455" y="555.3636363636364"/>
      <point x="279.3636363636364" y="555.3636363636364" type="curve" smooth="yes"/>
      <point x="179.18181818181816" y="555.3636363636364"/>
      <point x="112.54545454545455" y="482.0"/>
      <point x="112.54545454545455" y="387.45454545454544" type="curve" smooth="yes"/>
      <point x="112.54545454545455" y="309.8181818181818"/>
      <point x="149.0" y="255.63636363636363"/>
      <point x="214.36363636363635" y="255.63636363636363" type="curve" smooth="yes"/>
      <point x="277.8181818181818" y="255.63636363636363"/>
      <point x="321.54545454545456" y="302.45454545454544"/>
      <point x="321.54545454545456" y="381.72727272727275" type="curve" smooth="yes"/>
      <point x="321.54545454545456" y="451.6363636363636"/>
      <point x="282.09090909090907" y="509.1818181818182"/>
      <point x="234.1818181818182" y="526.2727272727273" type="curve"/>
      <point x="200.45454545454544" y="522.3636363636364" type="line"/>
      <point x="242.18181818181816" y="496.8181818181818"/>
      <point x="268.45454545454544" y="441.0"/>
      <point x="268.45454545454544" y="386.6363636363636" type="curve" smooth="yes"/>
      <point x="268.45454545454544" y="333.0"/>
      <point x="247.8181818181818" y="296.45454545454544"/>
      <point x="207.45454545454547" y="296.45454545454544" type="curve" smooth="yes"/>
      <point x="174.0" y="296.45454545454544"/>
      <point x="150.0" y="327.72727272727275"/>
      <point x="150.0" y="384.90909090909093" type="curve" smooth="yes"/>
      <point x="150.0" y="459.8181818181818"/>
      <point x="197.27272727272725" y="515.0"/>
      <point x="270.8181818181818" y="515.0" type="curve" smooth="yes"/>
      <point x="358.27272727272725" y="515.0"/>
      <point x="422.72727272727275" y="452.0"/>
      <point x="422.72727272727275" y="344.90909090909093" type="curve" smooth="yes"/>
      <point x="422.72727272727275" y="236.27272727272728"/>
      <point x="372.54545454545456" y="179.8181818181818"/>
      <point x="287.54545454545456" y="179.8181818181818" type="curve" smooth="yes"/>
      <point x="129.1818181818182" y="179.8181818181818" type="line" smooth="yes"/>
      <point x="81.63636363636363" y="179.8181818181818"/>
      <point x="45.81818181818182" y="146.72727272727272"/>
      <point x="45.81818181818182" y="90.36363636363636" type="curve" smooth="yes"/>
      <point x="45.81818181818182" y="35.0"/>
      <point x="81.63636363636363" y="0.0"/>
    </contour>
  </outline>
</glyph>
<glyph name="uu-tamil" format="2">
  <advance width="1235.7272727272727"/>
  <unicode hex="0B8A"/>
  <note>
uni0B8A
</note>
  <anchor x="653.090909090909" y="0.0" name="bottom"/>
  <anchor x="653.5454545454545" y="0.0" name="nukta"/>
  <anchor x="656.0909090909091" y="548.5454545454545" name="top"/>
  <anchor x="656.090909090909" y="548.5454545454545" name="vedic"/>
  <outline>
    <contour>
      <point x="125.90909090909092" y="0.0" type="curve" smooth="yes"/>
      <point x="1215.090909090909" y="0.0" type="line"/>
      <point x="1215.090909090909" y="39.90909090909091" type="line"/>
      <point x="127.18181818181819" y="39.90909090909091" type="line" smooth="yes"/>
      <point x="104.63636363636364" y="39.90909090909091"/>
      <point x="85.54545454545455" y="59.90909090909091"/>
      <point x="85.54545454545455" y="90.36363636363636" type="curve" smooth="yes"/>
      <point x="85.54545454545455" y="121.81818181818181"/>
      <point x="104.18181818181819" y="140.0"/>
      <point x="127.18181818181819" y="140.0" type="curve" smooth="yes"/>
      <point x="297.3636363636364" y="140.0" type="line" smooth="yes"/>
      <point x="408.18181818181813" y="140.0"/>
      <point x="485.45454545454544" y="205.45454545454547"/>
      <point x="485.45454545454544" y="337.3636363636364" type="curve" smooth="yes"/>
      <point x="485.45454545454544" y="476.45454545454544"/>
      <point x="397.4545454545455" y="555.3636363636364"/>
      <point x="279.3636363636364" y="555.3636363636364" type="curve" smooth="yes"/>
      <point x="179.18181818181816" y="555.3636363636364"/>
      <point x="112.54545454545455" y="482.0"/>
      <point x="112.54545454545455" y="387.45454545454544" type="curve" smooth="yes"/>
      <point x="112.54545454545455" y="309.8181818181818"/>
      <point x="149.0" y="255.63636363636363"/>
      <point x="214.36363636363635" y="255.63636363636363" type="curve" smooth="yes"/>
      <point x="277.8181818181818" y="255.63636363636363"/>
      <point x="321.54545454545456" y="302.45454545454544"/>
      <point x="321.54545454545456" y="381.72727272727275" type="curve" smooth="yes"/>
      <point x="321.54545454545456" y="451.6363636363636"/>
      <point x="282.09090909090907" y="509.1818181818182"/>
      <point x="234.1818181818182" y="526.2727272727273" type="curve"/>
      <point x="200.45454545454544" y="522.3636363636364" type="line"/>
      <point x="242.18181818181816" y="496.8181818181818"/>
      <point x="268.45454545454544" y="441.0"/>
      <point x="268.45454545454544" y="386.6363636363636" type="curve" smooth="yes"/>
      <point x="268.45454545454544" y="333.0"/>
      <point x="247.8181818181818" y="296.45454545454544"/>
      <point x="207.45454545454547" y="296.45454545454544" type="curve" smooth="yes"/>
      <point x="174.0" y="296.45454545454544"/>
      <point x="150.0" y="327.72727272727275"/>
      <point x="150.0" y="384.90909090909093" type="curve" smooth="yes"/>
      <point x="150.0" y="459.8181818181818"/>
      <point x="197.27272727272725" y="515.0"/>
      <point x="270.8181818181818" y="515.0" type="curve" smooth="yes"/>
      <point x="358.27272727272725" y="515.0"/>
      <point x="422.72727272727275" y="452.0"/>
      <point x="422.72727272727275" y="344.90909090909093" type="curve" smooth="yes"/>
      <point x="422.72727272727275" y="236.27272727272728"/>
      <point x="372.54545454545456" y="179.8181818181818"/>
      <point x="287.54545454545456" y="179.8181818181818" type="curve" smooth="yes"/>
      <point x="125.90909090909092" y="179.8181818181818" type="line" smooth="yes"/>
      <point x="78.36363636363636" y="179.8181818181818"/>
      <point x="45.81818181818182" y="146.72727272727272"/>
      <point x="45.81818181818182" y="90.36363636363636" type="curve" smooth="yes"/>
      <point x="45.81818181818182" y="35.0"/>
      <point x="78.36363636363636" y="0.0"/>
    </contour>
    <contour>
      <point x="681.0909090909091" y="103.45454545454545" type="curve" smooth="yes"/>
      <point x="752.2727272727273" y="103.45454545454545"/>
      <point x="796.3636363636364" y="156.9090909090909"/>
      <point x="796.3636363636364" y="242.45454545454544" type="curve" smooth="yes"/>
      <point x="796.3636363636364" y="331.8181818181818"/>
      <point x="751.0" y="381.3636363636364"/>
      <point x="689.6363636363636" y="381.3636363636364" type="curve" smooth="yes"/>
      <point x="626.909090909091" y="381.3636363636364"/>
      <point x="587.6363636363636" y="322.1818181818182"/>
      <point x="576.0" y="243.8181818181818" type="curve"/>
      <point x="589.0909090909091" y="209.0" type="line"/>
      <point x="600.6363636363636" y="278.3636363636364"/>
      <point x="632.090909090909" y="336.09090909090907"/>
      <point x="676.9090909090909" y="336.09090909090907" type="curve" smooth="yes"/>
      <point x="714.1818181818181" y="336.09090909090907"/>
      <point x="741.5454545454545" y="306.81818181818187"/>
      <point x="741.5454545454545" y="242.72727272727272" type="curve" smooth="yes"/>
      <point x="741.5454545454545" y="179.0909090909091"/>
      <point x="715.7272727272726" y="143.72727272727272"/>
      <point x="674.1818181818182" y="143.72727272727272" type="curve" smooth="yes"/>
      <point x="624.2727272727274" y="143.72727272727272"/>
      <point x="588.9090909090909" y="197.63636363636363"/>
      <point x="588.9090909090909" y="304.45454545454544" type="curve" smooth="yes"/>
      <point x="588.9090909090909" y="425.3636363636364"/>
      <point x="635.1818181818182" y="515.0"/>
      <point x="729.7272727272726" y="515.0" type="curve" smooth="yes"/>
      <point x="812.2727272727274" y="515.0"/>
      <point x="874.8181818181818" y="439.8181818181818"/>
      <point x="875.3636363636364" y="313.72727272727275" type="curve"/>
      <point x="909.909090909091" y="314.1818181818182" type="line"/>
      <point x="909.3636363636364" y="473.90909090909093"/>
      <point x="836.1818181818181" y="555.3636363636364"/>
      <point x="728.1818181818182" y="555.3636363636364" type="curve" smooth="yes"/>
      <point x="609.1818181818181" y="555.3636363636364"/>
      <point x="548.7272727272727" y="445.1818181818182"/>
      <point x="548.7272727272727" y="304.27272727272725" type="curve" smooth="yes"/>
      <point x="548.7272727272727" y="180.54545454545453"/>
      <point x="599.5454545454545" y="103.45454545454545"/>
    </contour>
    <contour>
      <point x="875.3636363636364" y="107.0" type="line"/>
      <point x="935.9999999999999" y="107.0" type="line"/>
      <point x="935.9999999999999" y="509.72727272727275" type="line"/>
      <point x="1070.181818181818" y="509.72727272727275" type="line"/>
      <point x="1070.181818181818" y="107.0" type="line"/>
      <point x="1129.8181818181818" y="107.0" type="line"/>
      <point x="1129.8181818181818" y="509.72727272727275" type="line"/>
      <point x="1215.090909090909" y="509.72727272727275" type="line"/>
      <point x="1215.090909090909" y="548.5454545454545" type="line"/>
      <point x="882.9090909090909" y="548.5454545454545" type="line"/>
      <point x="882.9090909090909" y="395.8181818181818" type="line"/>
      <point x="875.3636363636364" y="384.09090909090907" type="line"/>
    </contour>
  </outline>
</glyph>
<glyph name="ee-tamil" format="2">
  <advance width="673.1818181818181"/>
  <unicode hex="0B8F"/>
  <note>
uni0B8F
</note>
  <anchor x="347.45454545454544" y="0.0" name="bottom"/>
  <anchor x="348.45454545454544" y="-171.0" name="nukta"/>
  <anchor x="351.45454545454544" y="548.5454545454545" name="top"/>
  <anchor x="350.45454545454544" y="548.5454545454545" name="vedic"/>
  <outline>
    <contour>
      <point x="366.8181818181818" y="-199.90909090909093" type="line"/>
      <point x="528.4545454545454" y="13.181818181818183" type="line"/>
      <point x="528.4545454545454" y="508.6363636363636" type="line"/>
      <point x="649.2727272727273" y="508.6363636363636" type="line"/>
      <point x="649.2727272727273" y="548.5454545454545" type="line"/>
      <point x="298.09090909090907" y="548.5454545454545" type="line" smooth="yes"/>
      <point x="131.45454545454544" y="548.5454545454545"/>
      <point x="49.45454545454545" y="425.9090909090909"/>
      <point x="49.45454545454545" y="241.45454545454544" type="curve" smooth="yes"/>
      <point x="49.45454545454545" y="84.81818181818181"/>
      <point x="108.9090909090909" y="-4.545454545454546"/>
      <point x="201.45454545454547" y="-4.545454545454546" type="curve" smooth="yes"/>
      <point x="281.8181818181818" y="-4.545454545454546"/>
      <point x="331.54545454545456" y="54.27272727272727"/>
      <point x="331.54545454545456" y="149.27272727272728" type="curve" smooth="yes"/>
      <point x="331.54545454545456" y="239.54545454545453"/>
      <point x="283.3636363636364" y="293.9090909090909"/>
      <point x="214.45454545454544" y="293.9090909090909" type="curve" smooth="yes"/>
      <point x="134.27272727272725" y="293.9090909090909"/>
      <point x="93.18181818181817" y="216.1818181818182"/>
      <point x="85.72727272727273" y="138.0" type="curve"/>
      <point x="105.0909090909091" y="109.27272727272727" type="line"/>
      <point x="114.18181818181819" y="182.72727272727275"/>
      <point x="146.27272727272728" y="246.0"/>
      <point x="198.9090909090909" y="246.0" type="curve" smooth="yes"/>
      <point x="247.63636363636365" y="246.0"/>
      <point x="272.9090909090909" y="201.36363636363637"/>
      <point x="272.9090909090909" y="144.1818181818182" type="curve" smooth="yes"/>
      <point x="272.9090909090909" y="77.81818181818181"/>
      <point x="243.45454545454547" y="36.27272727272727"/>
      <point x="192.8181818181818" y="36.27272727272727" type="curve" smooth="yes"/>
      <point x="130.54545454545453" y="36.27272727272727"/>
      <point x="90.63636363636364" y="106.0"/>
      <point x="90.63636363636364" y="240.45454545454544" type="curve" smooth="yes"/>
      <point x="90.63636363636364" y="402.27272727272725"/>
      <point x="156.72727272727272" y="508.6363636363636"/>
      <point x="299.72727272727275" y="508.6363636363636" type="curve" smooth="yes"/>
      <point x="466.1818181818182" y="508.6363636363636" type="line"/>
      <point x="466.1818181818182" y="2.8181818181818183" type="line"/>
      <point x="333.8181818181818" y="-174.0" type="line"/>
    </contour>
  </outline>
</glyph>
<glyph name="ai-tamil" format="2">
  <advance width="732.0"/>
  <unicode hex="0B90"/>
  <note>
uni0B90
</note>
  <anchor x="373.5454545454545" y="0.0" name="bottom"/>
  <anchor x="370.90909090909093" y="-287.8181818181818" name="nukta"/>
  <anchor x="381.8181818181818" y="548.5454545454545" name="top"/>
  <anchor x="379.0" y="548.5454545454545" name="vedic"/>
  <outline>
    <contour>
      <point x="220.27272727272728" y="-287.8181818181818" type="curve" smooth="yes"/>
      <point x="303.0" y="-287.8181818181818"/>
      <point x="360.72727272727275" y="-239.8181818181818"/>
      <point x="379.4545454545455" y="-171.90909090909093" type="curve"/>
      <point x="396.09090909090907" y="-237.54545454545456"/>
      <point x="443.45454545454544" y="-287.8181818181818"/>
      <point x="524.8181818181819" y="-287.8181818181818" type="curve" smooth="yes"/>
      <point x="615.0" y="-287.8181818181818"/>
      <point x="682.5454545454545" y="-225.8181818181818"/>
      <point x="682.5454545454545" y="-95.81818181818181" type="curve" smooth="yes"/>
      <point x="682.5454545454545" y="-30.909090909090907"/>
      <point x="662.9090909090909" y="20.454545454545453"/>
      <point x="631.9090909090909" y="76.81818181818181" type="curve"/>
      <point x="596.2727272727273" y="55.27272727272727" type="line"/>
      <point x="622.1818181818182" y="9.09090909090909"/>
      <point x="641.4545454545454" y="-40.45454545454545"/>
      <point x="641.4545454545454" y="-92.54545454545455" type="curve" smooth="yes"/>
      <point x="641.4545454545454" y="-191.27272727272728"/>
      <point x="595.8181818181819" y="-243.63636363636363"/>
      <point x="525.1818181818181" y="-243.63636363636363" type="curve" smooth="yes"/>
      <point x="449.5454545454546" y="-243.63636363636363"/>
      <point x="412.9090909090909" y="-176.45454545454547"/>
      <point x="412.9090909090909" y="-77.63636363636364" type="curve" smooth="yes"/>
      <point x="412.9090909090909" y="-26.0" type="line"/>
      <point x="350.54545454545456" y="-26.0" type="line"/>
      <point x="350.54545454545456" y="-93.0" type="line" smooth="yes"/>
      <point x="350.54545454545456" y="-179.36363636363635"/>
      <point x="304.0" y="-246.9090909090909"/>
      <point x="228.18181818181816" y="-246.9090909090909" type="curve" smooth="yes"/>
      <point x="160.36363636363635" y="-246.9090909090909"/>
      <point x="116.0" y="-200.1818181818182"/>
      <point x="116.0" y="-110.18181818181819" type="curve" smooth="yes"/>
      <point x="116.0" y="27.0"/>
      <point x="208.72727272727275" y="65.0909090909091"/>
      <point x="389.63636363636357" y="83.45454545454545" type="curve" smooth="yes"/>
      <point x="551.5454545454546" y="99.54545454545455"/>
      <point x="681.5454545454546" y="152.0"/>
      <point x="681.5454545454546" y="345.45454545454544" type="curve" smooth="yes"/>
      <point x="681.5454545454546" y="495.4545454545455"/>
      <point x="611.8181818181819" y="555.3636363636364"/>
      <point x="523.090909090909" y="555.3636363636364" type="curve" smooth="yes"/>
      <point x="448.81818181818187" y="555.3636363636364"/>
      <point x="404.18181818181824" y="511.0909090909091"/>
      <point x="383.6363636363636" y="440.3636363636364" type="curve"/>
      <point x="359.5454545454545" y="511.6363636363636"/>
      <point x="302.90909090909093" y="555.3636363636364"/>
      <point x="225.27272727272728" y="555.3636363636364" type="curve" smooth="yes"/>
      <point x="116.99999999999999" y="555.3636363636364"/>
      <point x="51.090909090909086" y="467.8181818181818"/>
      <point x="51.090909090909086" y="349.90909090909093" type="curve" smooth="yes"/>
      <point x="51.090909090909086" y="238.45454545454547"/>
      <point x="98.18181818181819" y="159.63636363636363"/>
      <point x="172.54545454545456" y="159.63636363636363" type="curve" smooth="yes"/>
      <point x="230.81818181818178" y="159.63636363636363"/>
      <point x="275.9090909090909" y="204.54545454545456"/>
      <point x="275.9090909090909" y="280.54545454545456" type="curve" smooth="yes"/>
      <point x="275.9090909090909" y="358.7272727272727"/>
      <point x="239.63636363636363" y="405.6363636363636"/>
      <point x="184.72727272727275" y="405.6363636363636" type="curve" smooth="yes"/>
      <point x="131.1818181818182" y="405.6363636363636"/>
      <point x="90.36363636363637" y="358.0"/>
      <point x="82.45454545454545" y="262.90909090909093" type="curve"/>
      <point x="99.63636363636364" y="233.0909090909091" type="line"/>
      <point x="106.27272727272727" y="320.18181818181813"/>
      <point x="135.63636363636363" y="359.8181818181818"/>
      <point x="172.45454545454547" y="359.8181818181818" type="curve" smooth="yes"/>
      <point x="205.63636363636365" y="359.8181818181818"/>
      <point x="223.81818181818184" y="330.6363636363636"/>
      <point x="223.81818181818184" y="280.8181818181818" type="curve" smooth="yes"/>
      <point x="223.81818181818184" y="230.72727272727272"/>
      <point x="200.36363636363635" y="200.9090909090909"/>
      <point x="165.72727272727272" y="200.9090909090909" type="curve" smooth="yes"/>
      <point x="122.9090909090909" y="200.9090909090909"/>
      <point x="92.81818181818183" y="245.27272727272728"/>
      <point x="92.81818181818183" y="345.3636363636364" type="curve" smooth="yes"/>
      <point x="92.81818181818183" y="445.27272727272725"/>
      <point x="140.72727272727272" y="514.5454545454545"/>
      <point x="218.63636363636365" y="514.5454545454545" type="curve" smooth="yes"/>
      <point x="299.6363636363636" y="514.5454545454545"/>
      <point x="350.54545454545456" y="458.0"/>
      <point x="350.54545454545456" y="350.0" type="curve" smooth="yes"/>
      <point x="350.54545454545456" y="211.8181818181818" type="line"/>
      <point x="412.9090909090909" y="211.8181818181818" type="line"/>
      <point x="412.9090909090909" y="372.3636363636364" type="line" smooth="yes"/>
      <point x="412.9090909090909" y="448.9090909090909"/>
      <point x="446.7272727272727" y="515.0"/>
      <point x="513.6363636363636" y="515.0" type="curve" smooth="yes"/>
      <point x="583.0" y="515.0"/>
      <point x="617.7272727272726" y="454.54545454545456"/>
      <point x="617.7272727272726" y="352.27272727272725" type="curve" smooth="yes"/>
      <point x="617.7272727272726" y="189.54545454545453"/>
      <point x="528.2727272727274" y="131.27272727272728"/>
      <point x="345.09090909090907" y="113.72727272727272" type="curve" smooth="yes"/>
      <point x="157.36363636363635" y="95.27272727272727"/>
      <point x="52.18181818181819" y="47.90909090909091"/>
      <point x="52.18181818181819" y="-102.27272727272727" type="curve" smooth="yes"/>
      <point x="52.18181818181819" y="-221.8181818181818"/>
      <point x="122.0909090909091" y="-287.8181818181818"/>
    </contour>
  </outline>
</glyph>
<glyph name="o-tamil" format="2">
  <advance width="740.8181818181819"/>
  <unicode hex="0B92"/>
  <note>
uni0B92
</note>
  <anchor x="379.0" y="0.0" name="bottom"/>
  <anchor x="377.0" y="-335.0" name="nukta"/>
  <anchor x="372.0" y="548.5454545454545" name="top"/>
  <anchor x="372.0" y="548.5454545454545" name="vedic"/>
  <outline>
    <contour>
      <point x="280.8181818181818" y="-272.6363636363637" type="curve" smooth="yes"/>
      <point x="414.4545454545455" y="-272.6363636363637"/>
      <point x="440.18181818181824" y="-124.09090909090908"/>
      <point x="570.0" y="-124.09090909090908" type="curve" smooth="yes"/>
      <point x="593.4545454545454" y="-124.09090909090908" type="line"/>
      <point x="593.4545454545454" y="-83.72727272727272" type="line"/>
      <point x="561.909090909091" y="-83.72727272727272" type="line" smooth="yes"/>
      <point x="442.1818181818182" y="-83.72727272727272"/>
      <point x="364.5454545454545" y="24.09090909090909"/>
      <point x="450.54545454545456" y="200.63636363636363" type="curve"/>
      <point x="455.63636363636357" y="198.0909090909091" type="line"/>
      <point x="431.4545454545455" y="87.72727272727272"/>
      <point x="450.63636363636357" y="-5.0"/>
      <point x="552.7272727272727" y="-5.0" type="curve" smooth="yes"/>
      <point x="633.8181818181818" y="-5.0"/>
      <point x="691.3636363636364" y="66.27272727272728"/>
      <point x="691.3636363636364" y="198.45454545454544" type="curve" smooth="yes"/>
      <point x="691.3636363636364" y="423.8181818181818"/>
      <point x="550.5454545454545" y="555.3636363636364"/>
      <point x="354.72727272727275" y="555.3636363636364" type="curve" smooth="yes"/>
      <point x="178.27272727272728" y="555.3636363636364"/>
      <point x="49.45454545454545" y="407.90909090909093"/>
      <point x="49.45454545454545" y="236.0" type="curve" smooth="yes"/>
      <point x="49.45454545454545" y="79.9090909090909"/>
      <point x="108.9090909090909" y="-4.545454545454546"/>
      <point x="201.45454545454547" y="-4.545454545454546" type="curve" smooth="yes"/>
      <point x="281.8181818181818" y="-4.545454545454546"/>
      <point x="331.5454545454545" y="54.27272727272727"/>
      <point x="331.5454545454545" y="149.27272727272728" type="curve" smooth="yes"/>
      <point x="331.5454545454545" y="239.54545454545456"/>
      <point x="283.3636363636364" y="293.9090909090909"/>
      <point x="214.45454545454547" y="293.9090909090909" type="curve" smooth="yes"/>
      <point x="134.27272727272728" y="293.9090909090909"/>
      <point x="93.18181818181817" y="216.1818181818182"/>
      <point x="85.72727272727273" y="138.0" type="curve"/>
      <point x="105.0909090909091" y="109.27272727272727" type="line"/>
      <point x="113.63636363636364" y="182.72727272727275"/>
      <point x="146.27272727272728" y="246.0"/>
      <point x="198.9090909090909" y="246.0" type="curve" smooth="yes"/>
      <point x="247.63636363636365" y="246.0"/>
      <point x="272.9090909090909" y="201.36363636363635"/>
      <point x="272.9090909090909" y="144.1818181818182" type="curve" smooth="yes"/>
      <point x="272.9090909090909" y="77.81818181818183"/>
      <point x="243.45454545454544" y="36.27272727272727"/>
      <point x="192.8181818181818" y="36.27272727272727" type="curve" smooth="yes"/>
      <point x="130.54545454545453" y="36.27272727272727"/>
      <point x="90.63636363636364" y="100.54545454545455"/>
      <point x="90.63636363636364" y="235.0" type="curve" smooth="yes"/>
      <point x="90.63636363636364" y="391.90909090909093"/>
      <point x="208.36363636363637" y="515.0"/>
      <point x="354.18181818181813" y="515.0" type="curve" smooth="yes"/>
      <point x="517.2727272727273" y="515.0"/>
      <point x="629.7272727272727" y="400.3636363636364"/>
      <point x="629.7272727272727" y="205.72727272727272" type="curve" smooth="yes"/>
      <point x="629.7272727272727" y="96.81818181818183"/>
      <point x="596.1818181818182" y="36.27272727272727"/>
      <point x="541.0" y="36.27272727272727" type="curve" smooth="yes"/>
      <point x="470.6363636363636" y="36.27272727272727"/>
      <point x="466.54545454545456" y="137.81818181818184"/>
      <point x="502.2727272727273" y="248.27272727272728" type="curve"/>
      <point x="448.7272727272727" y="270.72727272727275" type="line"/>
      <point x="316.6363636363636" y="40.454545454545446"/>
      <point x="393.27272727272725" y="-67.63636363636364"/>
      <point x="486.2727272727273" y="-101.18181818181819" type="curve"/>
      <point x="486.2727272727273" y="-105.72727272727272" type="line"/>
      <point x="390.1818181818182" y="-125.81818181818181"/>
      <point x="364.18181818181813" y="-224.9090909090909"/>
      <point x="268.6363636363636" y="-224.9090909090909" type="curve" smooth="yes"/>
      <point x="221.90909090909088" y="-224.9090909090909"/>
      <point x="194.0909090909091" y="-197.45454545454547"/>
      <point x="194.0909090909091" y="-154.63636363636363" type="curve" smooth="yes"/>
      <point x="194.0909090909091" y="-122.63636363636364"/>
      <point x="204.7272727272727" y="-103.18181818181819"/>
      <point x="233.0909090909091" y="-75.63636363636364" type="curve"/>
      <point x="203.54545454545456" y="-47.909090909090914" type="line"/>
      <point x="167.54545454545456" y="-83.72727272727273"/>
      <point x="152.9090909090909" y="-110.72727272727272"/>
      <point x="152.9090909090909" y="-153.63636363636363" type="curve" smooth="yes"/>
      <point x="152.9090909090909" y="-226.09090909090912"/>
      <point x="203.0909090909091" y="-272.6363636363637"/>
    </contour>
  </outline>
</glyph>
<glyph name="oo-tamil" format="2">
  <advance width="740.8181818181819"/>
  <unicode hex="0B93"/>
  <note>
uni0B93
</note>
  <anchor x="370.0" y="0.0" name="bottom"/>
  <anchor x="368.0" y="-251.0" name="nukta"/>
  <anchor x="363.0" y="548.5454545454545" name="top"/>
  <anchor x="363.0" y="548.5454545454545" name="vedic"/>
  <outline>
    <contour>
      <point x="263.0" y="-278.6363636363636" type="curve" smooth="yes"/>
      <point x="403.45454545454544" y="-278.6363636363636"/>
      <point x="440.1818181818182" y="-124.09090909090908"/>
      <point x="570.0" y="-124.09090909090908" type="curve" smooth="yes"/>
      <point x="587.2727272727273" y="-124.09090909090908" type="line"/>
      <point x="587.2727272727273" y="-83.72727272727272" type="line"/>
      <point x="561.9090909090909" y="-83.72727272727272" type="line" smooth="yes"/>
      <point x="442.18181818181824" y="-83.72727272727272"/>
      <point x="363.4545454545455" y="24.09090909090909"/>
      <point x="450.54545454545456" y="200.63636363636363" type="curve"/>
      <point x="455.63636363636357" y="198.0909090909091" type="line"/>
      <point x="431.4545454545455" y="87.72727272727272"/>
      <point x="450.63636363636357" y="-5.0"/>
      <point x="552.7272727272727" y="-5.0" type="curve" smooth="yes"/>
      <point x="633.8181818181818" y="-5.0"/>
      <point x="691.3636363636364" y="66.27272727272728"/>
      <point x="691.3636363636364" y="198.45454545454544" type="curve" smooth="yes"/>
      <point x="691.3636363636364" y="423.8181818181818"/>
      <point x="550.5454545454545" y="555.3636363636364"/>
      <point x="354.72727272727275" y="555.3636363636364" type="curve" smooth="yes"/>
      <point x="178.27272727272728" y="555.3636363636364"/>
      <point x="49.45454545454545" y="407.90909090909093"/>
      <point x="49.45454545454545" y="236.0" type="curve" smooth="yes"/>
      <point x="49.45454545454545" y="79.9090909090909"/>
      <point x="108.9090909090909" y="-4.545454545454546"/>
      <point x="201.45454545454547" y="-4.545454545454546" type="curve" smooth="yes"/>
      <point x="281.8181818181818" y="-4.545454545454546"/>
      <point x="331.5454545454545" y="54.27272727272727"/>
      <point x="331.5454545454545" y="149.27272727272728" type="curve" smooth="yes"/>
      <point x="331.5454545454545" y="239.54545454545456"/>
      <point x="283.3636363636364" y="293.9090909090909"/>
      <point x="214.45454545454547" y="293.9090909090909" type="curve" smooth="yes"/>
      <point x="134.27272727272728" y="293.9090909090909"/>
      <point x="93.18181818181817" y="216.1818181818182"/>
      <point x="85.72727272727273" y="138.0" type="curve"/>
      <point x="105.0909090909091" y="109.27272727272727" type="line"/>
      <point x="113.63636363636364" y="182.72727272727275"/>
      <point x="146.27272727272728" y="246.0"/>
      <point x="198.9090909090909" y="246.0" type="curve" smooth="yes"/>
      <point x="247.63636363636365" y="246.0"/>
      <point x="272.9090909090909" y="201.36363636363635"/>
      <point x="272.9090909090909" y="144.1818181818182" type="curve" smooth="yes"/>
      <point x="272.9090909090909" y="77.81818181818183"/>
      <point x="243.45454545454544" y="36.27272727272727"/>
      <point x="192.8181818181818" y="36.27272727272727" type="curve" smooth="yes"/>
      <point x="130.54545454545453" y="36.27272727272727"/>
      <point x="90.63636363636364" y="100.54545454545455"/>
      <point x="90.63636363636364" y="235.0" type="curve" smooth="yes"/>
      <point x="90.63636363636364" y="391.90909090909093"/>
      <point x="208.36363636363637" y="515.0"/>
      <point x="354.18181818181813" y="515.0" type="curve" smooth="yes"/>
      <point x="517.2727272727273" y="515.0"/>
      <point x="629.7272727272727" y="400.3636363636364"/>
      <point x="629.7272727272727" y="205.72727272727272" type="curve" smooth="yes"/>
      <point x="629.7272727272727" y="96.81818181818183"/>
      <point x="596.1818181818182" y="36.27272727272727"/>
      <point x="541.0" y="36.27272727272727" type="curve" smooth="yes"/>
      <point x="470.6363636363636" y="36.27272727272727"/>
      <point x="466.54545454545456" y="137.81818181818184"/>
      <point x="502.2727272727273" y="248.27272727272728" type="curve"/>
      <point x="448.7272727272727" y="270.72727272727275" type="line"/>
      <point x="315.54545454545456" y="40.45454545454546"/>
      <point x="393.2727272727273" y="-67.63636363636364"/>
      <point x="485.8181818181818" y="-101.18181818181819" type="curve"/>
      <point x="485.8181818181818" y="-105.72727272727272" type="line"/>
      <point x="390.1818181818182" y="-125.81818181818183"/>
      <point x="353.54545454545456" y="-233.0909090909091"/>
      <point x="248.72727272727272" y="-233.0909090909091" type="curve" smooth="yes"/>
      <point x="204.1818181818182" y="-233.0909090909091"/>
      <point x="173.1818181818182" y="-204.72727272727272"/>
      <point x="173.1818181818182" y="-166.72727272727272" type="curve" smooth="yes"/>
      <point x="173.1818181818182" y="-131.27272727272725"/>
      <point x="199.0909090909091" y="-108.18181818181819"/>
      <point x="227.54545454545453" y="-108.18181818181819" type="curve" smooth="yes"/>
      <point x="256.6363636363637" y="-108.18181818181819"/>
      <point x="277.27272727272725" y="-125.99999999999999"/>
      <point x="286.90909090909093" y="-154.0909090909091" type="curve"/>
      <point x="306.72727272727275" y="-144.36363636363637"/>
      <point x="320.72727272727275" y="-126.72727272727272"/>
      <point x="320.72727272727275" y="-105.9090909090909" type="curve" smooth="yes"/>
      <point x="320.72727272727275" y="-72.81818181818181"/>
      <point x="285.72727272727275" y="-51.54545454545455"/>
      <point x="247.0909090909091" y="-51.54545454545455" type="curve" smooth="yes"/>
      <point x="185.27272727272725" y="-51.54545454545455"/>
      <point x="137.27272727272728" y="-98.27272727272727"/>
      <point x="137.27272727272728" y="-164.0909090909091" type="curve" smooth="yes"/>
      <point x="137.27272727272728" y="-234.90909090909093"/>
      <point x="192.27272727272725" y="-278.6363636363636"/>
    </contour>
  </outline>
</glyph>
<glyph name="au-tamil" format="2">
  <advance width="1642.0"/>
  <unicode hex="0B94"/>
  <note>
uni0B94
</note>
  <anchor x="846.4545454545455" y="0.0" name="bottom"/>
  <anchor x="902.1818181818182" y="0.0" name="nukta"/>
  <anchor x="839.4545454545455" y="548.5454545454545" name="top"/>
  <anchor x="839.4545454545455" y="548.5454545454545" name="vedic"/>
  <outline>
    <contour>
      <point x="928.4545454545454" y="-4.545454545454546" type="curve" smooth="yes"/>
      <point x="1007.3636363636363" y="-4.545454545454546"/>
      <point x="1058.5454545454545" y="52.909090909090914"/>
      <point x="1058.5454545454545" y="150.1818181818182" type="curve" smooth="yes"/>
      <point x="1058.5454545454545" y="240.0"/>
      <point x="1009.4545454545454" y="293.9090909090909"/>
      <point x="941.8181818181819" y="293.9090909090909" type="curve" smooth="yes"/>
      <point x="864.0" y="293.9090909090909"/>
      <point x="821.090909090909" y="219.36363636363635"/>
      <point x="812.6363636363637" y="138.0" type="curve"/>
      <point x="832.0000000000001" y="109.27272727272727" type="line"/>
      <point x="841.5454545454546" y="182.72727272727272"/>
      <point x="873.7272727272729" y="246.0"/>
      <point x="925.8181818181818" y="246.0" type="curve" smooth="yes"/>
      <point x="973.6363636363637" y="246.0"/>
      <point x="999.3636363636365" y="202.27272727272728"/>
      <point x="999.3636363636365" y="145.0909090909091" type="curve" smooth="yes"/>
      <point x="999.3636363636365" y="78.72727272727273"/>
      <point x="971.3636363636363" y="36.27272727272727"/>
      <point x="919.8181818181819" y="36.27272727272727" type="curve" smooth="yes"/>
      <point x="856.090909090909" y="36.27272727272727"/>
      <point x="818.0909090909091" y="109.63636363636364"/>
      <point x="818.0909090909091" y="239.54545454545453" type="curve" smooth="yes"/>
      <point x="818.0909090909091" y="408.6363636363636"/>
      <point x="886.2727272727271" y="515.0"/>
      <point x="1012.1818181818182" y="515.0" type="curve" smooth="yes"/>
      <point x="1112.7272727272727" y="515.0"/>
      <point x="1193.2727272727273" y="446.3636363636364"/>
      <point x="1193.2727272727273" y="281.1818181818182" type="curve"/>
      <point x="1233.1818181818182" y="284.3636363636364" type="line"/>
      <point x="1226.1818181818182" y="478.1818181818182"/>
      <point x="1136.3636363636363" y="555.3636363636364"/>
      <point x="1009.0" y="555.3636363636364" type="curve" smooth="yes"/>
      <point x="862.6363636363636" y="555.3636363636364"/>
      <point x="776.9090909090909" y="434.9090909090909"/>
      <point x="776.9090909090909" y="241.0" type="curve" smooth="yes"/>
      <point x="776.9090909090909" y="88.0"/>
      <point x="835.9090909090909" y="-4.545454545454546"/>
    </contour>
    <contour>
      <point x="1193.8181818181818" y="0.0" type="line"/>
      <point x="1255.090909090909" y="0.0" type="line"/>
      <point x="1255.090909090909" y="508.6363636363636" type="line"/>
      <point x="1426.0" y="508.6363636363636" type="line"/>
      <point x="1426.0" y="0.0" type="line"/>
      <point x="1487.181818181818" y="0.0" type="line"/>
      <point x="1487.181818181818" y="508.6363636363636" type="line"/>
      <point x="1618.0909090909092" y="508.6363636363636" type="line"/>
      <point x="1618.0909090909092" y="548.5454545454545" type="line"/>
      <point x="1203.090909090909" y="548.5454545454545" type="line"/>
      <point x="1203.090909090909" y="385.1818181818182" type="line"/>
      <point x="1193.8181818181818" y="370.6363636363636" type="line"/>
    </contour>
    <component base="o-tamil"/>
  </outline>
</glyph>
<glyph name="ka-tamil" format="2">
  <advance width="619.1818181818181"/>
  <unicode hex="0B95"/>
  <note>
uni0B95
</note>
  <anchor x="313.1818181818182" y="0.0" name="bottom"/>
  <anchor x="413.0" y="548.5454545454545" name="imatra"/>
  <anchor x="315.4545454545455" y="0.0" name="nukta"/>
  <anchor x="331.81818181818187" y="548.5454545454545" name="top"/>
  <anchor x="334.0909090909091" y="548.5454545454545" name="vedic"/>
  <outline>
    <contour>
      <point x="202.0" y="-4.0" type="curve" smooth="yes"/>
      <point x="305.72727272727275" y="-4.0"/>
      <point x="368.09090909090907" y="61.54545454545454"/>
      <point x="368.09090909090907" y="187.27272727272728" type="curve" smooth="yes"/>
      <point x="368.09090909090907" y="268.45454545454544" type="line"/>
      <point x="404.3636363636363" y="268.45454545454544" type="line" smooth="yes"/>
      <point x="472.72727272727275" y="268.45454545454544"/>
      <point x="505.6363636363637" y="230.8181818181818"/>
      <point x="505.6363636363637" y="151.27272727272728" type="curve" smooth="yes"/>
      <point x="505.6363636363637" y="84.09090909090908"/>
      <point x="475.45454545454544" y="37.36363636363636"/>
      <point x="418.18181818181813" y="37.36363636363636" type="curve" smooth="yes"/>
      <point x="391.5454545454545" y="37.36363636363636" type="line"/>
      <point x="391.5454545454545" y="-2.0" type="line"/>
      <point x="429.0909090909091" y="-2.0" type="line" smooth="yes"/>
      <point x="505.1818181818182" y="-2.0"/>
      <point x="570.0909090909091" y="49.272727272727266"/>
      <point x="570.0909090909091" y="149.1818181818182" type="curve" smooth="yes"/>
      <point x="570.0909090909091" y="255.36363636363637"/>
      <point x="512.4545454545454" y="308.8181818181818"/>
      <point x="404.45454545454544" y="308.8181818181818" type="curve" smooth="yes"/>
      <point x="368.09090909090907" y="308.8181818181818" type="line"/>
      <point x="368.09090909090907" y="508.6363636363636" type="line"/>
      <point x="490.8181818181818" y="508.6363636363636" type="line"/>
      <point x="490.8181818181818" y="548.5454545454545" type="line"/>
      <point x="146.54545454545456" y="548.5454545454545" type="line"/>
      <point x="146.54545454545456" y="285.09090909090907" type="line"/>
      <point x="188.36363636363637" y="285.09090909090907" type="line"/>
      <point x="188.36363636363637" y="508.6363636363636" type="line"/>
      <point x="306.27272727272725" y="508.6363636363636" type="line"/>
      <point x="306.27272727272725" y="308.8181818181818" type="line"/>
      <point x="185.8181818181818" y="308.8181818181818" type="line" smooth="yes"/>
      <point x="102.90909090909092" y="308.8181818181818"/>
      <point x="52.45454545454546" y="241.9090909090909"/>
      <point x="52.45454545454546" y="153.8181818181818" type="curve" smooth="yes"/>
      <point x="52.45454545454546" y="61.63636363636365"/>
      <point x="105.36363636363636" y="-4.0"/>
    </contour>
    <contour>
      <point x="197.0909090909091" y="36.27272727272727" type="curve" smooth="yes"/>
      <point x="133.1818181818182" y="36.27272727272727"/>
      <point x="97.72727272727273" y="80.72727272727273"/>
      <point x="97.72727272727273" y="153.63636363636363" type="curve" smooth="yes"/>
      <point x="97.72727272727273" y="216.1818181818182"/>
      <point x="124.99999999999999" y="268.45454545454544"/>
      <point x="191.45454545454544" y="268.45454545454544" type="curve" smooth="yes"/>
      <point x="306.27272727272725" y="268.45454545454544" type="line"/>
      <point x="306.27272727272725" y="179.45454545454547" type="line" smooth="yes"/>
      <point x="306.27272727272725" y="79.18181818181819"/>
      <point x="258.0" y="36.27272727272727"/>
    </contour>
  </outline>
</glyph>
<glyph name="nga-tamil" format="2">
  <advance width="760.6363636363637"/>
  <unicode hex="0B99"/>
  <note>
uni0B99
</note>
  <anchor x="381.8181818181818" y="0.0" name="bottom"/>
  <anchor x="423.09090909090907" y="548.5454545454545" name="imatra"/>
  <anchor x="381.8181818181818" y="0.0" name="nukta"/>
  <anchor x="381.7272727272727" y="548.5454545454545" name="top"/>
  <anchor x="380.90909090909093" y="548.5454545454545" name="vedic"/>
  <outline>
    <contour>
      <point x="84.0909090909091" y="0.0" type="line"/>
      <point x="128.0909090909091" y="0.0" type="line"/>
      <point x="128.0909090909091" y="508.6363636363636" type="line"/>
      <point x="254.63636363636365" y="508.6363636363636" type="line"/>
      <point x="254.63636363636365" y="192.36363636363637" type="line"/>
      <point x="314.72727272727275" y="192.36363636363637" type="line"/>
      <point x="314.72727272727275" y="227.27272727272728" type="line" smooth="yes"/>
      <point x="314.72727272727275" y="275.4545454545455"/>
      <point x="338.1818181818182" y="321.6363636363636"/>
      <point x="383.6363636363636" y="321.6363636363636" type="curve" smooth="yes"/>
      <point x="425.9090909090909" y="321.6363636363636"/>
      <point x="451.7272727272727" y="283.3636363636363"/>
      <point x="451.7272727272727" y="209.0909090909091" type="curve" smooth="yes"/>
      <point x="451.7272727272727" y="86.63636363636364"/>
      <point x="375.54545454545456" y="39.90909090909091"/>
      <point x="321.3636363636364" y="39.90909090909091" type="curve" smooth="yes"/>
      <point x="254.63636363636365" y="39.90909090909091" type="line"/>
      <point x="254.63636363636365" y="0.0" type="line"/>
      <point x="676.4545454545454" y="0.0" type="line"/>
      <point x="676.4545454545454" y="548.5454545454545" type="line"/>
      <point x="614.0909090909091" y="548.5454545454545" type="line"/>
      <point x="614.0909090909091" y="39.90909090909091" type="line"/>
      <point x="407.6363636363637" y="39.90909090909091" type="line"/>
      <point x="460.6363636363637" y="64.45454545454547"/>
      <point x="512.2727272727273" y="118.9090909090909"/>
      <point x="512.2727272727273" y="220.54545454545453" type="curve" smooth="yes"/>
      <point x="512.2727272727273" y="311.2727272727273"/>
      <point x="471.2727272727272" y="368.09090909090907"/>
      <point x="404.6363636363636" y="368.09090909090907" type="curve" smooth="yes"/>
      <point x="355.0909090909091" y="368.09090909090907"/>
      <point x="326.27272727272725" y="337.09090909090907"/>
      <point x="315.8181818181818" y="309.0" type="curve"/>
      <point x="315.8181818181818" y="508.6363636363636" type="line"/>
      <point x="446.1818181818182" y="508.6363636363636" type="line"/>
      <point x="446.1818181818182" y="548.5454545454545" type="line"/>
      <point x="84.0909090909091" y="548.5454545454545" type="line"/>
    </contour>
  </outline>
</glyph>
<glyph name="ca-tamil" format="2">
  <advance width="526.909090909091"/>
  <unicode hex="0B9A"/>
  <note>
uni0B9A
</note>
  <anchor x="280.7272727272727" y="0.0" name="bottom"/>
  <anchor x="428.1818181818182" y="548.5454545454545" name="imatra"/>
  <anchor x="280.1818181818182" y="0.0" name="nukta"/>
  <anchor x="324.27272727272725" y="548.5454545454545" name="top"/>
  <anchor x="298.1818181818182" y="548.5454545454545" name="vedic"/>
  <outline>
    <contour>
      <point x="202.0" y="-4.0" type="curve" smooth="yes"/>
      <point x="306.6363636363636" y="-4.0"/>
      <point x="368.09090909090907" y="61.54545454545454"/>
      <point x="368.09090909090907" y="187.27272727272728" type="curve" smooth="yes"/>
      <point x="368.09090909090907" y="268.45454545454544" type="line"/>
      <point x="490.8181818181818" y="268.45454545454544" type="line"/>
      <point x="490.8181818181818" y="308.8181818181818" type="line"/>
      <point x="368.09090909090907" y="308.8181818181818" type="line"/>
      <point x="368.09090909090907" y="508.6363636363636" type="line"/>
      <point x="490.8181818181818" y="508.6363636363636" type="line"/>
      <point x="490.8181818181818" y="548.5454545454545" type="line"/>
      <point x="146.54545454545456" y="548.5454545454545" type="line"/>
      <point x="146.54545454545456" y="285.0909090909091" type="line"/>
      <point x="188.36363636363637" y="285.0909090909091" type="line"/>
      <point x="188.36363636363637" y="508.6363636363636" type="line"/>
      <point x="306.27272727272725" y="508.6363636363636" type="line"/>
      <point x="306.27272727272725" y="308.8181818181818" type="line"/>
      <point x="188.0909090909091" y="308.8181818181818" type="line" smooth="yes"/>
      <point x="100.63636363636364" y="308.8181818181818"/>
      <point x="52.45454545454546" y="240.0909090909091"/>
      <point x="52.45454545454546" y="153.8181818181818" type="curve" smooth="yes"/>
      <point x="52.45454545454546" y="61.63636363636365"/>
      <point x="105.36363636363636" y="-4.0"/>
    </contour>
    <contour>
      <point x="197.0909090909091" y="36.27272727272727" type="curve" smooth="yes"/>
      <point x="133.1818181818182" y="36.27272727272727"/>
      <point x="97.72727272727272" y="80.72727272727272"/>
      <point x="97.72727272727272" y="153.63636363636363" type="curve" smooth="yes"/>
      <point x="97.72727272727272" y="216.1818181818182"/>
      <point x="123.63636363636365" y="268.45454545454544"/>
      <point x="193.72727272727272" y="268.45454545454544" type="curve" smooth="yes"/>
      <point x="306.27272727272725" y="268.45454545454544" type="line"/>
      <point x="306.27272727272725" y="179.45454545454547" type="line" smooth="yes"/>
      <point x="306.27272727272725" y="79.18181818181819"/>
      <point x="258.0" y="36.27272727272727"/>
    </contour>
  </outline>
</glyph>
<glyph name="nya-tamil" format="2">
  <advance width="942.090909090909"/>
  <unicode hex="0B9E"/>
  <note>
uni0B9E
</note>
  <anchor x="502.5454545454546" y="0.0" name="bottom"/>
  <anchor x="751.7272727272727" y="548.5454545454545" name="imatra"/>
  <anchor x="496.6363636363637" y="-279.45454545454544" name="nukta"/>
  <anchor x="519.5454545454546" y="548.5454545454545" name="top"/>
  <anchor x="489.0909090909091" y="548.5454545454545" name="vedic"/>
  <outline>
    <contour>
      <point x="495.72727272727275" y="-279.45454545454544" type="curve" smooth="yes"/>
      <point x="717.9090909090909" y="-279.45454545454544"/>
      <point x="900.4545454545455" y="-136.54545454545453"/>
      <point x="900.4545454545455" y="126.18181818181817" type="curve" smooth="yes"/>
      <point x="900.4545454545455" y="268.90909090909093"/>
      <point x="849.0" y="337.27272727272725"/>
      <point x="769.090909090909" y="337.27272727272725" type="curve" smooth="yes"/>
      <point x="699.8181818181818" y="337.27272727272725"/>
      <point x="656.909090909091" y="276.0"/>
      <point x="656.909090909091" y="179.0909090909091" type="curve" smooth="yes"/>
      <point x="656.909090909091" y="147.54545454545453" type="line"/>
      <point x="675.9090909090909" y="147.54545454545453" type="line"/>
      <point x="675.9090909090909" y="178.0" type="line" smooth="yes"/>
      <point x="675.9090909090909" y="237.8181818181818"/>
      <point x="703.909090909091" y="292.0"/>
      <point x="750.4545454545455" y="292.0" type="curve" smooth="yes"/>
      <point x="805.7272727272726" y="292.0"/>
      <point x="837.1818181818182" y="244.27272727272725"/>
      <point x="837.1818181818182" y="122.81818181818181" type="curve" smooth="yes"/>
      <point x="837.1818181818182" y="-118.54545454545455"/>
      <point x="676.7272727272726" y="-238.1818181818182"/>
      <point x="492.4545454545455" y="-238.1818181818182" type="curve" smooth="yes"/>
      <point x="268.45454545454544" y="-238.1818181818182"/>
      <point x="94.63636363636364" y="-62.36363636363636"/>
      <point x="94.63636363636364" y="221.0909090909091" type="curve" smooth="yes"/>
      <point x="94.63636363636364" y="387.27272727272725"/>
      <point x="132.0" y="494.3636363636363"/>
      <point x="227.00000000000003" y="618.3636363636364" type="curve"/>
      <point x="195.36363636363635" y="644.6363636363636" type="line"/>
      <point x="95.18181818181819" y="517.2727272727273"/>
      <point x="53.54545454545454" y="393.6363636363637"/>
      <point x="53.54545454545454" y="219.27272727272728" type="curve" smooth="yes"/>
      <point x="53.54545454545454" y="-65.9090909090909"/>
      <point x="230.27272727272728" y="-279.45454545454544"/>
    </contour>
    <component base="e-tamil" xOffset="149.54545454545453"/>
  </outline>
</glyph>
<glyph name="tta-tamil" format="2">
  <advance width="662.6363636363636"/>
  <unicode hex="0B9F"/>
  <note>
uni0B9F
</note>
  <anchor x="357.27272727272725" y="0.0" name="bottom"/>
  <anchor x="357.27272727272725" y="0.0" name="nukta"/>
  <anchor x="366.45454545454544" y="548.5454545454545" name="top"/>
  <anchor x="363.0" y="548.5454545454545" name="vedic"/>
  <outline>
    <contour>
      <point x="84.0909090909091" y="0.0" type="line"/>
      <point x="642.8181818181818" y="0.0" type="line"/>
      <point x="642.8181818181818" y="39.90909090909091" type="line"/>
      <point x="146.36363636363635" y="39.90909090909091" type="line"/>
      <point x="146.36363636363635" y="548.5454545454545" type="line"/>
      <point x="84.0909090909091" y="548.5454545454545" type="line"/>
    </contour>
  </outline>
</glyph>
<glyph name="na-tamil" format="2">
  <advance width="586.3636363636364"/>
  <unicode hex="0BA8"/>
  <note>
uni0BA8
</note>
  <anchor x="291.9090909090909" y="0.0" name="bottom"/>
  <anchor x="418.09090909090907" y="548.5454545454545" name="imatra"/>
  <anchor x="315.3636363636364" y="-167.36363636363637" name="nukta"/>
  <anchor x="300.90909090909093" y="548.5454545454545" name="top"/>
  <anchor x="304.09090909090907" y="548.5454545454545" name="vedic"/>
  <outline>
    <contour>
      <point x="129.00000000000003" y="-219.0" type="curve"/>
      <point x="129.00000000000003" y="-165.0"/>
      <point x="144.0" y="-127.1818181818182"/>
      <point x="204.9090909090909" y="-127.1818181818182" type="curve" smooth="yes"/>
      <point x="288.6363636363637" y="-127.1818181818182" type="line" smooth="yes"/>
      <point x="439.8181818181818" y="-127.1818181818182"/>
      <point x="544.7272727272727" y="-56.09090909090909"/>
      <point x="544.7272727272727" y="145.72727272727272" type="curve" smooth="yes"/>
      <point x="544.7272727272727" y="271.8181818181818"/>
      <point x="495.1818181818182" y="337.27272727272725"/>
      <point x="423.09090909090907" y="337.27272727272725" type="curve" smooth="yes"/>
      <point x="366.8181818181818" y="337.27272727272725"/>
      <point x="341.3636363636364" y="300.2727272727273"/>
      <point x="329.8181818181818" y="273.0909090909091" type="curve"/>
      <point x="329.8181818181818" y="508.6363636363636" type="line"/>
      <point x="463.63636363636357" y="508.6363636363636" type="line"/>
      <point x="463.63636363636357" y="548.5454545454545" type="line"/>
      <point x="85.9090909090909" y="548.5454545454545" type="line"/>
      <point x="85.9090909090909" y="0.0" type="line"/>
      <point x="127.72727272727272" y="0.0" type="line"/>
      <point x="127.72727272727272" y="508.6363636363636" type="line"/>
      <point x="268.0" y="508.6363636363636" type="line"/>
      <point x="268.0" y="0.0" type="line"/>
      <point x="329.8181818181818" y="0.0" type="line"/>
      <point x="329.8181818181818" y="189.72727272727272" type="line" smooth="yes"/>
      <point x="329.8181818181818" y="236.1818181818182"/>
      <point x="353.3636363636363" y="289.8181818181818"/>
      <point x="401.3636363636363" y="289.8181818181818" type="curve" smooth="yes"/>
      <point x="447.7272727272727" y="289.8181818181818"/>
      <point x="480.4545454545455" y="246.72727272727272"/>
      <point x="480.4545454545455" y="140.1818181818182" type="curve" smooth="yes"/>
      <point x="480.4545454545455" y="-33.18181818181818"/>
      <point x="411.81818181818176" y="-89.72727272727272"/>
      <point x="280.45454545454544" y="-89.72727272727272" type="curve" smooth="yes"/>
      <point x="174.0" y="-89.72727272727272" type="line" smooth="yes"/>
      <point x="117.27272727272728" y="-89.72727272727272"/>
      <point x="69.18181818181819" y="-109.36363636363636"/>
      <point x="69.18181818181819" y="-162.63636363636363" type="curve" smooth="yes"/>
      <point x="69.18181818181819" y="-198.1818181818182"/>
      <point x="91.90909090909092" y="-219.0"/>
    </contour>
  </outline>
</glyph>
<glyph name="nnna-tamil" format="2">
  <advance width="963.3636363636364"/>
  <unicode hex="0BA9"/>
  <note>
uni0BA9
</note>
  <anchor x="486.63636363636357" y="0.0" name="bottom"/>
  <anchor x="849.5454545454546" y="548.5454545454545" name="imatra"/>
  <anchor x="487.0909090909091" y="0.0" name="nukta"/>
  <anchor x="505.5454545454546" y="548.5454545454545" name="top"/>
  <anchor x="499.90909090909093" y="548.5454545454545" name="vedic"/>
  <outline>
    <contour>
      <point x="199.45454545454547" y="-4.545454545454546" type="curve" smooth="yes"/>
      <point x="279.3636363636364" y="-4.545454545454546"/>
      <point x="330.54545454545456" y="52.909090909090914"/>
      <point x="330.54545454545456" y="150.1818181818182" type="curve" smooth="yes"/>
      <point x="330.54545454545456" y="240.0"/>
      <point x="281.45454545454544" y="293.9090909090909"/>
      <point x="213.81818181818184" y="293.9090909090909" type="curve" smooth="yes"/>
      <point x="136.0" y="293.9090909090909"/>
      <point x="93.63636363636364" y="219.36363636363637"/>
      <point x="85.72727272727273" y="138.0" type="curve"/>
      <point x="105.09090909090911" y="109.27272727272727" type="line"/>
      <point x="113.63636363636363" y="182.72727272727275"/>
      <point x="145.72727272727272" y="246.0"/>
      <point x="197.81818181818184" y="246.0" type="curve" smooth="yes"/>
      <point x="245.63636363636363" y="246.0"/>
      <point x="271.3636363636364" y="202.27272727272728"/>
      <point x="271.3636363636364" y="145.0909090909091" type="curve" smooth="yes"/>
      <point x="271.3636363636364" y="78.72727272727273"/>
      <point x="243.36363636363637" y="36.27272727272727"/>
      <point x="191.81818181818184" y="36.27272727272727" type="curve" smooth="yes"/>
      <point x="128.0909090909091" y="36.27272727272727"/>
      <point x="90.63636363636364" y="109.63636363636363"/>
      <point x="90.63636363636364" y="239.54545454545456" type="curve" smooth="yes"/>
      <point x="90.63636363636364" y="408.90909090909093"/>
      <point x="178.8181818181818" y="515.0"/>
      <point x="314.3636363636364" y="515.0" type="curve" smooth="yes"/>
      <point x="478.45454545454544" y="515.0"/>
      <point x="582.4545454545454" y="383.54545454545456"/>
      <point x="582.4545454545454" y="178.54545454545453" type="curve" smooth="yes"/>
      <point x="582.4545454545454" y="78.9090909090909"/>
      <point x="549.5454545454545" y="36.27272727272727"/>
      <point x="503.09090909090907" y="36.27272727272727" type="curve" smooth="yes"/>
      <point x="457.6363636363637" y="36.27272727272727"/>
      <point x="431.54545454545456" y="81.45454545454547"/>
      <point x="431.54545454545456" y="176.54545454545456" type="curve" smooth="yes"/>
      <point x="431.54545454545456" y="363.09090909090907"/>
      <point x="514.3636363636364" y="508.6363636363636"/>
      <point x="678.8181818181819" y="508.6363636363636" type="curve" smooth="yes"/>
      <point x="939.4545454545455" y="508.6363636363636" type="line"/>
      <point x="939.4545454545455" y="548.5454545454545" type="line"/>
      <point x="681.2727272727273" y="548.5454545454545" type="line" smooth="yes"/>
      <point x="489.09090909090907" y="548.5454545454545"/>
      <point x="391.1818181818182" y="385.0"/>
      <point x="391.1818181818182" y="180.0909090909091" type="curve" smooth="yes"/>
      <point x="391.1818181818182" y="54.0909090909091"/>
      <point x="432.2727272727273" y="-5.0"/>
      <point x="509.99999999999994" y="-5.0" type="curve" smooth="yes"/>
      <point x="586.7272727272727" y="-5.0"/>
      <point x="644.2727272727273" y="56.909090909090914"/>
      <point x="644.2727272727273" y="179.0" type="curve" smooth="yes"/>
      <point x="644.2727272727273" y="401.90909090909093"/>
      <point x="519.9090909090909" y="555.3636363636364"/>
      <point x="319.3636363636363" y="555.3636363636364" type="curve" smooth="yes"/>
      <point x="155.8181818181818" y="555.3636363636364"/>
      <point x="49.45454545454545" y="433.1818181818182"/>
      <point x="49.45454545454545" y="241.0" type="curve" smooth="yes"/>
      <point x="49.45454545454545" y="87.99999999999999"/>
      <point x="107.9090909090909" y="-4.545454545454546"/>
    </contour>
    <contour>
      <point x="758.1818181818182" y="0.0" type="line"/>
      <point x="819.9090909090909" y="0.0" type="line"/>
      <point x="819.9090909090909" y="528.5454545454545" type="line"/>
      <point x="758.1818181818182" y="528.5454545454545" type="line"/>
    </contour>
  </outline>
</glyph>
<glyph name="pa-tamil" format="2">
  <advance width="666.8181818181819"/>
  <unicode hex="0BAA"/>
  <note>
uni0BAA
</note>
  <anchor x="334.8181818181818" y="0.0" name="bottom"/>
  <anchor x="576.7272727272727" y="548.5454545454545" name="imatra"/>
  <anchor x="334.8181818181818" y="0.0" name="nukta"/>
  <anchor x="335.5454545454545" y="548.5454545454545" name="top"/>
  <anchor x="334.8181818181818" y="548.5454545454545" name="vedic"/>
  <outline>
    <contour>
      <point x="84.0909090909091" y="0.0" type="line"/>
      <point x="582.6363636363637" y="0.0" type="line"/>
      <point x="582.6363636363637" y="548.5454545454545" type="line"/>
      <point x="520.909090909091" y="548.5454545454545" type="line"/>
      <point x="520.909090909091" y="39.90909090909091" type="line"/>
      <point x="146.36363636363635" y="39.90909090909091" type="line"/>
      <point x="146.36363636363635" y="548.5454545454545" type="line"/>
      <point x="84.0909090909091" y="548.5454545454545" type="line"/>
    </contour>
  </outline>
</glyph>
<glyph name="ma-tamil" format="2">
  <advance width="676.6363636363636"/>
  <unicode hex="0BAE"/>
  <note>
uni0BAE
</note>
  <anchor x="340.45454545454544" y="0.0" name="bottom"/>
  <anchor x="600.9090909090909" y="548.5454545454545" name="imatra"/>
  <anchor x="341.45454545454544" y="0.0" name="nukta"/>
  <anchor x="367.09090909090907" y="548.5454545454545" name="top"/>
  <anchor x="353.8181818181818" y="548.5454545454545" name="vedic"/>
  <outline>
    <contour>
      <point x="84.0909090909091" y="0.0" type="line"/>
      <point x="501.00000000000006" y="0.0" type="line" smooth="yes"/>
      <point x="593.3636363636363" y="0.0"/>
      <point x="625.6363636363637" y="68.27272727272728"/>
      <point x="625.6363636363637" y="224.0" type="curve" smooth="yes"/>
      <point x="625.6363636363637" y="428.54545454545456"/>
      <point x="557.2727272727273" y="555.3636363636364"/>
      <point x="442.81818181818187" y="555.3636363636364" type="curve" smooth="yes"/>
      <point x="359.9090909090909" y="555.3636363636364"/>
      <point x="333.8181818181818" y="493.90909090909093"/>
      <point x="333.8181818181818" y="400.3636363636363" type="curve" smooth="yes"/>
      <point x="333.8181818181818" y="39.90909090909091" type="line"/>
      <point x="146.36363636363635" y="39.90909090909091" type="line"/>
      <point x="146.36363636363635" y="548.5454545454545" type="line"/>
      <point x="84.0909090909091" y="548.5454545454545" type="line"/>
    </contour>
    <contour>
      <point x="396.0909090909091" y="39.90909090909091" type="line"/>
      <point x="396.0909090909091" y="400.9090909090909" type="line" smooth="yes"/>
      <point x="396.0909090909091" y="476.45454545454544"/>
      <point x="409.0909090909091" y="511.8181818181818"/>
      <point x="456.09090909090907" y="511.8181818181818" type="curve" smooth="yes"/>
      <point x="526.9090909090909" y="511.8181818181818"/>
      <point x="583.2727272727274" y="404.09090909090907"/>
      <point x="583.2727272727274" y="222.0" type="curve" smooth="yes"/>
      <point x="583.2727272727274" y="97.63636363636364"/>
      <point x="563.0" y="39.90909090909091"/>
      <point x="494.45454545454544" y="39.90909090909091" type="curve" smooth="yes"/>
    </contour>
  </outline>
</glyph>
<glyph name="ya-tamil" format="2">
  <advance width="719.0"/>
  <unicode hex="0BAF"/>
  <note>
uni0BAF
</note>
  <anchor x="365.6363636363637" y="0.0" name="bottom"/>
  <anchor x="628.7272727272726" y="548.5454545454545" name="imatra"/>
  <anchor x="367.2727272727273" y="0.0" name="nukta"/>
  <anchor x="373.8181818181818" y="548.5454545454545" name="top"/>
  <anchor x="361.8181818181818" y="548.5454545454545" name="vedic"/>
  <outline>
    <contour>
      <point x="187.54545454545453" y="-5.0" type="curve" smooth="yes"/>
      <point x="241.45454545454544" y="-5.0"/>
      <point x="271.2727272727273" y="28.27272727272727"/>
      <point x="284.0" y="58.0" type="curve"/>
      <point x="284.0" y="0.0" type="line"/>
      <point x="634.8181818181818" y="0.0" type="line"/>
      <point x="634.8181818181818" y="548.5454545454545" type="line"/>
      <point x="573.0" y="548.5454545454545" type="line"/>
      <point x="573.0" y="39.90909090909091" type="line"/>
      <point x="342.09090909090907" y="39.90909090909091" type="line"/>
      <point x="342.09090909090907" y="548.5454545454545" type="line"/>
      <point x="279.8181818181818" y="548.5454545454545" type="line"/>
      <point x="279.8181818181818" y="140.27272727272728" type="line" smooth="yes"/>
      <point x="279.8181818181818" y="79.81818181818181"/>
      <point x="249.72727272727275" y="40.09090909090909"/>
      <point x="206.8181818181818" y="40.09090909090909" type="curve" smooth="yes"/>
      <point x="169.36363636363637" y="40.09090909090909"/>
      <point x="143.9090909090909" y="66.81818181818183"/>
      <point x="143.9090909090909" y="132.1818181818182" type="curve" smooth="yes"/>
      <point x="143.9090909090909" y="548.5454545454545" type="line"/>
      <point x="82.0909090909091" y="548.5454545454545" type="line"/>
      <point x="82.0909090909091" y="138.9090909090909" type="line" smooth="yes"/>
      <point x="82.0909090909091" y="38.81818181818182"/>
      <point x="123.9090909090909" y="-5.0"/>
    </contour>
  </outline>
</glyph>
<glyph name="ra-tamil" format="2">
  <advance width="502.99999999999994"/>
  <unicode hex="0BB0"/>
  <note>
uni0BB0
</note>
  <anchor x="256.6363636363636" y="0.0" name="bottom"/>
  <anchor x="422.7272727272727" y="548.5454545454545" name="imatra"/>
  <anchor x="255.72727272727272" y="-183.54545454545456" name="nukta"/>
  <anchor x="271.2727272727273" y="548.5454545454545" name="top"/>
  <anchor x="278.6363636363636" y="548.5454545454545" name="vedic"/>
  <outline>
    <contour>
      <point x="187.63636363636363" y="-199.90909090909093" type="line"/>
      <point x="348.27272727272725" y="13.181818181818183" type="line"/>
      <point x="348.27272727272725" y="508.6363636363636" type="line"/>
      <point x="479.09090909090907" y="508.6363636363636" type="line"/>
      <point x="479.09090909090907" y="548.5454545454545" type="line"/>
      <point x="84.0909090909091" y="548.5454545454545" type="line"/>
      <point x="84.0909090909091" y="0.0" type="line"/>
      <point x="127.00000000000001" y="0.0" type="line"/>
      <point x="127.00000000000001" y="508.6363636363636" type="line"/>
      <point x="286.45454545454544" y="508.6363636363636" type="line"/>
      <point x="286.45454545454544" y="2.8181818181818183" type="line"/>
      <point x="154.1818181818182" y="-174.0" type="line"/>
    </contour>
  </outline>
</glyph>
<glyph name="rra-tamil" format="2">
  <advance width="651.1818181818182"/>
  <unicode hex="0BB1"/>
  <note>
uni0BB1
</note>
  <anchor x="326.6363636363636" y="0.0" name="bottom"/>
  <anchor x="329.09090909090907" y="-168.0909090909091" name="nukta"/>
  <anchor x="319.3636363636364" y="548.5454545454545" name="top"/>
  <anchor x="338.45454545454544" y="548.5454545454545" name="vedic"/>
  <outline>
    <contour>
      <point x="138.72727272727275" y="-211.27272727272728" type="curve"/>
      <point x="138.72727272727275" y="-157.8181818181818"/>
      <point x="153.81818181818184" y="-118.54545454545455"/>
      <point x="214.1818181818182" y="-118.54545454545455" type="curve" smooth="yes"/>
      <point x="314.9090909090909" y="-118.54545454545455" type="line" smooth="yes"/>
      <point x="491.1818181818182" y="-118.54545454545455"/>
      <point x="599.5454545454545" y="-25.272727272727273"/>
      <point x="599.5454545454545" y="255.0909090909091" type="curve" smooth="yes"/>
      <point x="599.5454545454545" y="440.27272727272725"/>
      <point x="545.1818181818181" y="555.3636363636364"/>
      <point x="419.0909090909091" y="555.3636363636364" type="curve" smooth="yes"/>
      <point x="348.72727272727275" y="555.3636363636364"/>
      <point x="315.18181818181813" y="515.8181818181819"/>
      <point x="299.45454545454544" y="479.27272727272725" type="curve"/>
      <point x="286.7272727272727" y="516.6363636363636"/>
      <point x="257.6363636363636" y="554.8181818181819"/>
      <point x="196.27272727272728" y="554.8181818181819" type="curve" smooth="yes"/>
      <point x="130.81818181818184" y="554.8181818181819"/>
      <point x="87.18181818181819" y="507.8181818181818"/>
      <point x="87.18181818181819" y="417.27272727272725" type="curve" smooth="yes"/>
      <point x="87.18181818181819" y="0.0" type="line"/>
      <point x="129.0" y="0.0" type="line"/>
      <point x="129.0" y="419.0" type="line" smooth="yes"/>
      <point x="129.0" y="482.9090909090909"/>
      <point x="151.8181818181818" y="514.4545454545455"/>
      <point x="196.8181818181818" y="514.4545454545455" type="curve" smooth="yes"/>
      <point x="240.54545454545456" y="514.4545454545455"/>
      <point x="267.09090909090907" y="481.45454545454544"/>
      <point x="267.09090909090907" y="416.0909090909091" type="curve" smooth="yes"/>
      <point x="267.09090909090907" y="0.0" type="line"/>
      <point x="329.3636363636364" y="0.0" type="line"/>
      <point x="329.3636363636364" y="415.0909090909091" type="line" smooth="yes"/>
      <point x="329.3636363636364" y="478.27272727272725"/>
      <point x="366.7272727272727" y="515.0"/>
      <point x="413.7272727272728" y="515.0" type="curve" smooth="yes"/>
      <point x="486.09090909090907" y="515.0"/>
      <point x="535.1818181818181" y="456.3636363636364"/>
      <point x="535.1818181818181" y="258.27272727272725" type="curve" smooth="yes"/>
      <point x="535.1818181818181" y="-1.2727272727272732"/>
      <point x="447.2727272727273" y="-81.54545454545453"/>
      <point x="309.72727272727275" y="-81.54545454545453" type="curve" smooth="yes"/>
      <point x="183.8181818181818" y="-81.54545454545453" type="line" smooth="yes"/>
      <point x="127.0" y="-81.54545454545453"/>
      <point x="78.45454545454545" y="-102.72727272727272"/>
      <point x="78.45454545454545" y="-154.9090909090909" type="curve" smooth="yes"/>
      <point x="78.45454545454545" y="-192.0909090909091"/>
      <point x="102.72727272727273" y="-211.27272727272728"/>
    </contour>
  </outline>
</glyph>
<glyph name="la-tamil" format="2">
  <advance width="778.1818181818181"/>
  <unicode hex="0BB2"/>
  <note>
uni0BB2
</note>
  <anchor x="393.8181818181818" y="0.0" name="bottom"/>
  <anchor x="393.8181818181818" y="0.0" name="nukta"/>
  <anchor x="407.90909090909093" y="548.5454545454545" name="top"/>
  <anchor x="389.1818181818182" y="548.5454545454545" name="vedic"/>
  <outline>
    <contour>
      <point x="201.45454545454547" y="-4.545454545454546" type="curve" smooth="yes"/>
      <point x="281.8181818181818" y="-4.545454545454546"/>
      <point x="331.54545454545456" y="54.27272727272727"/>
      <point x="331.54545454545456" y="149.27272727272728" type="curve" smooth="yes"/>
      <point x="331.54545454545456" y="239.54545454545453"/>
      <point x="283.3636363636364" y="293.9090909090909"/>
      <point x="214.45454545454544" y="293.9090909090909" type="curve" smooth="yes"/>
      <point x="134.27272727272728" y="293.9090909090909"/>
      <point x="93.18181818181819" y="216.1818181818182"/>
      <point x="85.72727272727273" y="138.0" type="curve"/>
      <point x="105.09090909090911" y="109.27272727272727" type="line"/>
      <point x="113.63636363636363" y="182.72727272727275"/>
      <point x="146.27272727272725" y="246.0"/>
      <point x="198.9090909090909" y="246.0" type="curve" smooth="yes"/>
      <point x="247.63636363636363" y="246.0"/>
      <point x="272.90909090909093" y="201.36363636363637"/>
      <point x="272.90909090909093" y="144.1818181818182" type="curve" smooth="yes"/>
      <point x="272.90909090909093" y="77.81818181818181"/>
      <point x="243.45454545454544" y="36.27272727272727"/>
      <point x="192.8181818181818" y="36.27272727272727" type="curve" smooth="yes"/>
      <point x="130.54545454545456" y="36.27272727272727"/>
      <point x="90.63636363636364" y="106.0"/>
      <point x="90.63636363636364" y="240.45454545454547" type="curve" smooth="yes"/>
      <point x="90.63636363636364" y="399.54545454545456"/>
      <point x="148.36363636363637" y="515.0"/>
      <point x="273.6363636363636" y="515.0" type="curve" smooth="yes"/>
      <point x="370.45454545454544" y="515.0"/>
      <point x="423.9090909090909" y="448.45454545454544"/>
      <point x="423.9090909090909" y="332.27272727272725" type="curve" smooth="yes"/>
      <point x="423.9090909090909" y="152.0909090909091" type="line" smooth="yes"/>
      <point x="423.9090909090909" y="48.63636363636363"/>
      <point x="468.3636363636364" y="-1.8181818181818181"/>
      <point x="545.2727272727273" y="-1.8181818181818181" type="curve" smooth="yes"/>
      <point x="649.3636363636364" y="-1.8181818181818181"/>
      <point x="727.0909090909091" y="99.0909090909091"/>
      <point x="727.0909090909091" y="281.27272727272725" type="curve" smooth="yes"/>
      <point x="727.0909090909091" y="386.7272727272727"/>
      <point x="705.5454545454545" y="464.2727272727273"/>
      <point x="648.6363636363636" y="554.4545454545454" type="curve"/>
      <point x="612.0909090909091" y="532.0" type="line"/>
      <point x="660.0" y="457.8181818181818"/>
      <point x="685.4545454545455" y="382.6363636363636"/>
      <point x="685.4545454545455" y="286.72727272727275" type="curve" smooth="yes"/>
      <point x="685.4545454545455" y="125.18181818181819"/>
      <point x="625.5454545454545" y="41.27272727272727"/>
      <point x="556.0" y="41.27272727272727" type="curve" smooth="yes"/>
      <point x="506.1818181818182" y="41.27272727272727"/>
      <point x="486.18181818181813" y="77.18181818181817"/>
      <point x="486.18181818181813" y="151.0909090909091" type="curve" smooth="yes"/>
      <point x="486.18181818181813" y="332.3636363636363" type="line" smooth="yes"/>
      <point x="486.18181818181813" y="479.18181818181813"/>
      <point x="405.18181818181813" y="555.3636363636364"/>
      <point x="280.6363636363637" y="555.3636363636364" type="curve" smooth="yes"/>
      <point x="125.18181818181819" y="555.3636363636364"/>
      <point x="49.45454545454545" y="422.09090909090907"/>
      <point x="49.45454545454545" y="241.45454545454547" type="curve" smooth="yes"/>
      <point x="49.45454545454545" y="84.81818181818183"/>
      <point x="108.9090909090909" y="-4.545454545454546"/>
    </contour>
  </outline>
</glyph>
<glyph name="llla-tamil" format="2">
  <advance width="676.6363636363636"/>
  <unicode hex="0BB4"/>
  <note>
uni0BB4
</note>
  <anchor x="331.5454545454545" y="0.0" name="bottom"/>
  <anchor x="336.45454545454544" y="-263.72727272727275" name="nukta"/>
  <anchor x="374.90909090909093" y="548.5454545454545" name="top"/>
  <anchor x="355.3636363636364" y="548.5454545454545" name="vedic"/>
  <anchor x="600.9090909090909" y="548.5454545454545" name="imatra"/>
  <outline>
    <contour>
      <point x="233.72727272727275" y="-288.1818181818182" type="curve" smooth="yes"/>
      <point x="368.8181818181818" y="-288.1818181818182"/>
      <point x="407.0909090909091" y="-139.72727272727272"/>
      <point x="522.3636363636364" y="-139.72727272727272" type="curve" smooth="yes"/>
      <point x="565.090909090909" y="-139.72727272727272" type="line"/>
      <point x="565.090909090909" y="-100.36363636363636" type="line"/>
      <point x="511.7272727272727" y="-100.36363636363636" type="line" smooth="yes"/>
      <point x="444.18181818181813" y="-100.36363636363636"/>
      <point x="395.54545454545456" y="-49.272727272727266"/>
      <point x="395.54545454545456" y="10.454545454545455" type="curve" smooth="yes"/>
      <point x="395.54545454545456" y="73.72727272727272" type="line"/>
      <point x="334.3636363636364" y="73.72727272727272" type="line"/>
      <point x="334.3636363636364" y="10.454545454545455" type="line" smooth="yes"/>
      <point x="334.3636363636364" y="-50.18181818181819"/>
      <point x="385.7272727272727" y="-108.72727272727272"/>
      <point x="441.90909090909093" y="-117.36363636363637" type="curve"/>
      <point x="441.90909090909093" y="-121.81818181818183" type="line"/>
      <point x="345.0" y="-138.81818181818184"/>
      <point x="313.90909090909093" y="-243.8181818181818"/>
      <point x="222.9090909090909" y="-243.8181818181818" type="curve" smooth="yes"/>
      <point x="179.54545454545456" y="-243.8181818181818"/>
      <point x="148.90909090909093" y="-215.99999999999997"/>
      <point x="148.90909090909093" y="-172.36363636363635" type="curve" smooth="yes"/>
      <point x="148.90909090909093" y="-129.9090909090909"/>
      <point x="174.45454545454547" y="-99.54545454545455"/>
      <point x="212.81818181818178" y="-99.54545454545455" type="curve" smooth="yes"/>
      <point x="238.1818181818182" y="-99.54545454545455"/>
      <point x="257.8181818181818" y="-110.99999999999999"/>
      <point x="278.1818181818182" y="-133.72727272727272" type="curve"/>
      <point x="304.9090909090909" y="-105.27272727272728" type="line"/>
      <point x="274.27272727272725" y="-70.54545454545455"/>
      <point x="245.36363636363637" y="-60.81818181818181"/>
      <point x="211.36363636363635" y="-60.81818181818181" type="curve" smooth="yes"/>
      <point x="148.18181818181816" y="-60.81818181818181"/>
      <point x="108.0909090909091" y="-109.72727272727272"/>
      <point x="108.0909090909091" y="-170.27272727272725" type="curve" smooth="yes"/>
      <point x="108.0909090909091" y="-242.8181818181818"/>
      <point x="158.0909090909091" y="-288.1818181818182"/>
    </contour>
    <component base="ma-tamil"/>
  </outline>
</glyph>
<glyph name="va-tamil" format="2">
  <advance width="851.090909090909"/>
  <unicode hex="0BB5"/>
  <note>
uni0BB5
</note>
  <anchor x="443.4545454545454" y="0.0" name="bottom"/>
  <anchor x="713.6363636363636" y="548.5454545454545" name="imatra"/>
  <anchor x="443.4545454545454" y="0.0" name="nukta"/>
  <anchor x="427.54545454545456" y="548.5454545454545" name="top"/>
  <anchor x="413.36363636363643" y="548.5454545454545" name="vedic"/>
  <outline>
    <contour>
      <point x="200.54545454545456" y="-4.545454545454546" type="curve" smooth="yes"/>
      <point x="280.4545454545455" y="-4.545454545454546"/>
      <point x="331.0909090909091" y="52.90909090909091"/>
      <point x="331.0909090909091" y="150.1818181818182" type="curve" smooth="yes"/>
      <point x="331.0909090909091" y="240.0"/>
      <point x="282.0" y="293.9090909090909"/>
      <point x="214.90909090909088" y="293.9090909090909" type="curve" smooth="yes"/>
      <point x="136.54545454545456" y="293.9090909090909"/>
      <point x="93.63636363636364" y="219.36363636363637"/>
      <point x="85.72727272727273" y="138.0" type="curve"/>
      <point x="105.09090909090911" y="109.27272727272727" type="line"/>
      <point x="113.63636363636363" y="182.72727272727275"/>
      <point x="146.27272727272725" y="246.0"/>
      <point x="198.9090909090909" y="246.0" type="curve" smooth="yes"/>
      <point x="246.72727272727272" y="246.0"/>
      <point x="272.45454545454544" y="202.27272727272728"/>
      <point x="272.45454545454544" y="145.0909090909091" type="curve" smooth="yes"/>
      <point x="272.45454545454544" y="78.72727272727272"/>
      <point x="243.90909090909088" y="36.27272727272727"/>
      <point x="192.36363636363635" y="36.27272727272727" type="curve" smooth="yes"/>
      <point x="129.1818181818182" y="36.27272727272727"/>
      <point x="90.63636363636364" y="109.63636363636364"/>
      <point x="90.63636363636364" y="239.54545454545456" type="curve" smooth="yes"/>
      <point x="90.63636363636364" y="404.54545454545456"/>
      <point x="162.36363636363635" y="515.0"/>
      <point x="288.09090909090907" y="515.0" type="curve" smooth="yes"/>
      <point x="405.45454545454544" y="515.0"/>
      <point x="486.72727272727275" y="417.4545454545455"/>
      <point x="486.72727272727275" y="260.1818181818182" type="curve" smooth="yes"/>
      <point x="486.72727272727275" y="151.8181818181818"/>
      <point x="453.5454545454545" y="83.36363636363637"/>
      <point x="419.45454545454544" y="30.454545454545457" type="curve"/>
      <point x="433.4545454545455" y="0.0" type="line"/>
      <point x="766.909090909091" y="0.0" type="line"/>
      <point x="766.909090909091" y="548.5454545454545" type="line"/>
      <point x="704.6363636363636" y="548.5454545454545" type="line"/>
      <point x="704.6363636363636" y="39.90909090909091" type="line"/>
      <point x="473.72727272727275" y="39.90909090909091" type="line"/>
      <point x="511.3636363636364" y="94.0"/>
      <point x="546.8181818181818" y="162.9090909090909"/>
      <point x="546.8181818181818" y="264.6363636363636" type="curve" smooth="yes"/>
      <point x="546.8181818181818" y="445.27272727272725"/>
      <point x="445.0" y="555.3636363636364"/>
      <point x="297.54545454545456" y="555.3636363636364" type="curve" smooth="yes"/>
      <point x="139.9090909090909" y="555.3636363636364"/>
      <point x="49.45454545454545" y="425.5454545454545"/>
      <point x="49.45454545454545" y="241.0" type="curve" smooth="yes"/>
      <point x="49.45454545454545" y="88.0"/>
      <point x="108.45454545454545" y="-4.545454545454546"/>
    </contour>
  </outline>
</glyph>
<glyph name="sha-tamil" format="2">
  <advance width="838.1818181818181"/>
  <unicode hex="0BB6"/>
  <note>
uni0BB6
</note>
  <anchor x="429.5454545454545" y="0.0" name="bottom"/>
  <anchor x="648.5454545454546" y="548.5454545454545" name="imatra"/>
  <anchor x="429.5454545454545" y="0.0" name="nukta"/>
  <anchor x="431.00000000000006" y="548.5454545454545" name="top"/>
  <anchor x="434.36363636363643" y="548.5454545454545" name="vedic"/>
  <outline>
    <contour>
      <point x="223.72727272727275" y="-6.818181818181818" type="curve" smooth="yes"/>
      <point x="311.0" y="-6.818181818181818"/>
      <point x="376.3636363636363" y="39.63636363636363"/>
      <point x="376.3636363636363" y="174.9090909090909" type="curve" smooth="yes"/>
      <point x="376.3636363636363" y="508.6363636363636" type="line"/>
      <point x="487.99999999999994" y="508.6363636363636" type="line"/>
      <point x="487.99999999999994" y="145.0909090909091" type="line" smooth="yes"/>
      <point x="487.99999999999994" y="45.0"/>
      <point x="524.3636363636364" y="-6.818181818181818"/>
      <point x="599.2727272727273" y="-6.818181818181818" type="curve" smooth="yes"/>
      <point x="719.3636363636364" y="-6.818181818181818"/>
      <point x="787.1818181818181" y="131.0909090909091"/>
      <point x="787.1818181818181" y="327.1818181818182" type="curve" smooth="yes"/>
      <point x="787.1818181818181" y="483.3636363636363"/>
      <point x="752.0" y="548.5454545454545"/>
      <point x="667.6363636363636" y="548.5454545454545" type="curve" smooth="yes"/>
      <point x="334.0" y="548.5454545454545" type="line"/>
      <point x="334.0" y="176.0" type="line" smooth="yes"/>
      <point x="334.0" y="64.36363636363637"/>
      <point x="288.8181818181818" y="36.27272727272727"/>
      <point x="234.99999999999997" y="36.27272727272727" type="curve" smooth="yes"/>
      <point x="182.0909090909091" y="36.27272727272727"/>
      <point x="144.90909090909093" y="66.81818181818183"/>
      <point x="144.90909090909093" y="166.0909090909091" type="curve" smooth="yes"/>
      <point x="144.90909090909093" y="548.5454545454545" type="line"/>
      <point x="82.0909090909091" y="548.5454545454545" type="line"/>
      <point x="82.0909090909091" y="166.09090909090907" type="line" smooth="yes"/>
      <point x="82.0909090909091" y="40.63636363636364"/>
      <point x="139.63636363636365" y="-6.818181818181818"/>
    </contour>
    <contour>
      <point x="615.4545454545455" y="36.27272727272727" type="curve" smooth="yes"/>
      <point x="570.6363636363636" y="36.27272727272727"/>
      <point x="550.2727272727273" y="64.81818181818183"/>
      <point x="550.2727272727273" y="145.1818181818182" type="curve" smooth="yes"/>
      <point x="550.2727272727273" y="508.6363636363636" type="line"/>
      <point x="660.8181818181818" y="508.6363636363636" type="line" smooth="yes"/>
      <point x="726.3636363636364" y="508.6363636363636"/>
      <point x="746.0" y="449.0909090909091"/>
      <point x="746.0" y="329.1818181818182" type="curve" smooth="yes"/>
      <point x="746.0" y="149.0"/>
      <point x="688.0" y="36.27272727272727"/>
    </contour>
  </outline>
</glyph>
<glyph name="ssa-tamil" format="2">
  <advance width="1052.1818181818182"/>
  <unicode hex="0BB7"/>
  <note>
uni0BB7
</note>
  <anchor x="541.3636363636364" y="0.0" name="bottom"/>
  <anchor x="481.1818181818182" y="0.0" name="nukta"/>
  <anchor x="551.1818181818182" y="548.5454545454545" name="top"/>
  <anchor x="539.0" y="548.5454545454545" name="vedic"/>
  <outline>
    <contour>
      <point x="200.54545454545456" y="-4.545454545454546" type="curve" smooth="yes"/>
      <point x="280.4545454545455" y="-4.545454545454546"/>
      <point x="331.0909090909091" y="52.90909090909091"/>
      <point x="331.0909090909091" y="150.1818181818182" type="curve" smooth="yes"/>
      <point x="331.0909090909091" y="240.0"/>
      <point x="282.0" y="293.9090909090909"/>
      <point x="214.90909090909088" y="293.9090909090909" type="curve" smooth="yes"/>
      <point x="136.54545454545456" y="293.9090909090909"/>
      <point x="93.63636363636364" y="219.36363636363637"/>
      <point x="85.72727272727273" y="138.0" type="curve"/>
      <point x="105.09090909090911" y="109.27272727272727" type="line"/>
      <point x="113.63636363636363" y="182.72727272727275"/>
      <point x="146.27272727272725" y="246.0"/>
      <point x="198.9090909090909" y="246.0" type="curve" smooth="yes"/>
      <point x="246.72727272727272" y="246.0"/>
      <point x="272.45454545454544" y="202.27272727272728"/>
      <point x="272.45454545454544" y="145.0909090909091" type="curve" smooth="yes"/>
      <point x="272.45454545454544" y="78.72727272727272"/>
      <point x="243.90909090909088" y="36.27272727272727"/>
      <point x="192.36363636363635" y="36.27272727272727" type="curve" smooth="yes"/>
      <point x="129.1818181818182" y="36.27272727272727"/>
      <point x="90.63636363636364" y="109.63636363636364"/>
      <point x="90.63636363636364" y="239.54545454545456" type="curve" smooth="yes"/>
      <point x="90.63636363636364" y="404.54545454545456"/>
      <point x="161.27272727272725" y="515.0"/>
      <point x="288.09090909090907" y="515.0" type="curve" smooth="yes"/>
      <point x="405.45454545454544" y="515.0"/>
      <point x="486.72727272727275" y="417.4545454545455"/>
      <point x="486.72727272727275" y="260.1818181818182" type="curve" smooth="yes"/>
      <point x="486.72727272727275" y="151.8181818181818"/>
      <point x="453.5454545454545" y="83.36363636363637"/>
      <point x="419.45454545454544" y="30.454545454545457" type="curve"/>
      <point x="433.4545454545455" y="0.0" type="line"/>
      <point x="998.6363636363636" y="0.0" type="line"/>
      <point x="998.6363636363636" y="316.3636363636364" type="line"/>
      <point x="935.8181818181819" y="284.90909090909093" type="line"/>
      <point x="935.8181818181819" y="39.90909090909091" type="line"/>
      <point x="473.72727272727275" y="39.90909090909091" type="line"/>
      <point x="511.3636363636364" y="94.0"/>
      <point x="546.8181818181818" y="162.9090909090909"/>
      <point x="546.8181818181818" y="264.6363636363636" type="curve" smooth="yes"/>
      <point x="546.8181818181818" y="445.27272727272725"/>
      <point x="445.0" y="555.3636363636364"/>
      <point x="297.54545454545456" y="555.3636363636364" type="curve" smooth="yes"/>
      <point x="138.8181818181818" y="555.3636363636364"/>
      <point x="49.45454545454545" y="425.5454545454545"/>
      <point x="49.45454545454545" y="241.0" type="curve" smooth="yes"/>
      <point x="49.45454545454545" y="88.0"/>
      <point x="108.45454545454545" y="-4.545454545454546"/>
    </contour>
    <contour>
      <point x="758.909090909091" y="-237.1818181818182" type="line"/>
      <point x="820.1818181818182" y="-237.1818181818182" type="line"/>
      <point x="820.1818181818182" y="436.90909090909093" type="line" smooth="yes"/>
      <point x="820.1818181818182" y="515.0909090909091"/>
      <point x="782.0909090909091" y="555.3636363636364"/>
      <point x="722.5454545454545" y="555.3636363636364" type="curve" smooth="yes"/>
      <point x="656.2727272727274" y="555.3636363636364"/>
      <point x="613.0" y="499.3636363636363"/>
      <point x="613.0" y="412.72727272727275" type="curve" smooth="yes"/>
      <point x="613.0" y="287.0"/>
      <point x="675.3636363636364" y="220.45454545454547"/>
      <point x="780.3636363636364" y="220.45454545454547" type="curve" smooth="yes"/>
      <point x="861.5454545454546" y="220.45454545454547"/>
      <point x="925.5454545454545" y="249.99999999999997"/>
      <point x="998.6363636363636" y="311.72727272727275" type="curve"/>
      <point x="998.6363636363636" y="321.90909090909093" type="line"/>
      <point x="975.5454545454545" y="344.0" type="line"/>
      <point x="912.9999999999999" y="287.3636363636363"/>
      <point x="852.8181818181819" y="259.72727272727275"/>
      <point x="782.7272727272726" y="259.72727272727275" type="curve" smooth="yes"/>
      <point x="697.3636363636364" y="259.72727272727275"/>
      <point x="652.6363636363636" y="305.1818181818182"/>
      <point x="652.6363636363636" y="411.27272727272725" type="curve" smooth="yes"/>
      <point x="652.6363636363636" y="474.1818181818182"/>
      <point x="674.0" y="511.72727272727275"/>
      <point x="710.6363636363636" y="511.72727272727275" type="curve" smooth="yes"/>
      <point x="739.6363636363636" y="511.72727272727275"/>
      <point x="758.909090909091" y="491.45454545454544"/>
      <point x="758.909090909091" y="441.81818181818187" type="curve" smooth="yes"/>
    </contour>
  </outline>
</glyph>
<glyph name="sa-tamil" format="2">
  <advance width="1001.8181818181819"/>
  <unicode hex="0BB8"/>
  <note>
uni0BB8
</note>
  <anchor x="508.18181818181813" y="0.0" name="bottom"/>
  <anchor x="508.18181818181813" y="0.0" name="nukta"/>
  <anchor x="499.0909090909091" y="548.5454545454545" name="top"/>
  <anchor x="501.7272727272727" y="548.5454545454545" name="vedic"/>
  <outline>
    <contour>
      <point x="447.0" y="0.0" type="line"/>
      <point x="509.2727272727273" y="0.0" type="line"/>
      <point x="509.2727272727273" y="423.45454545454544" type="line" smooth="yes"/>
      <point x="509.2727272727273" y="483.3636363636364"/>
      <point x="535.0" y="514.4545454545455"/>
      <point x="580.0" y="514.4545454545455" type="curve" smooth="yes"/>
      <point x="623.8181818181819" y="514.4545454545455"/>
      <point x="647.5454545454545" y="483.6363636363637"/>
      <point x="647.5454545454545" y="428.0" type="curve" smooth="yes"/>
      <point x="647.5454545454545" y="152.0909090909091" type="line" smooth="yes"/>
      <point x="647.5454545454545" y="48.63636363636363"/>
      <point x="691.4545454545455" y="-1.8181818181818181"/>
      <point x="768.909090909091" y="-1.8181818181818181" type="curve" smooth="yes"/>
      <point x="872.9999999999999" y="-1.8181818181818181"/>
      <point x="950.7272727272726" y="99.0909090909091"/>
      <point x="950.7272727272726" y="281.27272727272725" type="curve" smooth="yes"/>
      <point x="950.7272727272726" y="386.72727272727275"/>
      <point x="929.6363636363636" y="463.3636363636363"/>
      <point x="872.2727272727274" y="553.5454545454545" type="curve"/>
      <point x="835.7272727272727" y="531.5454545454545" type="line"/>
      <point x="883.0909090909091" y="457.3636363636364"/>
      <point x="909.0909090909091" y="382.6363636363637"/>
      <point x="909.0909090909091" y="286.72727272727275" type="curve" smooth="yes"/>
      <point x="909.0909090909091" y="125.18181818181819"/>
      <point x="849.1818181818182" y="41.27272727272727"/>
      <point x="779.090909090909" y="41.27272727272727" type="curve" smooth="yes"/>
      <point x="729.2727272727273" y="41.27272727272727"/>
      <point x="709.2727272727273" y="77.18181818181817"/>
      <point x="709.2727272727273" y="151.0909090909091" type="curve" smooth="yes"/>
      <point x="709.2727272727273" y="418.45454545454544" type="line" smooth="yes"/>
      <point x="709.2727272727273" y="512.0"/>
      <point x="660.6363636363636" y="555.3636363636364"/>
      <point x="590.2727272727274" y="555.3636363636364" type="curve" smooth="yes"/>
      <point x="514.5454545454546" y="555.3636363636364"/>
      <point x="470.00000000000006" y="501.1818181818182"/>
      <point x="470.00000000000006" y="430.0" type="curve" smooth="yes"/>
      <point x="470.00000000000006" y="365.8181818181818" type="line"/>
      <point x="447.0" y="365.8181818181818" type="line"/>
    </contour>
    <contour>
      <point x="203.36363636363637" y="-4.545454545454546" type="curve" smooth="yes"/>
      <point x="283.72727272727275" y="-4.545454545454546"/>
      <point x="334.0" y="54.27272727272727"/>
      <point x="334.0" y="149.27272727272728" type="curve" smooth="yes"/>
      <point x="334.0" y="239.54545454545453"/>
      <point x="285.8181818181818" y="293.9090909090909"/>
      <point x="216.36363636363635" y="293.9090909090909" type="curve" smooth="yes"/>
      <point x="136.72727272727272" y="293.9090909090909"/>
      <point x="96.18181818181817" y="216.1818181818182"/>
      <point x="88.72727272727273" y="138.0" type="curve"/>
      <point x="108.0909090909091" y="109.27272727272727" type="line"/>
      <point x="117.18181818181819" y="182.72727272727275"/>
      <point x="148.72727272727272" y="246.0"/>
      <point x="200.8181818181818" y="246.0" type="curve" smooth="yes"/>
      <point x="249.54545454545456" y="246.0"/>
      <point x="274.8181818181818" y="201.36363636363637"/>
      <point x="274.8181818181818" y="144.1818181818182" type="curve" smooth="yes"/>
      <point x="274.8181818181818" y="77.81818181818181"/>
      <point x="245.90909090909093" y="36.27272727272727"/>
      <point x="195.27272727272725" y="36.27272727272727" type="curve" smooth="yes"/>
      <point x="132.0" y="36.27272727272727"/>
      <point x="93.18181818181819" y="106.0"/>
      <point x="93.18181818181819" y="240.45454545454544" type="curve" smooth="yes"/>
      <point x="93.18181818181819" y="394.6363636363636"/>
      <point x="152.45454545454547" y="515.0"/>
      <point x="281.5454545454545" y="515.0" type="curve" smooth="yes"/>
      <point x="369.90909090909093" y="515.0"/>
      <point x="447.0" y="461.81818181818187"/>
      <point x="447.0" y="318.45454545454544" type="curve"/>
      <point x="486.8181818181818" y="320.7272727272727" type="line"/>
      <point x="485.27272727272725" y="489.09090909090907"/>
      <point x="395.3636363636363" y="555.3636363636364"/>
      <point x="285.27272727272725" y="555.3636363636364" type="curve" smooth="yes"/>
      <point x="130.36363636363637" y="555.3636363636364"/>
      <point x="52.45454545454546" y="419.3636363636364"/>
      <point x="52.45454545454546" y="241.45454545454544" type="curve" smooth="yes"/>
      <point x="52.45454545454546" y="84.81818181818181"/>
      <point x="111.36363636363637" y="-4.545454545454546"/>
    </contour>
  </outline>
</glyph>
<glyph name="aaMatra-tamil" format="2">
  <advance width="512.6363636363636"/>
  <unicode hex="0BBE"/>
  <note>
uni0BBE
</note>
  <anchor x="271.5454545454545" y="0.0" name="bottom"/>
  <anchor x="271.0" y="0.0" name="nukta"/>
  <anchor x="265.0" y="548.5454545454545" name="top"/>
  <anchor x="265.0" y="548.5454545454545" name="vedic"/>
  <outline>
    <contour>
      <point x="84.0909090909091" y="0.0" type="line"/>
      <point x="127.00000000000001" y="0.0" type="line"/>
      <point x="127.00000000000001" y="508.6363636363636" type="line"/>
      <point x="296.09090909090907" y="508.6363636363636" type="line"/>
      <point x="296.09090909090907" y="0.0" type="line"/>
      <point x="358.3636363636364" y="0.0" type="line"/>
      <point x="358.3636363636364" y="508.6363636363636" type="line"/>
      <point x="488.72727272727275" y="508.6363636363636" type="line"/>
      <point x="488.72727272727275" y="548.5454545454545" type="line"/>
      <point x="84.0909090909091" y="548.5454545454545" type="line"/>
    </contour>
  </outline>
</glyph>
<glyph name="iMatra-tamil" format="2">
  <advance width="170.45454545454544"/>
  <unicode hex="0BBF"/>
  <note>
uni0BBF
</note>
  <anchor x="-103.45454545454545" y="799.5454545454545" name="top"/>
  <outline>
    <contour>
      <point x="52.18181818181818" y="0.0" type="line"/>
      <point x="94.45454545454545" y="0.0" type="line"/>
      <point x="94.45454545454545" y="562.4545454545455" type="line" smooth="yes"/>
      <point x="94.45454545454545" y="721.6363636363636"/>
      <point x="13.18181818181818" y="799.5454545454545"/>
      <point x="-103.45454545454545" y="799.5454545454545" type="curve" smooth="yes"/>
      <point x="-203.54545454545456" y="799.5454545454545"/>
      <point x="-264.8181818181818" y="728.2727272727273"/>
      <point x="-264.8181818181818" y="643.4545454545455" type="curve" smooth="yes"/>
      <point x="-264.8181818181818" y="556.7272727272727"/>
      <point x="-213.36363636363637" y="508.6363636363636"/>
      <point x="-137.27272727272728" y="508.6363636363636" type="curve" smooth="yes"/>
      <point x="-131.81818181818184" y="508.6363636363636" type="line"/>
      <point x="-131.81818181818184" y="548.5454545454545" type="line"/>
      <point x="-136.36363636363637" y="548.5454545454545" type="line" smooth="yes"/>
      <point x="-184.54545454545453" y="548.5454545454545"/>
      <point x="-219.90909090909093" y="578.6363636363636"/>
      <point x="-219.90909090909093" y="633.5454545454545" type="curve" smooth="yes"/>
      <point x="-219.90909090909093" y="692.3636363636364"/>
      <point x="-174.8181818181818" y="738.0"/>
      <point x="-105.54545454545455" y="738.0" type="curve" smooth="yes"/>
      <point x="-15.272727272727273" y="738.0"/>
      <point x="52.18181818181818" y="683.1818181818181"/>
      <point x="52.18181818181818" y="541.0909090909091" type="curve" smooth="yes"/>
    </contour>
  </outline>
</glyph>
<glyph name="iiMatra-tamil" format="2">
  <unicode hex="0BC0"/>
  <note>
uni0BC0
</note>
  <anchor x="0.0" y="548.5454545454545" name="_imatra"/>
  <anchor x="-1.0909090909090904" y="877.4545454545455" name="top"/>
  <outline>
    <contour>
      <point x="-16.63636363636364" y="512.2727272727273" type="curve" smooth="yes"/>
      <point x="0.0" y="512.2727272727273" type="line"/>
      <point x="0.0" y="548.5454545454545" type="line"/>
      <point x="-15.000000000000002" y="548.5454545454545" type="line" smooth="yes"/>
      <point x="-81.63636363636363" y="548.5454545454545"/>
      <point x="-117.54545454545455" y="600.8181818181819"/>
      <point x="-117.54545454545455" y="684.0" type="curve" smooth="yes"/>
      <point x="-117.54545454545455" y="771.8181818181819"/>
      <point x="-87.54545454545455" y="838.0"/>
      <point x="-4.272727272727273" y="838.0" type="curve" smooth="yes"/>
      <point x="53.90909090909091" y="838.0"/>
      <point x="91.90909090909092" y="797.4545454545455"/>
      <point x="91.90909090909092" y="730.4545454545455" type="curve" smooth="yes"/>
      <point x="91.90909090909092" y="679.8181818181819"/>
      <point x="69.54545454545455" y="651.0"/>
      <point x="33.36363636363636" y="651.0" type="curve" smooth="yes"/>
      <point x="-29.0" y="651.0"/>
      <point x="-40.81818181818182" y="753.2727272727273"/>
      <point x="-3.9090909090909087" y="852.8181818181819" type="curve"/>
      <point x="-36.81818181818182" y="856.8181818181819" type="line"/>
      <point x="-89.0909090909091" y="734.4545454545455"/>
      <point x="-59.99999999999999" y="611.0909090909091"/>
      <point x="39.27272727272727" y="611.0909090909091" type="curve" smooth="yes"/>
      <point x="103.27272727272727" y="611.0909090909091"/>
      <point x="146.0" y="660.0909090909091"/>
      <point x="146.0" y="728.4545454545455" type="curve" smooth="yes"/>
      <point x="146.0" y="820.3636363636364"/>
      <point x="88.72727272727272" y="877.4545454545455"/>
      <point x="-1.0909090909090904" y="877.4545454545455" type="curve" smooth="yes"/>
      <point x="-105.81818181818181" y="877.4545454545455"/>
      <point x="-160.1818181818182" y="793.909090909091"/>
      <point x="-160.1818181818182" y="685.0" type="curve" smooth="yes"/>
      <point x="-160.1818181818182" y="579.6363636363636"/>
      <point x="-107.27272727272728" y="512.2727272727273"/>
    </contour>
  </outline>
</glyph>
<glyph name="uuMatra-tamil" format="2">
  <advance width="637.0"/>
  <unicode hex="0BC2"/>
  <note>
uni0BC2
</note>
  <anchor x="322.09090909090907" y="780.0" name="top"/>
  <outline>
    <contour>
      <point x="277.54545454545456" y="0.45454545454545453" type="curve" smooth="yes"/>
      <point x="473.0909090909091" y="0.45454545454545453"/>
      <point x="594.6363636363636" y="152.18181818181816"/>
      <point x="594.6363636363636" y="409.1818181818182" type="curve" smooth="yes"/>
      <point x="594.6363636363636" y="630.9090909090909"/>
      <point x="494.3636363636364" y="780.0"/>
      <point x="322.09090909090907" y="780.0" type="curve" smooth="yes"/>
      <point x="166.18181818181816" y="780.0"/>
      <point x="110.27272727272728" y="656.7272727272727"/>
      <point x="110.27272727272728" y="533.7272727272726" type="curve" smooth="yes"/>
      <point x="110.27272727272728" y="373.09090909090907" type="line" smooth="yes"/>
      <point x="110.27272727272728" y="269.9090909090909"/>
      <point x="158.36363636363637" y="220.8181818181818"/>
      <point x="236.0909090909091" y="220.8181818181818" type="curve" smooth="yes"/>
      <point x="307.45454545454544" y="220.8181818181818"/>
      <point x="369.09090909090907" y="265.54545454545456"/>
      <point x="369.09090909090907" y="368.4545454545455" type="curve" smooth="yes"/>
      <point x="369.09090909090907" y="548.5454545454545" type="line"/>
      <point x="-192.45454545454544" y="548.5454545454545" type="line"/>
      <point x="-166.36363636363637" y="508.6363636363636" type="line"/>
      <point x="307.3636363636364" y="508.6363636363636" type="line"/>
      <point x="307.3636363636364" y="361.90909090909093" type="line" smooth="yes"/>
      <point x="307.3636363636364" y="296.18181818181813"/>
      <point x="274.54545454545456" y="263.7272727272727"/>
      <point x="227.0909090909091" y="263.7272727272727" type="curve" smooth="yes"/>
      <point x="176.09090909090907" y="263.7272727272727"/>
      <point x="152.09090909090907" y="296.8181818181818"/>
      <point x="152.09090909090907" y="370.0909090909091" type="curve" smooth="yes"/>
      <point x="152.09090909090907" y="533.7272727272726" type="line" smooth="yes"/>
      <point x="152.09090909090907" y="641.909090909091"/>
      <point x="199.09090909090907" y="740.1818181818181"/>
      <point x="314.0909090909091" y="740.1818181818181" type="curve" smooth="yes"/>
      <point x="467.72727272727275" y="740.1818181818181"/>
      <point x="530.9090909090909" y="593.6363636363637"/>
      <point x="530.9090909090909" y="417.7272727272727" type="curve" smooth="yes"/>
      <point x="530.9090909090909" y="183.45454545454544"/>
      <point x="439.8181818181818" y="40.81818181818182"/>
      <point x="277.0" y="40.81818181818182" type="curve" smooth="yes"/>
      <point x="184.09090909090912" y="40.81818181818182"/>
      <point x="126.36363636363635" y="75.9090909090909"/>
      <point x="68.72727272727272" y="154.72727272727272" type="curve"/>
      <point x="35.63636363636364" y="128.63636363636363" type="line"/>
      <point x="96.81818181818183" y="48.27272727272727"/>
      <point x="165.27272727272725" y="0.45454545454545453"/>
    </contour>
  </outline>
</glyph>
<glyph name="eMatra-tamil" format="2">
  <advance width="628.5454545454545"/>
  <unicode hex="0BC6"/>
  <note>
uni0BC6
</note>
  <outline>
    <contour>
      <point x="239.0909090909091" y="-4.545454545454546" type="curve" smooth="yes"/>
      <point x="321.72727272727275" y="-4.545454545454546"/>
      <point x="373.2727272727273" y="55.63636363636364"/>
      <point x="373.2727272727273" y="153.1818181818182" type="curve" smooth="yes"/>
      <point x="373.2727272727273" y="244.0909090909091"/>
      <point x="324.1818181818182" y="299.8181818181818"/>
      <point x="252.45454545454544" y="299.8181818181818" type="curve" smooth="yes"/>
      <point x="175.0909090909091" y="299.8181818181818"/>
      <point x="123.63636363636365" y="219.45454545454547"/>
      <point x="113.00000000000001" y="128.72727272727272" type="curve"/>
      <point x="136.27272727272725" y="101.36363636363636" type="line"/>
      <point x="145.8181818181818" y="185.54545454545453"/>
      <point x="185.72727272727275" y="251.9090909090909"/>
      <point x="238.8181818181818" y="251.9090909090909" type="curve" smooth="yes"/>
      <point x="287.90909090909093" y="251.9090909090909"/>
      <point x="314.6363636363636" y="206.8181818181818"/>
      <point x="314.6363636363636" y="148.0" type="curve" smooth="yes"/>
      <point x="314.6363636363636" y="80.54545454545455"/>
      <point x="284.2727272727273" y="36.27272727272727"/>
      <point x="230.45454545454547" y="36.27272727272727" type="curve" smooth="yes"/>
      <point x="143.0" y="36.27272727272727"/>
      <point x="90.63636363636363" y="166.72727272727272"/>
      <point x="90.63636363636363" y="369.54545454545456" type="curve" smooth="yes"/>
      <point x="90.63636363636363" y="604.8181818181818"/>
      <point x="184.27272727272728" y="745.4545454545455"/>
      <point x="331.9090909090909" y="745.4545454545455" type="curve" smooth="yes"/>
      <point x="445.09090909090907" y="745.4545454545455"/>
      <point x="510.72727272727275" y="679.8181818181818"/>
      <point x="510.72727272727275" y="495.8181818181818" type="curve" smooth="yes"/>
      <point x="510.72727272727275" y="0.0" type="line"/>
      <point x="552.5454545454546" y="0.0" type="line"/>
      <point x="552.5454545454546" y="511.0" type="line" smooth="yes"/>
      <point x="552.5454545454546" y="723.3636363636364"/>
      <point x="470.72727272727275" y="808.1818181818182"/>
      <point x="334.0" y="808.1818181818182" type="curve" smooth="yes"/>
      <point x="159.54545454545453" y="808.1818181818182"/>
      <point x="49.45454545454545" y="639.909090909091"/>
      <point x="49.45454545454545" y="372.09090909090907" type="curve" smooth="yes"/>
      <point x="49.45454545454545" y="148.8181818181818"/>
      <point x="117.0" y="-4.545454545454546"/>
    </contour>
  </outline>
</glyph>
<glyph name="eeMatra-tamil" format="2">
  <advance width="470.6363636363637"/>
  <unicode hex="0BC7"/>
  <note>
uni0BC7
</note>
  <outline>
    <contour>
      <point x="283.0" y="-4.545454545454546" type="curve" smooth="yes"/>
      <point x="367.45454545454544" y="-4.545454545454546"/>
      <point x="423.63636363636357" y="50.45454545454545"/>
      <point x="423.63636363636357" y="150.9090909090909" type="curve" smooth="yes"/>
      <point x="423.63636363636357" y="242.27272727272728"/>
      <point x="376.3636363636364" y="296.6363636363636"/>
      <point x="307.8181818181818" y="296.6363636363636" type="curve" smooth="yes"/>
      <point x="219.72727272727272" y="296.6363636363636"/>
      <point x="179.63636363636365" y="191.63636363636365"/>
      <point x="176.54545454545456" y="80.0" type="curve"/>
      <point x="204.81818181818178" y="52.63636363636364" type="line"/>
      <point x="207.63636363636365" y="159.0"/>
      <point x="233.81818181818178" y="248.72727272727272"/>
      <point x="292.2727272727273" y="248.72727272727272" type="curve" smooth="yes"/>
      <point x="340.09090909090907" y="248.72727272727272"/>
      <point x="364.45454545454544" y="204.0909090909091"/>
      <point x="364.45454545454544" y="145.27272727272728" type="curve" smooth="yes"/>
      <point x="364.45454545454544" y="74.0"/>
      <point x="328.54545454545456" y="36.27272727272727"/>
      <point x="274.27272727272725" y="36.27272727272727" type="curve" smooth="yes"/>
      <point x="180.36363636363635" y="36.27272727272727"/>
      <point x="93.36363636363637" y="190.1818181818182"/>
      <point x="93.36363636363637" y="396.72727272727275" type="curve" smooth="yes"/>
      <point x="93.36363636363637" y="603.1818181818181"/>
      <point x="180.36363636363635" y="758.8181818181819"/>
      <point x="274.2727272727273" y="758.8181818181819" type="curve" smooth="yes"/>
      <point x="328.54545454545456" y="758.8181818181819"/>
      <point x="364.45454545454544" y="720.5454545454545"/>
      <point x="364.45454545454544" y="649.2727272727273" type="curve" smooth="yes"/>
      <point x="364.45454545454544" y="590.9090909090909"/>
      <point x="340.09090909090907" y="546.8181818181819"/>
      <point x="292.2727272727273" y="546.8181818181819" type="curve" smooth="yes"/>
      <point x="233.81818181818184" y="546.8181818181819"/>
      <point x="207.63636363636365" y="636.0"/>
      <point x="204.81818181818178" y="742.9090909090909" type="curve"/>
      <point x="176.54545454545453" y="715.0909090909091" type="line"/>
      <point x="179.63636363636365" y="603.4545454545455"/>
      <point x="219.72727272727272" y="498.3636363636363"/>
      <point x="307.8181818181818" y="498.3636363636363" type="curve" smooth="yes"/>
      <point x="376.3636363636364" y="498.3636363636363"/>
      <point x="423.63636363636357" y="552.8181818181819"/>
      <point x="423.63636363636357" y="644.1818181818181" type="curve" smooth="yes"/>
      <point x="423.63636363636357" y="744.5454545454545"/>
      <point x="367.4545454545455" y="799.5454545454546"/>
      <point x="283.0" y="799.5454545454546" type="curve" smooth="yes"/>
      <point x="149.54545454545456" y="799.5454545454546"/>
      <point x="52.63636363636363" y="622.0"/>
      <point x="52.63636363636363" y="397.8181818181818" type="curve" smooth="yes"/>
      <point x="52.63636363636363" y="174.09090909090907"/>
      <point x="149.54545454545453" y="-4.545454545454546"/>
    </contour>
  </outline>
</glyph>
<glyph name="halant-tamil" format="2">
  <unicode hex="0BCD"/>
  <note>
uni0BCD
</note>
  <anchor x="0.0" y="548.5454545454545" name="_top"/>
  <outline>
    <contour>
      <point x="0.0" y="630.0" type="curve" smooth="yes"/>
      <point x="26.0" y="630.0"/>
      <point x="46.45454545454545" y="650.4545454545455"/>
      <point x="46.45454545454545" y="674.9090909090909" type="curve" smooth="yes"/>
      <point x="46.45454545454545" y="698.9090909090909"/>
      <point x="26.0" y="720.8181818181818"/>
      <point x="0.0" y="720.8181818181818" type="curve" smooth="yes"/>
      <point x="-26.0" y="720.8181818181818"/>
      <point x="-46.45454545454545" y="698.9090909090909"/>
      <point x="-46.45454545454545" y="674.9090909090909" type="curve" smooth="yes"/>
      <point x="-46.45454545454545" y="650.4545454545455"/>
      <point x="-26.0" y="630.0"/>
    </contour>
  </outline>
</glyph>
